font.ufo
<glyph name="exclam" format="1">
  <advance width="244"/>
  <unicode hex="0021"/>
  <outline>
    <contour>
      <point x="150" y="229" type="line"/>
      <point x="157" y="722" type="line"/>
      <point x="89" y="722" type="line"/>
      <point x="95" y="229" type="line"/>
    </contour>
    <contour>
      <point x="160" y="27" type="curve"/>
      <point x="160" y="49"/>
      <point x="145" y="61"/>
      <point x="122" y="61" type="curve"/>
      <point x="100" y="61"/>
      <point x="86" y="48"/>
      <point x="86" y="27" type="curve"/>
      <point x="151" y="27"/>
      <point x="95" y="27"/>
      <point x="160" y="27" type="curve"/>
      <point x="160" y="4"/>
      <point x="145" y="-7"/>
      <point x="122" y="-7" type="curve"/>
      <point x="100" y="-7"/>
      <point x="86" y="5"/>
      <point x="86" y="27" type="curve"/>
      <point x="151" y="27"/>
      <point x="95" y="27"/>
    </contour>
  </outline>
</glyph>
<glyph name="quotedbl" format="1">
  <advance width="427"/>
  <unicode hex="0022"/>
  <outline>
    <contour>
      <point x="146" y="605" type="line"/>
      <point x="151" y="804" type="line"/>
      <point x="84" y="804" type="line"/>
      <point x="89" y="605" type="line"/>
    </contour>
    <contour>
      <point x="339" y="605" type="line"/>
      <point x="344" y="804" type="line"/>
      <point x="277" y="804" type="line"/>
      <point x="282" y="605" type="line"/>
    </contour>
  </outline>
</glyph>
<glyph name="numbersign" format="1">
  <advance width="706"/>
  <unicode hex="0023"/>
  <outline>
    <contour>
      <point x="47" y="238" type="line"/>
      <point x="568" y="238" type="line"/>
      <point x="583" y="286" type="line"/>
      <point x="64" y="286" type="line"/>
    </contour>
    <contour>
      <point x="121" y="474" type="line"/>
      <point x="642" y="474" type="line"/>
      <point x="657" y="521" type="line"/>
      <point x="137" y="521" type="line"/>
    </contour>
    <contour>
      <point x="419" y="39" type="line"/>
      <point x="645" y="722" type="line"/>
      <point x="584" y="722" type="line"/>
      <point x="358" y="39" type="line"/>
    </contour>
    <contour>
      <point x="136" y="46" type="line"/>
      <point x="359" y="722" type="line"/>
      <point x="299" y="722" type="line"/>
      <point x="78" y="46" type="line"/>
    </contour>
  </outline>
</glyph>
<glyph name="percent" format="1">
  <advance width="1104"/>
  <unicode hex="0025"/>
  <outline>
    <contour>
      <point x="372" y="-76" type="line"/>
      <point x="817" y="742" type="line"/>
      <point x="758" y="742" type="line"/>
      <point x="313" y="-76" type="line"/>
    </contour>
    <contour>
      <point x="96" y="535" type="curve"/>
      <point x="96" y="632"/>
      <point x="139" y="700"/>
      <point x="231" y="700" type="curve"/>
      <point x="324" y="701"/>
      <point x="366" y="633"/>
      <point x="366" y="535" type="curve"/>
      <point x="366" y="438"/>
      <point x="327" y="367"/>
      <point x="235" y="367" type="curve"/>
      <point x="140" y="367"/>
      <point x="96" y="436"/>
      <point x="96" y="535" type="curve"/>
      <point x="76" y="535"/>
      <point x="62" y="535"/>
      <point x="41" y="535" type="curve"/>
      <point x="41" y="407"/>
      <point x="108" y="321"/>
      <point x="232" y="321" type="curve"/>
      <point x="357" y="321"/>
      <point x="424" y="408"/>
      <point x="424" y="537" type="curve"/>
      <point x="424" y="664"/>
      <point x="358" y="746"/>
      <point x="234" y="746" type="curve"/>
      <point x="109" y="746"/>
      <point x="41" y="663"/>
      <point x="41" y="535" type="curve"/>
      <point x="62" y="535"/>
      <point x="76" y="535"/>
    </contour>
    <contour>
      <point x="736" y="131" type="curve"/>
      <point x="736" y="229"/>
      <point x="778" y="296"/>
      <point x="871" y="296" type="curve"/>
      <point x="963" y="297"/>
      <point x="1005" y="229"/>
      <point x="1005" y="131" type="curve"/>
      <point x="1005" y="34"/>
      <point x="966" y="-37"/>
      <point x="874" y="-37" type="curve"/>
      <point x="779" y="-37"/>
      <point x="736" y="33"/>
      <point x="736" y="131" type="curve"/>
      <point x="715" y="131"/>
      <point x="701" y="131"/>
      <point x="680" y="131" type="curve"/>
      <point x="680" y="3"/>
      <point x="747" y="-82"/>
      <point x="872" y="-82" type="curve"/>
      <point x="996" y="-82"/>
      <point x="1063" y="4"/>
      <point x="1063" y="133" type="curve"/>
      <point x="1063" y="260"/>
      <point x="997" y="343"/>
      <point x="873" y="343" type="curve"/>
      <point x="748" y="343"/>
      <point x="680" y="259"/>
      <point x="680" y="131" type="curve"/>
      <point x="701" y="131"/>
      <point x="715" y="131"/>
    </contour>
  </outline>
</glyph>
<glyph name="ampersand" format="1">
  <advance width="706"/>
  <unicode hex="0026"/>
  <outline>
    <contour>
      <point x="683" y="25" type="line"/>
      <point x="569" y="133"/>
      <point x="453" y="247"/>
      <point x="338" y="357" type="curve"/>
      <point x="274" y="424"/>
      <point x="192" y="473"/>
      <point x="192" y="569" type="curve"/>
      <point x="192" y="634"/>
      <point x="233" y="679"/>
      <point x="297" y="679" type="curve"/>
      <point x="367" y="679"/>
      <point x="415" y="639"/>
      <point x="415" y="571" type="curve"/>
      <point x="415" y="479"/>
      <point x="341" y="442"/>
      <point x="258" y="397" type="curve"/>
      <point x="156" y="341"/>
      <point x="62" y="297"/>
      <point x="62" y="184" type="curve"/>
      <point x="62" y="61"/>
      <point x="160" y="-5"/>
      <point x="290" y="-5" type="curve"/>
      <point x="483" y="-5"/>
      <point x="588" y="129"/>
      <point x="653" y="316" type="curve"/>
      <point x="600" y="328"/>
      <point x="653" y="316"/>
      <point x="600" y="328" type="curve"/>
      <point x="544" y="164"/>
      <point x="457" y="43"/>
      <point x="293" y="43" type="curve"/>
      <point x="196" y="43"/>
      <point x="123" y="91"/>
      <point x="123" y="184" type="curve"/>
      <point x="123" y="278"/>
      <point x="201" y="312"/>
      <point x="284" y="359" type="curve"/>
      <point x="383" y="413"/>
      <point x="474" y="460"/>
      <point x="475" y="571" type="curve"/>
      <point x="475" y="671"/>
      <point x="402" y="726"/>
      <point x="300" y="726" type="curve"/>
      <point x="200" y="726"/>
      <point x="133" y="666"/>
      <point x="133" y="569" type="curve"/>
      <point x="133" y="461"/>
      <point x="220" y="403"/>
      <point x="296" y="329" type="curve"/>
      <point x="408" y="220"/>
      <point x="534" y="98"/>
      <point x="646" y="-9" type="curve"/>
    </contour>
  </outline>
</glyph>
<glyph name="quotesingle" format="1">
  <advance width="234"/>
  <unicode hex="0027"/>
  <outline>
    <contour>
      <point x="146" y="605" type="line"/>
      <point x="151" y="804" type="line"/>
      <point x="84" y="804" type="line"/>
      <point x="89" y="605" type="line"/>
    </contour>
  </outline>
</glyph>
<glyph name="parenleft" format="1">
  <advance width="367"/>
  <unicode hex="0028"/>
  <outline>
    <contour>
      <point x="355" y="-227" type="curve"/>
      <point x="188" y="-65"/>
      <point x="115" y="93"/>
      <point x="115" y="326" type="curve"/>
      <point x="115" y="560"/>
      <point x="189" y="716"/>
      <point x="354" y="881" type="curve"/>
      <point x="318" y="911"/>
      <point x="354" y="881"/>
      <point x="318" y="911" type="curve"/>
      <point x="140" y="739"/>
      <point x="55" y="575"/>
      <point x="55" y="326" type="curve"/>
      <point x="55" y="76"/>
      <point x="141" y="-87"/>
      <point x="319" y="-260" type="curve"/>
      <point x="355" y="-227"/>
      <point x="319" y="-260"/>
    </contour>
  </outline>
</glyph>
<glyph name="plus" format="1">
  <advance width="672"/>
  <unicode hex="002B"/>
  <outline>
    <contour>
      <point x="53" y="284" type="curve"/>
      <point x="619" y="284" type="line"/>
      <point x="619" y="337"/>
      <point x="619" y="284"/>
      <point x="619" y="337" type="curve"/>
      <point x="53" y="337" type="line"/>
      <point x="53" y="284"/>
      <point x="53" y="337"/>
    </contour>
    <contour>
      <point x="364" y="23" type="curve"/>
      <point x="364" y="587" type="line"/>
      <point x="304" y="587"/>
      <point x="367" y="587"/>
      <point x="306" y="587" type="curve"/>
      <point x="306" y="23" type="line"/>
      <point x="367" y="23"/>
      <point x="304" y="23"/>
    </contour>
  </outline>
</glyph>
<glyph name="comma" format="1">
  <advance width="230"/>
  <unicode hex="002C"/>
  <outline>
    <contour>
      <point x="53" y="-115" type="line"/>
      <point x="105" y="-97"/>
      <point x="143" y="-54"/>
      <point x="143" y="13" type="curve"/>
      <point x="143" y="52"/>
      <point x="130" y="81"/>
      <point x="100" y="81" type="curve"/>
      <point x="77" y="81"/>
      <point x="62" y="69"/>
      <point x="62" y="47" type="curve"/>
      <point x="62" y="27"/>
      <point x="74" y="15"/>
      <point x="96" y="11" type="curve"/>
      <point x="95" y="-17"/>
      <point x="83" y="-58"/>
      <point x="42" y="-80" type="curve"/>
    </contour>
  </outline>
</glyph>
<glyph name="hyphen" format="1">
  <advance width="471"/>
  <unicode hex="002D"/>
  <outline>
    <contour>
      <point x="84" y="249" type="curve"/>
      <point x="185" y="249"/>
      <point x="287" y="249"/>
      <point x="388" y="249" type="curve"/>
      <point x="388" y="302"/>
      <point x="388" y="249"/>
      <point x="388" y="302" type="curve"/>
      <point x="287" y="302"/>
      <point x="185" y="302"/>
      <point x="84" y="302" type="curve"/>
      <point x="84" y="249"/>
      <point x="84" y="302"/>
    </contour>
  </outline>
</glyph>
<glyph name="period" format="1">
  <advance width="234"/>
  <unicode hex="002E"/>
  <outline>
    <contour>
      <point x="154" y="27" type="curve"/>
      <point x="154" y="49"/>
      <point x="138" y="61"/>
      <point x="116" y="61" type="curve"/>
      <point x="94" y="61"/>
      <point x="79" y="48"/>
      <point x="79" y="27" type="curve"/>
      <point x="145" y="27"/>
      <point x="89" y="27"/>
      <point x="154" y="27" type="curve"/>
      <point x="154" y="4"/>
      <point x="138" y="-7"/>
      <point x="116" y="-7" type="curve"/>
      <point x="94" y="-7"/>
      <point x="79" y="5"/>
      <point x="79" y="27" type="curve"/>
      <point x="145" y="27"/>
      <point x="89" y="27"/>
    </contour>
  </outline>
</glyph>
<glyph name="slash" format="1">
  <advance width="576"/>
  <unicode hex="002F"/>
  <outline>
    <contour>
      <point x="97" y="-51" type="curve"/>
      <point x="244" y="241"/>
      <point x="392" y="533"/>
      <point x="540" y="825" type="curve"/>
      <point x="480" y="825"/>
      <point x="540" y="825"/>
      <point x="480" y="825" type="curve"/>
      <point x="332" y="533"/>
      <point x="184" y="241"/>
      <point x="35" y="-51" type="curve"/>
      <point x="97" y="-51"/>
      <point x="35" y="-51"/>
    </contour>
  </outline>
</glyph>
<glyph name="zero" format="1">
  <advance width="751"/>
  <unicode hex="0030"/>
  <outline>
    <contour>
      <point x="127" y="360" type="curve"/>
      <point x="127" y="547"/>
      <point x="200" y="676"/>
      <point x="374" y="676" type="curve"/>
      <point x="548" y="676"/>
      <point x="624" y="548"/>
      <point x="624" y="362" type="curve"/>
      <point x="624" y="177"/>
      <point x="550" y="46"/>
      <point x="379" y="46" type="curve"/>
      <point x="207" y="46"/>
      <point x="127" y="174"/>
      <point x="127" y="360" type="curve"/>
      <point x="67" y="360"/>
      <point x="126" y="360"/>
      <point x="66" y="360" type="curve"/>
      <point x="66" y="141"/>
      <point x="167" y="-5"/>
      <point x="377" y="-5" type="curve"/>
      <point x="587" y="-5"/>
      <point x="684" y="143"/>
      <point x="684" y="363" type="curve"/>
      <point x="684" y="581"/>
      <point x="587" y="727"/>
      <point x="379" y="727" type="curve"/>
      <point x="167" y="727"/>
      <point x="66" y="580"/>
      <point x="66" y="360" type="curve"/>
      <point x="126" y="360"/>
      <point x="67" y="360"/>
    </contour>
  </outline>
</glyph>
<glyph name="two" format="1">
  <advance width="613"/>
  <unicode hex="0032"/>
  <outline>
    <contour>
      <point x="543" y="48" type="curve"/>
      <point x="543" y="165"/>
      <point x="543" y="46"/>
      <point x="543" y="163" type="curve"/>
      <point x="494" y="163"/>
      <point x="543" y="163"/>
      <point x="494" y="163" type="curve"/>
      <point x="494" y="46"/>
      <point x="494" y="165"/>
      <point x="494" y="48" type="curve"/>
      <point x="543" y="48"/>
      <point x="494" y="48"/>
    </contour>
    <contour>
      <point x="52" y="0" type="curve"/>
      <point x="232" y="0"/>
      <point x="386" y="0"/>
      <point x="543" y="0" type="curve"/>
      <point x="543" y="48"/>
      <point x="543" y="0"/>
      <point x="543" y="48" type="curve"/>
      <point x="375" y="48"/>
      <point x="218" y="48"/>
      <point x="52" y="48" type="curve"/>
      <point x="52" y="0"/>
      <point x="52" y="48"/>
    </contour>
    <contour>
      <point x="111" y="548" type="curve"/>
      <point x="161" y="625"/>
      <point x="210" y="676"/>
      <point x="298" y="676" type="curve"/>
      <point x="397" y="676"/>
      <point x="455" y="621"/>
      <point x="455" y="519" type="curve"/>
      <point x="455" y="400"/>
      <point x="371" y="319"/>
      <point x="287" y="251" type="curve"/>
      <point x="208" y="183"/>
      <point x="130" y="116"/>
      <point x="52" y="48" type="curve"/>
      <point x="60" y="0"/>
      <point x="52" y="48"/>
      <point x="60" y="0" type="curve"/>
      <point x="162" y="70"/>
      <point x="243" y="143"/>
      <point x="325" y="214" type="curve"/>
      <point x="421" y="292"/>
      <point x="513" y="378"/>
      <point x="513" y="521" type="curve"/>
      <point x="513" y="655"/>
      <point x="433" y="727"/>
      <point x="301" y="727" type="curve"/>
      <point x="191" y="727"/>
      <point x="119" y="670"/>
      <point x="68" y="575" type="curve"/>
      <point x="111" y="548"/>
      <point x="68" y="575"/>
    </contour>
  </outline>
</glyph>
<glyph name="five" format="1">
  <advance width="554"/>
  <unicode hex="0035"/>
  <outline>
    <contour>
      <point x="99" y="722" type="curve"/>
      <point x="99" y="621"/>
      <point x="99" y="512"/>
      <point x="99" y="395" type="curve"/>
      <point x="157" y="379"/>
      <point x="99" y="395"/>
      <point x="157" y="379" type="curve"/>
      <point x="157" y="476"/>
      <point x="157" y="577"/>
      <point x="157" y="674" type="curve"/>
      <point x="99" y="722"/>
      <point x="157" y="674"/>
    </contour>
    <contour>
      <point x="157" y="379" type="curve"/>
      <point x="180" y="393"/>
      <point x="228" y="406"/>
      <point x="264" y="406" type="curve"/>
      <point x="371" y="406"/>
      <point x="435" y="337"/>
      <point x="435" y="229" type="curve"/>
      <point x="435" y="120"/>
      <point x="359" y="47"/>
      <point x="248" y="47" type="curve"/>
      <point x="187" y="47"/>
      <point x="141" y="60"/>
      <point x="84" y="88" type="curve"/>
      <point x="55" y="44"/>
      <point x="84" y="88"/>
      <point x="55" y="44" type="curve"/>
      <point x="116" y="11"/>
      <point x="174" y="-5"/>
      <point x="245" y="-5" type="curve"/>
      <point x="391" y="-5"/>
      <point x="496" y="86"/>
      <point x="496" y="229" type="curve"/>
      <point x="496" y="366"/>
      <point x="408" y="457"/>
      <point x="268" y="457" type="curve"/>
      <point x="211" y="457"/>
      <point x="142" y="439"/>
      <point x="99" y="399" type="curve"/>
      <point x="157" y="379"/>
      <point x="99" y="399"/>
    </contour>
    <contour>
      <point x="472" y="722" type="curve"/>
      <point x="343" y="722"/>
      <point x="223" y="722"/>
      <point x="99" y="722" type="curve"/>
      <point x="157" y="674"/>
      <point x="99" y="722"/>
      <point x="157" y="674" type="curve"/>
      <point x="262" y="674"/>
      <point x="363" y="674"/>
      <point x="472" y="674" type="curve"/>
      <point x="472" y="722"/>
      <point x="472" y="674"/>
    </contour>
  </outline>
</glyph>
<glyph name="six" format="1">
  <advance width="614"/>
  <unicode hex="0036"/>
  <outline>
    <contour>
      <point x="110" y="226" type="curve"/>
      <point x="148" y="315"/>
      <point x="218" y="370"/>
      <point x="316" y="370" type="curve"/>
      <point x="423" y="370"/>
      <point x="486" y="314"/>
      <point x="486" y="209" type="curve"/>
      <point x="486" y="110"/>
      <point x="422" y="49"/>
      <point x="320" y="49" type="curve"/>
      <point x="194" y="49"/>
      <point x="119" y="123"/>
      <point x="119" y="247" type="curve"/>
      <point x="119" y="497"/>
      <point x="299" y="617"/>
      <point x="545" y="688" type="curve"/>
      <point x="530" y="733"/>
      <point x="545" y="688"/>
      <point x="530" y="733" type="curve"/>
      <point x="261" y="661"/>
      <point x="60" y="525"/>
      <point x="60" y="245" type="curve"/>
      <point x="60" y="86"/>
      <point x="158" y="-7"/>
      <point x="318" y="-7" type="curve"/>
      <point x="459" y="-7"/>
      <point x="548" y="72"/>
      <point x="548" y="210" type="curve"/>
      <point x="548" y="346"/>
      <point x="460" y="421"/>
      <point x="323" y="421" type="curve"/>
      <point x="197" y="421"/>
      <point x="113" y="347"/>
      <point x="72" y="247" type="curve"/>
      <point x="109" y="226"/>
      <point x="72" y="247"/>
    </contour>
  </outline>
</glyph>
<glyph name="seven" format="1">
  <advance width="577"/>
  <unicode hex="0037"/>
  <outline>
    <contour>
      <point x="103" y="566" type="line"/>
      <point x="103" y="681" type="line"/>
      <point x="54" y="681" type="line"/>
      <point x="54" y="566" type="line"/>
    </contour>
    <contour>
      <point x="54" y="674" type="line"/>
      <point x="557" y="674" type="line"/>
      <point x="557" y="722" type="line"/>
      <point x="54" y="722" type="line"/>
    </contour>
    <contour>
      <point x="521" y="722" type="line"/>
      <point x="89" y="0" type="line"/>
      <point x="157" y="0" type="line"/>
      <point x="557" y="674" type="line"/>
    </contour>
  </outline>
</glyph>
<glyph name="eight" format="1">
  <advance width="593"/>
  <unicode hex="0038"/>
  <outline>
    <contour>
      <point x="85" y="555" type="curve"/>
      <point x="85" y="441"/>
      <point x="172" y="410"/>
      <point x="279" y="360" type="curve"/>
      <point x="381" y="312"/>
      <point x="466" y="281"/>
      <point x="466" y="177" type="curve"/>
      <point x="466" y="83"/>
      <point x="397" y="45"/>
      <point x="295" y="45" type="curve"/>
      <point x="193" y="45"/>
      <point x="126" y="84"/>
      <point x="126" y="177" type="curve"/>
      <point x="126" y="284"/>
      <point x="213" y="311"/>
      <point x="316" y="361" type="curve"/>
      <point x="420" y="411"/>
      <point x="506" y="441"/>
      <point x="506" y="553" type="curve"/>
      <point x="506" y="675"/>
      <point x="425" y="727"/>
      <point x="295" y="727" type="curve"/>
      <point x="169" y="727"/>
      <point x="85" y="673"/>
      <point x="85" y="555" type="curve"/>
      <point x="146" y="555"/>
      <point x="85" y="555"/>
      <point x="146" y="555" type="curve"/>
      <point x="146" y="638"/>
      <point x="204" y="677"/>
      <point x="293" y="677" type="curve"/>
      <point x="387" y="677"/>
      <point x="446" y="641"/>
      <point x="446" y="553" type="curve"/>
      <point x="446" y="462"/>
      <point x="368" y="437"/>
      <point x="278" y="395" type="curve"/>
      <point x="161" y="339"/>
      <point x="65" y="304"/>
      <point x="65" y="177" type="curve"/>
      <point x="65" y="50"/>
      <point x="156" y="-5"/>
      <point x="292" y="-5" type="curve"/>
      <point x="431" y="-5"/>
      <point x="527" y="47"/>
      <point x="527" y="177" type="curve"/>
      <point x="527" y="302"/>
      <point x="432" y="340"/>
      <point x="317" y="395" type="curve"/>
      <point x="225" y="440"/>
      <point x="146" y="461"/>
      <point x="146" y="555" type="curve"/>
      <point x="85" y="555"/>
      <point x="146" y="555"/>
    </contour>
  </outline>
</glyph>
<glyph name="nine" format="1">
  <advance width="613"/>
  <unicode hex="0039"/>
  <outline>
    <contour>
      <point x="506" y="490" type="curve"/>
      <point x="464" y="402"/>
      <point x="403" y="351"/>
      <point x="301" y="351" type="curve"/>
      <point x="193" y="351"/>
      <point x="126" y="409"/>
      <point x="126" y="515" type="curve"/>
      <point x="126" y="616"/>
      <point x="191" y="673"/>
      <point x="294" y="673" type="curve"/>
      <point x="420" y="673"/>
      <point x="495" y="599"/>
      <point x="495" y="475" type="curve"/>
      <point x="495" y="225"/>
      <point x="324" y="100"/>
      <point x="72" y="36" type="curve"/>
      <point x="88" y="-14"/>
      <point x="72" y="36"/>
      <point x="88" y="-14" type="curve"/>
      <point x="363" y="50"/>
      <point x="553" y="197"/>
      <point x="553" y="477" type="curve"/>
      <point x="553" y="636"/>
      <point x="457" y="729"/>
      <point x="296" y="729" type="curve"/>
      <point x="155" y="729"/>
      <point x="67" y="650"/>
      <point x="67" y="512" type="curve"/>
      <point x="67" y="376"/>
      <point x="155" y="301"/>
      <point x="296" y="301" type="curve"/>
      <point x="419" y="301"/>
      <point x="495" y="367"/>
      <point x="537" y="475" type="curve"/>
      <point x="506" y="490"/>
      <point x="537" y="475"/>
    </contour>
  </outline>
</glyph>
<glyph name="colon" format="1">
  <advance width="242"/>
  <unicode hex="003A"/>
  <outline>
    <contour>
      <point x="159" y="406" type="curve"/>
      <point x="159" y="428"/>
      <point x="142" y="439"/>
      <point x="121" y="439" type="curve"/>
      <point x="99" y="439"/>
      <point x="84" y="426"/>
      <point x="84" y="406" type="curve"/>
      <point x="149" y="406"/>
      <point x="93" y="406"/>
      <point x="159" y="406" type="curve"/>
      <point x="159" y="383"/>
      <point x="143" y="372"/>
      <point x="120" y="372" type="curve"/>
      <point x="98" y="372"/>
      <point x="84" y="384"/>
      <point x="84" y="406" type="curve"/>
      <point x="149" y="406"/>
      <point x="93" y="406"/>
    </contour>
    <contour>
      <point x="158" y="27" type="curve"/>
      <point x="158" y="49"/>
      <point x="142" y="61"/>
      <point x="120" y="61" type="curve"/>
      <point x="98" y="61"/>
      <point x="84" y="48"/>
      <point x="84" y="27" type="curve"/>
      <point x="149" y="27"/>
      <point x="93" y="27"/>
      <point x="158" y="27" type="curve"/>
      <point x="158" y="5"/>
      <point x="142" y="-6"/>
      <point x="120" y="-6" type="curve"/>
      <point x="98" y="-6"/>
      <point x="84" y="6"/>
      <point x="84" y="27" type="curve"/>
      <point x="149" y="27"/>
      <point x="93" y="27"/>
    </contour>
  </outline>
</glyph>
<glyph name="semicolon" format="1">
  <advance width="278"/>
  <unicode hex="003B"/>
  <outline>
    <contour>
      <point x="89" y="-116" type="line"/>
      <point x="142" y="-98"/>
      <point x="181" y="-55"/>
      <point x="181" y="13" type="curve"/>
      <point x="181" y="51"/>
      <point x="167" y="80"/>
      <point x="136" y="80" type="curve"/>
      <point x="113" y="80"/>
      <point x="98" y="68"/>
      <point x="98" y="46" type="curve"/>
      <point x="98" y="26"/>
      <point x="110" y="14"/>
      <point x="132" y="10" type="curve"/>
      <point x="132" y="-18"/>
      <point x="120" y="-59"/>
      <point x="77" y="-81" type="curve"/>
    </contour>
    <contour>
      <point x="174" y="413" type="curve"/>
      <point x="174" y="435"/>
      <point x="159" y="447"/>
      <point x="136" y="447" type="curve"/>
      <point x="114" y="447"/>
      <point x="100" y="434"/>
      <point x="100" y="413" type="curve"/>
      <point x="165" y="413"/>
      <point x="109" y="413"/>
      <point x="174" y="413" type="curve"/>
      <point x="174" y="391"/>
      <point x="159" y="379"/>
      <point x="136" y="379" type="curve"/>
      <point x="113" y="379"/>
      <point x="100" y="392"/>
      <point x="100" y="413" type="curve"/>
      <point x="165" y="413"/>
      <point x="109" y="413"/>
    </contour>
  </outline>
</glyph>
<glyph name="less" format="1">
  <advance width="748"/>
  <unicode hex="003C"/>
  <outline>
    <contour>
      <point x="677" y="596" type="curve"/>
      <point x="465" y="506"/>
      <point x="253" y="416"/>
      <point x="41" y="326" type="curve"/>
      <point x="41" y="274"/>
      <point x="41" y="326"/>
      <point x="41" y="274" type="curve"/>
      <point x="253" y="364"/>
      <point x="465" y="454"/>
      <point x="677" y="544" type="curve"/>
      <point x="677" y="596"/>
      <point x="677" y="544"/>
    </contour>
    <contour>
      <point x="688" y="62" type="curve"/>
      <point x="472" y="150"/>
      <point x="257" y="238"/>
      <point x="41" y="326" type="curve"/>
      <point x="41" y="274"/>
      <point x="41" y="326"/>
      <point x="41" y="274" type="curve"/>
      <point x="257" y="186"/>
      <point x="472" y="98"/>
      <point x="688" y="10" type="curve"/>
      <point x="688" y="62"/>
      <point x="688" y="10"/>
    </contour>
  </outline>
</glyph>
<glyph name="equal" format="1">
  <advance width="829"/>
  <unicode hex="003D"/>
  <outline>
    <contour>
      <point x="86" y="192" type="curve"/>
      <point x="305" y="192"/>
      <point x="524" y="192"/>
      <point x="742" y="192" type="curve"/>
      <point x="742" y="243"/>
      <point x="742" y="192"/>
      <point x="742" y="243" type="curve"/>
      <point x="524" y="243"/>
      <point x="305" y="243"/>
      <point x="86" y="243" type="curve"/>
      <point x="86" y="192"/>
      <point x="86" y="243"/>
    </contour>
    <contour>
      <point x="86" y="414" type="curve"/>
      <point x="305" y="414"/>
      <point x="524" y="414"/>
      <point x="742" y="414" type="curve"/>
      <point x="742" y="465"/>
      <point x="742" y="414"/>
      <point x="742" y="465" type="curve"/>
      <point x="524" y="465"/>
      <point x="305" y="465"/>
      <point x="86" y="465" type="curve"/>
      <point x="86" y="414"/>
      <point x="86" y="465"/>
    </contour>
  </outline>
</glyph>
<glyph name="question" format="1">
  <advance width="521"/>
  <unicode hex="003F"/>
  <outline>
    <contour>
      <point x="199" y="348" type="curve"/>
      <point x="199" y="311"/>
      <point x="199" y="259"/>
      <point x="199" y="222" type="curve"/>
      <point x="258" y="222"/>
      <point x="199" y="222"/>
      <point x="258" y="222" type="curve"/>
      <point x="258" y="259"/>
      <point x="258" y="311"/>
      <point x="258" y="348" type="curve"/>
      <point x="199" y="348"/>
      <point x="258" y="348"/>
    </contour>
    <contour>
      <point x="90" y="610" type="line"/>
      <point x="124" y="645"/>
      <point x="173" y="673"/>
      <point x="234" y="673" type="curve"/>
      <point x="335" y="673"/>
      <point x="402" y="617"/>
      <point x="402" y="519" type="curve"/>
      <point x="402" y="410"/>
      <point x="322" y="348"/>
      <point x="205" y="348" type="curve"/>
      <point x="205" y="325"/>
      <point x="205" y="322"/>
      <point x="205" y="299" type="curve"/>
      <point x="355" y="299"/>
      <point x="460" y="380"/>
      <point x="460" y="519" type="curve"/>
      <point x="460" y="648"/>
      <point x="369" y="723"/>
      <point x="238" y="723" type="curve"/>
      <point x="160" y="723"/>
      <point x="101" y="692"/>
      <point x="57" y="646" type="curve"/>
    </contour>
    <contour>
      <point x="265" y="19" type="curve"/>
      <point x="265" y="40"/>
      <point x="250" y="51"/>
      <point x="229" y="51" type="curve"/>
      <point x="208" y="51"/>
      <point x="194" y="39"/>
      <point x="194" y="19" type="curve"/>
      <point x="265" y="19"/>
      <point x="194" y="19"/>
      <point x="265" y="19" type="curve"/>
      <point x="265" y="-2"/>
      <point x="250" y="-12"/>
      <point x="229" y="-12" type="curve"/>
      <point x="207" y="-12"/>
      <point x="194" y="-1"/>
      <point x="194" y="19" type="curve"/>
      <point x="265" y="19"/>
      <point x="194" y="19"/>
    </contour>
  </outline>
</glyph>
<glyph name="at" format="1">
  <advance width="862"/>
  <unicode hex="0040"/>
  <outline>
    <contour>
      <point x="603" y="-63" type="curve"/>
      <point x="548" y="-90"/>
      <point x="507" y="-97"/>
      <point x="445" y="-97" type="curve"/>
      <point x="241" y="-97"/>
      <point x="116" y="8"/>
      <point x="116" y="208" type="curve"/>
      <point x="116" y="402"/>
      <point x="241" y="506"/>
      <point x="441" y="506" type="curve"/>
      <point x="630" y="506"/>
      <point x="744" y="401"/>
      <point x="744" y="215" type="curve"/>
      <point x="744" y="140"/>
      <point x="730" y="79"/>
      <point x="674" y="79" type="curve"/>
      <point x="615" y="79"/>
      <point x="598" y="138"/>
      <point x="598" y="213" type="curve"/>
      <point x="598" y="323"/>
      <point x="537" y="392"/>
      <point x="428" y="392" type="curve"/>
      <point x="312" y="392"/>
      <point x="247" y="326"/>
      <point x="247" y="212" type="curve"/>
      <point x="247" y="94"/>
      <point x="307" y="22"/>
      <point x="422" y="22" type="curve"/>
      <point x="524" y="22"/>
      <point x="571" y="93"/>
      <point x="588" y="199" type="curve"/>
      <point x="550" y="208"/>
      <point x="588" y="199"/>
      <point x="550" y="208" type="curve"/>
      <point x="530" y="130"/>
      <point x="503" y="70"/>
      <point x="429" y="70" type="curve"/>
      <point x="344" y="70"/>
      <point x="303" y="126"/>
      <point x="303" y="215" type="curve"/>
      <point x="303" y="295"/>
      <point x="345" y="343"/>
      <point x="424" y="343" type="curve"/>
      <point x="504" y="343"/>
      <point x="543" y="292"/>
      <point x="543" y="210" type="curve"/>
      <point x="543" y="109"/>
      <point x="576" y="34"/>
      <point x="669" y="34" type="curve"/>
      <point x="767" y="34"/>
      <point x="800" y="111"/>
      <point x="800" y="218" type="curve"/>
      <point x="800" y="436"/>
      <point x="666" y="557"/>
      <point x="444" y="557" type="curve"/>
      <point x="206" y="557"/>
      <point x="59" y="436"/>
      <point x="59" y="205" type="curve"/>
      <point x="59" y="-24"/>
      <point x="205" y="-145"/>
      <point x="441" y="-145" type="curve"/>
      <point x="516" y="-145"/>
      <point x="566" y="-135"/>
      <point x="627" y="-104" type="curve"/>
      <point x="603" y="-63"/>
      <point x="627" y="-104"/>
    </contour>
  </outline>
</glyph>
<glyph name="F" format="1">
  <advance width="656"/>
  <unicode hex="0046"/>
  <outline>
    <contour>
      <point x="194" y="0" type="curve"/>
      <point x="245" y="0"/>
      <point x="194" y="0"/>
      <point x="346" y="0" type="curve"/>
      <point x="346" y="48"/>
      <point x="346" y="0"/>
      <point x="346" y="48" type="curve"/>
      <point x="194" y="48"/>
      <point x="346" y="48"/>
      <point x="194" y="48" type="curve"/>
      <point x="194" y="0"/>
      <point x="194" y="48"/>
    </contour>
    <contour>
      <point x="194" y="722" type="curve"/>
      <point x="144" y="722"/>
      <point x="99" y="722"/>
      <point x="49" y="722" type="curve"/>
      <point x="49" y="674"/>
      <point x="49" y="722"/>
      <point x="49" y="674" type="curve"/>
      <point x="201" y="674"/>
      <point x="43" y="674"/>
      <point x="194" y="674" type="curve"/>
      <point x="194" y="722"/>
      <point x="194" y="674"/>
    </contour>
    <contour>
      <point x="194" y="48" type="curve"/>
      <point x="43" y="48"/>
      <point x="201" y="48"/>
      <point x="49" y="48" type="curve"/>
      <point x="49" y="0"/>
      <point x="49" y="48"/>
      <point x="49" y="0" type="curve"/>
      <point x="99" y="0"/>
      <point x="144" y="0"/>
      <point x="194" y="0" type="curve"/>
      <point x="194" y="48"/>
      <point x="194" y="0"/>
    </contour>
    <contour>
      <point x="562" y="698" type="curve"/>
      <point x="562" y="578"/>
      <point x="562" y="702"/>
      <point x="562" y="582" type="curve"/>
      <point x="610" y="582"/>
      <point x="562" y="582"/>
      <point x="610" y="582" type="curve"/>
      <point x="610" y="702"/>
      <point x="610" y="578"/>
      <point x="610" y="698" type="curve"/>
      <point x="562" y="698"/>
      <point x="610" y="698"/>
    </contour>
    <contour>
      <point x="198" y="349" type="curve"/>
      <point x="310" y="349"/>
      <point x="422" y="349"/>
      <point x="534" y="349" type="curve"/>
      <point x="534" y="398"/>
      <point x="534" y="349"/>
      <point x="534" y="398" type="curve"/>
      <point x="422" y="398"/>
      <point x="310" y="398"/>
      <point x="198" y="398" type="curve"/>
      <point x="198" y="349"/>
      <point x="198" y="398"/>
    </contour>
    <contour>
      <point x="224" y="0" type="curve"/>
      <point x="224" y="722" type="line"/>
      <point x="164" y="722"/>
      <point x="224" y="722"/>
      <point x="164" y="722" type="curve"/>
      <point x="164" y="481"/>
      <point x="164" y="241"/>
      <point x="164" y="0" type="curve"/>
      <point x="224" y="0"/>
      <point x="164" y="0"/>
    </contour>
    <contour>
      <point x="183" y="674" type="curve"/>
      <point x="325" y="674"/>
      <point x="468" y="674"/>
      <point x="610" y="674" type="curve"/>
      <point x="610" y="722"/>
      <point x="610" y="674"/>
      <point x="610" y="722" type="curve"/>
      <point x="468" y="722"/>
      <point x="325" y="722"/>
      <point x="183" y="722" type="curve"/>
      <point x="183" y="674"/>
      <point x="183" y="722"/>
    </contour>
  </outline>
</glyph>
<glyph name="G" format="1">
  <advance width="809"/>
  <unicode hex="0047"/>
  <outline>
    <contour>
      <point x="423" y="812" type="move" name="top"/>
    </contour>
    <contour>
      <point x="452" y="-23" type="move" name="bottom"/>
    </contour>
    <contour>
      <point x="673" y="643" type="curve"/>
      <point x="673" y="520"/>
      <point x="673" y="640"/>
      <point x="673" y="518" type="curve"/>
      <point x="721" y="518"/>
      <point x="673" y="518"/>
      <point x="721" y="518" type="curve"/>
      <point x="721" y="640"/>
      <point x="721" y="520"/>
      <point x="721" y="643" type="curve"/>
      <point x="673" y="643"/>
      <point x="721" y="643"/>
    </contour>
    <contour>
      <point x="721" y="334" type="curve"/>
      <point x="645" y="334"/>
      <point x="568" y="334"/>
      <point x="492" y="334" type="curve"/>
      <point x="492" y="286"/>
      <point x="492" y="334"/>
      <point x="492" y="286" type="curve"/>
      <point x="568" y="286"/>
      <point x="645" y="286"/>
      <point x="721" y="286" type="curve"/>
      <point x="721" y="334"/>
      <point x="721" y="286"/>
    </contour>
    <contour>
      <point x="739" y="78" type="curve"/>
      <point x="739" y="163"/>
      <point x="739" y="248"/>
      <point x="739" y="334" type="curve"/>
      <point x="684" y="334"/>
      <point x="739" y="334"/>
      <point x="684" y="334" type="curve"/>
      <point x="684" y="248"/>
      <point x="684" y="163"/>
      <point x="684" y="78" type="curve"/>
      <point x="739" y="78"/>
      <point x="684" y="78"/>
    </contour>
    <contour>
      <point x="721" y="643" type="curve"/>
      <point x="625" y="701"/>
      <point x="537" y="727"/>
      <point x="423" y="727" type="curve"/>
      <point x="194" y="727"/>
      <point x="62" y="595"/>
      <point x="62" y="363" type="curve"/>
      <point x="62" y="127"/>
      <point x="200" y="-5"/>
      <point x="435" y="-5" type="curve"/>
      <point x="556" y="-5"/>
      <point x="633" y="22"/>
      <point x="739" y="78" type="curve"/>
      <point x="707" y="115"/>
      <point x="739" y="78"/>
      <point x="707" y="115" type="curve"/>
      <point x="619" y="68"/>
      <point x="542" y="47"/>
      <point x="436" y="47" type="curve"/>
      <point x="234" y="47"/>
      <point x="124" y="165"/>
      <point x="124" y="368" type="curve"/>
      <point x="124" y="562"/>
      <point x="232" y="677"/>
      <point x="424" y="677" type="curve"/>
      <point x="525" y="677"/>
      <point x="604" y="654"/>
      <point x="691" y="602" type="curve"/>
      <point x="721" y="643"/>
      <point x="691" y="602"/>
    </contour>
  </outline>
</glyph>
<glyph name="H" format="1">
  <advance width="899"/>
  <unicode hex="0048"/>
  <outline>
    <contour>
      <point x="713" y="674" type="curve"/>
      <point x="869" y="674"/>
      <point x="702" y="674"/>
      <point x="858" y="674" type="curve"/>
      <point x="858" y="722"/>
      <point x="858" y="674"/>
      <point x="858" y="722" type="curve"/>
      <point x="806" y="722"/>
      <point x="765" y="722"/>
      <point x="713" y="722" type="curve"/>
      <point x="713" y="674"/>
      <point x="713" y="722"/>
    </contour>
    <contour>
      <point x="713" y="0" type="curve"/>
      <point x="765" y="0"/>
      <point x="806" y="0"/>
      <point x="858" y="0" type="curve"/>
      <point x="858" y="48"/>
      <point x="858" y="0"/>
      <point x="858" y="48" type="curve"/>
      <point x="702" y="48"/>
      <point x="869" y="48"/>
      <point x="713" y="48" type="curve"/>
      <point x="713" y="0"/>
      <point x="713" y="48"/>
    </contour>
    <contour>
      <point x="713" y="48" type="curve"/>
      <point x="557" y="48"/>
      <point x="724" y="48"/>
      <point x="568" y="48" type="curve"/>
      <point x="568" y="0"/>
      <point x="568" y="48"/>
      <point x="568" y="0" type="curve"/>
      <point x="620" y="0"/>
      <point x="661" y="0"/>
      <point x="713" y="0" type="curve"/>
      <point x="713" y="48"/>
      <point x="713" y="0"/>
    </contour>
    <contour>
      <point x="713" y="722" type="curve"/>
      <point x="661" y="722"/>
      <point x="620" y="722"/>
      <point x="568" y="722" type="curve"/>
      <point x="568" y="674"/>
      <point x="568" y="722"/>
      <point x="568" y="674" type="curve"/>
      <point x="724" y="674"/>
      <point x="557" y="674"/>
      <point x="713" y="674" type="curve"/>
      <point x="713" y="722"/>
      <point x="713" y="674"/>
    </contour>
    <contour>
      <point x="186" y="674" type="curve"/>
      <point x="343" y="674"/>
      <point x="175" y="674"/>
      <point x="331" y="674" type="curve"/>
      <point x="331" y="722"/>
      <point x="331" y="674"/>
      <point x="331" y="722" type="curve"/>
      <point x="279" y="722"/>
      <point x="239" y="722"/>
      <point x="186" y="722" type="curve"/>
      <point x="186" y="674"/>
      <point x="186" y="722"/>
    </contour>
    <contour>
      <point x="186" y="722" type="curve"/>
      <point x="135" y="722"/>
      <point x="93" y="722"/>
      <point x="42" y="722" type="curve"/>
      <point x="42" y="674"/>
      <point x="42" y="722"/>
      <point x="42" y="674" type="curve"/>
      <point x="198" y="674"/>
      <point x="31" y="674"/>
      <point x="186" y="674" type="curve"/>
      <point x="186" y="722"/>
      <point x="186" y="674"/>
    </contour>
    <contour>
      <point x="186" y="0" type="curve"/>
      <point x="239" y="0"/>
      <point x="175" y="0"/>
      <point x="331" y="0" type="curve"/>
      <point x="331" y="48"/>
      <point x="331" y="0"/>
      <point x="331" y="48" type="curve"/>
      <point x="175" y="48"/>
      <point x="343" y="48"/>
      <point x="186" y="48" type="curve"/>
      <point x="186" y="0"/>
      <point x="186" y="48"/>
    </contour>
    <contour>
      <point x="186" y="48" type="curve"/>
      <point x="31" y="48"/>
      <point x="198" y="48"/>
      <point x="42" y="48" type="curve"/>
      <point x="42" y="0"/>
      <point x="42" y="48"/>
      <point x="42" y="0" type="curve"/>
      <point x="93" y="0"/>
      <point x="135" y="0"/>
      <point x="186" y="0" type="curve"/>
      <point x="186" y="48"/>
      <point x="186" y="0"/>
    </contour>
    <contour>
      <point x="217" y="0" type="curve"/>
      <point x="217" y="722" type="line"/>
      <point x="156" y="722"/>
      <point x="217" y="722"/>
      <point x="156" y="722" type="curve"/>
      <point x="156" y="481"/>
      <point x="156" y="241"/>
      <point x="156" y="0" type="curve"/>
      <point x="217" y="0"/>
      <point x="156" y="0"/>
    </contour>
    <contour>
      <point x="710" y="387" type="curve"/>
      <point x="535" y="387"/>
      <point x="361" y="387"/>
      <point x="186" y="387" type="curve"/>
      <point x="186" y="339"/>
      <point x="186" y="387"/>
      <point x="186" y="339" type="curve"/>
      <point x="361" y="339"/>
      <point x="535" y="339"/>
      <point x="710" y="339" type="curve"/>
      <point x="710" y="387"/>
      <point x="710" y="339"/>
    </contour>
    <contour>
      <point x="743" y="15" type="curve"/>
      <point x="743" y="246"/>
      <point x="743" y="476"/>
      <point x="743" y="707" type="curve"/>
      <point x="682" y="707"/>
      <point x="743" y="707"/>
      <point x="682" y="707" type="curve"/>
      <point x="682" y="15" type="line"/>
      <point x="743" y="15"/>
      <point x="682" y="15"/>
    </contour>
  </outline>
</glyph>
<glyph name="I" format="1">
  <advance width="373"/>
  <unicode hex="0049"/>
  <outline>
    <contour>
      <point x="186" y="812" type="move" name="top"/>
    </contour>
    <contour>
      <point x="214" y="1" type="move" name="bottom"/>
    </contour>
    <contour>
      <point x="187" y="722" type="curve"/>
      <point x="134" y="722"/>
      <point x="94" y="722"/>
      <point x="42" y="722" type="curve"/>
      <point x="42" y="674"/>
      <point x="42" y="722"/>
      <point x="42" y="674" type="curve"/>
      <point x="198" y="674"/>
      <point x="31" y="674"/>
      <point x="187" y="674" type="curve"/>
      <point x="187" y="722"/>
      <point x="187" y="674"/>
    </contour>
    <contour>
      <point x="187" y="674" type="curve"/>
      <point x="343" y="674"/>
      <point x="176" y="674"/>
      <point x="332" y="674" type="curve"/>
      <point x="332" y="722"/>
      <point x="332" y="674"/>
      <point x="332" y="722" type="curve"/>
      <point x="280" y="722"/>
      <point x="239" y="722"/>
      <point x="187" y="722" type="curve"/>
      <point x="187" y="674"/>
      <point x="187" y="722"/>
    </contour>
    <contour>
      <point x="187" y="0" type="curve"/>
      <point x="239" y="0"/>
      <point x="280" y="0"/>
      <point x="332" y="0" type="curve"/>
      <point x="332" y="48"/>
      <point x="332" y="0"/>
      <point x="332" y="48" type="curve"/>
      <point x="176" y="48"/>
      <point x="343" y="48"/>
      <point x="187" y="48" type="curve"/>
      <point x="187" y="0"/>
      <point x="187" y="48"/>
    </contour>
    <contour>
      <point x="187" y="48" type="curve"/>
      <point x="31" y="48"/>
      <point x="198" y="48"/>
      <point x="42" y="48" type="curve"/>
      <point x="42" y="0"/>
      <point x="42" y="48"/>
      <point x="42" y="0" type="curve"/>
      <point x="94" y="0"/>
      <point x="134" y="0"/>
      <point x="187" y="0" type="curve"/>
      <point x="187" y="48"/>
      <point x="187" y="0"/>
    </contour>
    <contour>
      <point x="216" y="0" type="curve"/>
      <point x="216" y="241"/>
      <point x="216" y="481"/>
      <point x="216" y="722" type="curve"/>
      <point x="155" y="722"/>
      <point x="216" y="722"/>
      <point x="155" y="722" type="curve"/>
      <point x="155" y="481"/>
      <point x="155" y="241"/>
      <point x="155" y="0" type="curve"/>
      <point x="216" y="0"/>
      <point x="155" y="0"/>
    </contour>
  </outline>
</glyph>
<glyph name="L" format="1">
  <advance width="661"/>
  <unicode hex="004C"/>
  <outline>
    <contour>
      <point x="188" y="812" type="move" name="top"/>
    </contour>
    <contour>
      <point x="371" y="-23" type="move" name="bottom"/>
    </contour>
    <contour>
      <point x="626" y="24" type="curve"/>
      <point x="626" y="144"/>
      <point x="626" y="20"/>
      <point x="626" y="140" type="curve"/>
      <point x="577" y="140"/>
      <point x="626" y="140"/>
      <point x="577" y="140" type="curve"/>
      <point x="577" y="20"/>
      <point x="577" y="144"/>
      <point x="577" y="24" type="curve"/>
      <point x="626" y="24"/>
      <point x="577" y="24"/>
    </contour>
    <contour>
      <point x="186" y="48" type="curve"/>
      <point x="30" y="48"/>
      <point x="197" y="48"/>
      <point x="41" y="48" type="curve"/>
      <point x="41" y="0"/>
      <point x="41" y="48"/>
      <point x="41" y="0" type="curve"/>
      <point x="92" y="0"/>
      <point x="134" y="0"/>
      <point x="186" y="0" type="curve"/>
      <point x="186" y="48"/>
      <point x="186" y="0"/>
    </contour>
    <contour>
      <point x="186" y="722" type="curve"/>
      <point x="134" y="722"/>
      <point x="92" y="722"/>
      <point x="41" y="722" type="curve"/>
      <point x="41" y="674"/>
      <point x="41" y="722"/>
      <point x="41" y="674" type="curve"/>
      <point x="197" y="674"/>
      <point x="30" y="674"/>
      <point x="186" y="674" type="curve"/>
      <point x="186" y="722"/>
      <point x="186" y="674"/>
    </contour>
    <contour>
      <point x="186" y="674" type="curve"/>
      <point x="342" y="674"/>
      <point x="175" y="674"/>
      <point x="330" y="674" type="curve"/>
      <point x="330" y="722"/>
      <point x="330" y="674"/>
      <point x="330" y="722" type="curve"/>
      <point x="279" y="722"/>
      <point x="238" y="722"/>
      <point x="186" y="722" type="curve"/>
      <point x="186" y="674"/>
      <point x="186" y="722"/>
    </contour>
    <contour>
      <point x="217" y="0" type="curve"/>
      <point x="217" y="241"/>
      <point x="217" y="481"/>
      <point x="217" y="722" type="curve"/>
      <point x="156" y="722"/>
      <point x="217" y="722"/>
      <point x="156" y="722" type="curve"/>
      <point x="156" y="481"/>
      <point x="156" y="241"/>
      <point x="156" y="0" type="curve"/>
      <point x="217" y="0"/>
      <point x="156" y="0"/>
    </contour>
    <contour>
      <point x="186" y="0" type="curve"/>
      <point x="333" y="0"/>
      <point x="479" y="0"/>
      <point x="626" y="0" type="curve"/>
      <point x="626" y="48"/>
      <point x="626" y="0"/>
      <point x="626" y="48" type="curve"/>
      <point x="479" y="48"/>
      <point x="333" y="48"/>
      <point x="186" y="48" type="curve"/>
      <point x="186" y="0"/>
      <point x="186" y="48"/>
    </contour>
  </outline>
</glyph>
<glyph name="M" format="1">
  <advance width="1052"/>
  <unicode hex="004D"/>
  <outline>
    <contour>
      <point x="885" y="0" type="curve"/>
      <point x="937" y="0"/>
      <point x="977" y="0"/>
      <point x="1028" y="0" type="curve"/>
      <point x="1028" y="48"/>
      <point x="1028" y="0"/>
      <point x="1028" y="48" type="curve"/>
      <point x="873" y="48"/>
      <point x="1039" y="48"/>
      <point x="885" y="48" type="curve"/>
      <point x="885" y="0"/>
      <point x="885" y="48"/>
    </contour>
    <contour>
      <point x="885" y="48" type="curve"/>
      <point x="731" y="48"/>
      <point x="895" y="48"/>
      <point x="742" y="48" type="curve"/>
      <point x="742" y="0"/>
      <point x="742" y="48"/>
      <point x="742" y="0" type="curve"/>
      <point x="793" y="0"/>
      <point x="833" y="0"/>
      <point x="885" y="0" type="curve"/>
      <point x="885" y="48"/>
      <point x="885" y="0"/>
    </contour>
    <contour>
      <point x="169" y="48" type="curve"/>
      <point x="14" y="48"/>
      <point x="180" y="48"/>
      <point x="25" y="48" type="curve"/>
      <point x="25" y="0"/>
      <point x="25" y="48"/>
      <point x="25" y="0" type="curve"/>
      <point x="76" y="0"/>
      <point x="117" y="0"/>
      <point x="169" y="0" type="curve"/>
      <point x="169" y="48"/>
      <point x="169" y="0"/>
    </contour>
    <contour>
      <point x="229" y="722" type="curve"/>
      <point x="177" y="722"/>
      <point x="137" y="722"/>
      <point x="85" y="722" type="curve"/>
      <point x="85" y="674"/>
      <point x="85" y="722"/>
      <point x="85" y="674" type="curve"/>
      <point x="240" y="674"/>
      <point x="74" y="674"/>
      <point x="229" y="674" type="curve"/>
      <point x="229" y="722"/>
      <point x="229" y="674"/>
    </contour>
    <contour>
      <point x="822" y="674" type="curve"/>
      <point x="977" y="674"/>
      <point x="811" y="674"/>
      <point x="966" y="674" type="curve"/>
      <point x="966" y="722"/>
      <point x="966" y="674"/>
      <point x="966" y="722" type="curve"/>
      <point x="914" y="722"/>
      <point x="874" y="722"/>
      <point x="822" y="722" type="curve"/>
      <point x="822" y="674"/>
      <point x="822" y="722"/>
    </contour>
    <contour>
      <point x="169" y="0" type="curve"/>
      <point x="219" y="0"/>
      <point x="157" y="0"/>
      <point x="311" y="0" type="curve"/>
      <point x="311" y="48"/>
      <point x="311" y="0"/>
      <point x="311" y="48" type="curve"/>
      <point x="157" y="48"/>
      <point x="322" y="48"/>
      <point x="169" y="48" type="curve"/>
      <point x="169" y="0"/>
      <point x="169" y="48"/>
    </contour>
    <contour>
      <point x="917" y="0" type="curve"/>
      <point x="895" y="241"/>
      <point x="871" y="481"/>
      <point x="850" y="722" type="curve"/>
      <point x="795" y="722"/>
      <point x="850" y="722"/>
      <point x="795" y="722" type="curve"/>
      <point x="816" y="481"/>
      <point x="835" y="241"/>
      <point x="856" y="0" type="curve"/>
      <point x="917" y="0"/>
      <point x="856" y="0"/>
    </contour>
    <contour>
      <point x="195" y="0" type="curve"/>
      <point x="215" y="241"/>
      <point x="234" y="481"/>
      <point x="254" y="722" type="curve"/>
      <point x="198" y="722"/>
      <point x="254" y="722"/>
      <point x="198" y="722" type="curve"/>
      <point x="178" y="481"/>
      <point x="157" y="241"/>
      <point x="137" y="0" type="curve"/>
      <point x="195" y="0"/>
      <point x="137" y="0"/>
    </contour>
    <contour>
      <point x="551" y="0" type="curve"/>
      <point x="454" y="241"/>
      <point x="356" y="481"/>
      <point x="257" y="722" type="curve"/>
      <point x="201" y="722"/>
      <point x="257" y="722"/>
      <point x="200" y="722" type="curve"/>
      <point x="298" y="481"/>
      <point x="396" y="241"/>
      <point x="493" y="0" type="curve"/>
      <point x="550" y="0"/>
      <point x="494" y="0"/>
    </contour>
    <contour>
      <point x="560" y="0" type="curve"/>
      <point x="655" y="241"/>
      <point x="751" y="481"/>
      <point x="847" y="722" type="curve"/>
      <point x="791" y="722"/>
      <point x="846" y="722"/>
      <point x="791" y="722" type="curve"/>
      <point x="693" y="481"/>
      <point x="597" y="241"/>
      <point x="500" y="0" type="curve"/>
      <point x="559" y="0"/>
      <point x="502" y="0"/>
    </contour>
  </outline>
</glyph>
<glyph name="N" format="1">
  <advance width="921"/>
  <unicode hex="004E"/>
  <outline>
    <contour>
      <point x="468" y="812" type="move" name="top"/>
    </contour>
    <contour>
      <point x="483" y="-24" type="move" name="bottom"/>
    </contour>
    <contour>
      <point x="188" y="722" type="curve"/>
      <point x="135" y="722"/>
      <point x="95" y="722"/>
      <point x="43" y="722" type="curve"/>
      <point x="43" y="674"/>
      <point x="43" y="722"/>
      <point x="43" y="674" type="curve"/>
      <point x="199" y="674"/>
      <point x="32" y="674"/>
      <point x="188" y="674" type="curve"/>
      <point x="188" y="722"/>
      <point x="188" y="674"/>
    </contour>
    <contour>
      <point x="750" y="674" type="curve"/>
      <point x="905" y="674"/>
      <point x="738" y="674"/>
      <point x="894" y="674" type="curve"/>
      <point x="894" y="722"/>
      <point x="894" y="674"/>
      <point x="894" y="722" type="curve"/>
      <point x="842" y="722"/>
      <point x="801" y="722"/>
      <point x="750" y="722" type="curve"/>
      <point x="750" y="674"/>
      <point x="750" y="722"/>
    </contour>
    <contour>
      <point x="752" y="722" type="curve"/>
      <point x="701" y="722"/>
      <point x="660" y="722"/>
      <point x="609" y="722" type="curve"/>
      <point x="609" y="674"/>
      <point x="609" y="722"/>
      <point x="609" y="674" type="curve"/>
      <point x="763" y="674"/>
      <point x="597" y="674"/>
      <point x="752" y="674" type="curve"/>
      <point x="752" y="722"/>
      <point x="752" y="674"/>
    </contour>
    <contour>
      <point x="187" y="48" type="curve"/>
      <point x="31" y="48"/>
      <point x="198" y="48"/>
      <point x="42" y="48" type="curve"/>
      <point x="42" y="0"/>
      <point x="42" y="48"/>
      <point x="42" y="0" type="curve"/>
      <point x="94" y="0"/>
      <point x="134" y="0"/>
      <point x="187" y="0" type="curve"/>
      <point x="187" y="48"/>
      <point x="187" y="0"/>
    </contour>
    <contour>
      <point x="187" y="0" type="curve"/>
      <point x="237" y="0"/>
      <point x="175" y="0"/>
      <point x="330" y="0" type="curve"/>
      <point x="330" y="48"/>
      <point x="330" y="0"/>
      <point x="330" y="48" type="curve"/>
      <point x="175" y="48"/>
      <point x="341" y="48"/>
      <point x="187" y="48" type="curve"/>
      <point x="187" y="0"/>
      <point x="187" y="48"/>
    </contour>
    <contour>
      <point x="780" y="0" type="curve"/>
      <point x="595" y="241"/>
      <point x="409" y="481"/>
      <point x="223" y="722" type="curve"/>
      <point x="153" y="722"/>
      <point x="222" y="722"/>
      <point x="152" y="722" type="curve"/>
      <point x="338" y="481"/>
      <point x="523" y="241"/>
      <point x="709" y="0" type="curve"/>
      <point x="780" y="0"/>
      <point x="710" y="0"/>
    </contour>
    <contour>
      <point x="721" y="722" type="curve"/>
      <point x="721" y="481"/>
      <point x="721" y="241"/>
      <point x="721" y="0" type="curve"/>
      <point x="782" y="0"/>
      <point x="721" y="0"/>
      <point x="782" y="0" type="curve"/>
      <point x="782" y="241"/>
      <point x="782" y="481"/>
      <point x="782" y="722" type="curve"/>
      <point x="721" y="722"/>
      <point x="782" y="722"/>
    </contour>
    <contour>
      <point x="216" y="0" type="curve"/>
      <point x="216" y="241"/>
      <point x="216" y="481"/>
      <point x="216" y="722" type="curve"/>
      <point x="155" y="722"/>
      <point x="216" y="722"/>
      <point x="155" y="722" type="curve"/>
      <point x="155" y="481"/>
      <point x="155" y="241"/>
      <point x="155" y="0" type="curve"/>
      <point x="216" y="0"/>
      <point x="155" y="0"/>
    </contour>
  </outline>
</glyph>
<glyph name="Q" format="1">
  <advance width="821"/>
  <unicode hex="0051"/>
  <outline>
    <contour>
      <point x="378" y="11" type="curve"/>
      <point x="489" y="-170"/>
      <point x="616" y="-232"/>
      <point x="817" y="-232" type="curve"/>
      <point x="817" y="-181"/>
      <point x="817" y="-232"/>
      <point x="817" y="-181" type="curve"/>
      <point x="640" y="-181"/>
      <point x="530" y="-126"/>
      <point x="430" y="35" type="curve"/>
      <point x="378" y="11"/>
      <point x="430" y="35"/>
    </contour>
    <contour>
      <point x="124" y="360" type="curve"/>
      <point x="124" y="545"/>
      <point x="216" y="675"/>
      <point x="394" y="675" type="curve"/>
      <point x="573" y="675"/>
      <point x="666" y="547"/>
      <point x="666" y="362" type="curve"/>
      <point x="666" y="177"/>
      <point x="577" y="46"/>
      <point x="399" y="46" type="curve"/>
      <point x="218" y="46"/>
      <point x="124" y="174"/>
      <point x="124" y="360" type="curve"/>
      <point x="64" y="360"/>
      <point x="124" y="360"/>
      <point x="64" y="360" type="curve"/>
      <point x="64" y="142"/>
      <point x="184" y="-5"/>
      <point x="396" y="-5" type="curve"/>
      <point x="610" y="-5"/>
      <point x="727" y="145"/>
      <point x="727" y="365" type="curve"/>
      <point x="727" y="582"/>
      <point x="610" y="728"/>
      <point x="398" y="728" type="curve"/>
      <point x="184" y="728"/>
      <point x="64" y="580"/>
      <point x="64" y="360" type="curve"/>
      <point x="124" y="360"/>
      <point x="64" y="360"/>
    </contour>
  </outline>
</glyph>
<glyph name="S" format="1">
  <advance width="615"/>
  <unicode hex="0053"/>
  <outline>
    <contour>
      <point x="309" y="812" type="move" name="top"/>
    </contour>
    <contour>
      <point x="318" y="-24" type="move" name="bottom"/>
    </contour>
    <contour>
      <point x="464" y="662" type="curve"/>
      <point x="464" y="542"/>
      <point x="464" y="658"/>
      <point x="464" y="538" type="curve"/>
      <point x="513" y="538"/>
      <point x="464" y="538"/>
      <point x="513" y="538" type="curve"/>
      <point x="513" y="658"/>
      <point x="513" y="542"/>
      <point x="513" y="662" type="curve"/>
      <point x="464" y="662"/>
      <point x="513" y="662"/>
    </contour>
    <contour>
      <point x="121" y="56" type="curve"/>
      <point x="121" y="176"/>
      <point x="121" y="64"/>
      <point x="121" y="184" type="curve"/>
      <point x="73" y="184"/>
      <point x="121" y="184"/>
      <point x="73" y="184" type="curve"/>
      <point x="73" y="64"/>
      <point x="73" y="176"/>
      <point x="73" y="56" type="curve"/>
      <point x="121" y="56"/>
      <point x="73" y="56"/>
    </contour>
    <contour>
      <point x="73" y="56" type="curve"/>
      <point x="142" y="17"/>
      <point x="213" y="-5"/>
      <point x="297" y="-5" type="curve"/>
      <point x="441" y="-5"/>
      <point x="548" y="45"/>
      <point x="548" y="176" type="curve"/>
      <point x="548" y="299"/>
      <point x="449" y="342"/>
      <point x="334" y="395" type="curve"/>
      <point x="241" y="437"/>
      <point x="151" y="469"/>
      <point x="151" y="557" type="curve"/>
      <point x="151" y="638"/>
      <point x="217" y="679"/>
      <point x="306" y="679" type="curve"/>
      <point x="375" y="679"/>
      <point x="430" y="654"/>
      <point x="485" y="624" type="curve"/>
      <point x="512" y="659"/>
      <point x="488" y="628"/>
      <point x="513" y="662" type="curve"/>
      <point x="446" y="701"/>
      <point x="388" y="726"/>
      <point x="308" y="726" type="curve"/>
      <point x="183" y="726"/>
      <point x="91" y="669"/>
      <point x="91" y="554" type="curve"/>
      <point x="91" y="438"/>
      <point x="186" y="400"/>
      <point x="295" y="351" type="curve"/>
      <point x="394" y="306"/>
      <point x="487" y="269"/>
      <point x="487" y="176" type="curve"/>
      <point x="487" y="86"/>
      <point x="406" y="45"/>
      <point x="300" y="45" type="curve"/>
      <point x="227" y="45"/>
      <point x="165" y="69"/>
      <point x="105" y="102" type="curve"/>
      <point x="75" y="61"/>
      <point x="103" y="97"/>
    </contour>
  </outline>
</glyph>
<glyph name="T" format="1">
  <advance width="731"/>
  <unicode hex="0054"/>
  <outline>
    <contour>
      <point x="364" y="812" type="move" name="top"/>
    </contour>
    <contour>
      <point x="385" y="-26" type="move" name="bottom"/>
    </contour>
    <contour>
      <point x="43" y="697" type="curve"/>
      <point x="43" y="577"/>
      <point x="43" y="701"/>
      <point x="43" y="581" type="curve"/>
      <point x="91" y="581"/>
      <point x="43" y="581"/>
      <point x="91" y="581" type="curve"/>
      <point x="91" y="701"/>
      <point x="91" y="577"/>
      <point x="91" y="697" type="curve"/>
      <point x="43" y="697"/>
      <point x="91" y="697"/>
    </contour>
    <contour>
      <point x="640" y="697" type="curve"/>
      <point x="640" y="577"/>
      <point x="640" y="701"/>
      <point x="640" y="581" type="curve"/>
      <point x="689" y="581"/>
      <point x="640" y="581"/>
      <point x="689" y="581" type="curve"/>
      <point x="689" y="701"/>
      <point x="689" y="577"/>
      <point x="689" y="697" type="curve"/>
      <point x="640" y="697"/>
      <point x="689" y="697"/>
    </contour>
    <contour>
      <point x="365" y="0" type="curve"/>
      <point x="415" y="0"/>
      <point x="460" y="0"/>
      <point x="510" y="0" type="curve"/>
      <point x="510" y="48"/>
      <point x="510" y="0"/>
      <point x="510" y="48" type="curve"/>
      <point x="361" y="48"/>
      <point x="513" y="48"/>
      <point x="365" y="48" type="curve"/>
      <point x="365" y="0"/>
      <point x="365" y="48"/>
    </contour>
    <contour>
      <point x="365" y="48" type="curve"/>
      <point x="217" y="48"/>
      <point x="368" y="48"/>
      <point x="220" y="48" type="curve"/>
      <point x="220" y="0"/>
      <point x="220" y="48"/>
      <point x="220" y="0" type="curve"/>
      <point x="269" y="0"/>
      <point x="316" y="0"/>
      <point x="365" y="0" type="curve"/>
      <point x="365" y="48"/>
      <point x="365" y="0"/>
    </contour>
    <contour>
      <point x="396" y="0" type="curve"/>
      <point x="396" y="237"/>
      <point x="396" y="473"/>
      <point x="396" y="710" type="curve"/>
      <point x="336" y="710"/>
      <point x="396" y="710"/>
      <point x="336" y="710" type="curve"/>
      <point x="336" y="473"/>
      <point x="336" y="237"/>
      <point x="336" y="0" type="curve"/>
      <point x="396" y="0"/>
      <point x="336" y="0"/>
    </contour>
    <contour>
      <point x="43" y="671" type="curve"/>
      <point x="258" y="671"/>
      <point x="474" y="671"/>
      <point x="689" y="671" type="curve"/>
      <point x="689" y="723"/>
      <point x="689" y="669"/>
      <point x="689" y="722" type="curve"/>
      <point x="474" y="722"/>
      <point x="258" y="722"/>
      <point x="43" y="722" type="curve"/>
      <point x="43" y="669"/>
      <point x="43" y="723"/>
    </contour>
  </outline>
</glyph>
<glyph name="V" format="1">
  <advance width="843"/>
  <unicode hex="0056"/>
  <outline>
    <contour>
      <point x="685" y="722" type="curve"/>
      <point x="634" y="722"/>
      <point x="585" y="722"/>
      <point x="534" y="722" type="curve"/>
      <point x="534" y="674"/>
      <point x="534" y="722"/>
      <point x="534" y="674" type="curve"/>
      <point x="688" y="674"/>
      <point x="530" y="674"/>
      <point x="685" y="674" type="curve"/>
      <point x="685" y="722"/>
      <point x="685" y="674"/>
    </contour>
    <contour>
      <point x="126" y="722" type="curve"/>
      <point x="79" y="722"/>
      <point x="34" y="722"/>
      <point x="-13" y="722" type="curve"/>
      <point x="-13" y="674"/>
      <point x="-13" y="722"/>
      <point x="-13" y="674" type="curve"/>
      <point x="129" y="674"/>
      <point x="-16" y="674"/>
      <point x="126" y="674" type="curve"/>
      <point x="126" y="722"/>
      <point x="126" y="674"/>
    </contour>
    <contour>
      <point x="689" y="674" type="curve"/>
      <point x="831" y="674"/>
      <point x="686" y="674"/>
      <point x="828" y="674" type="curve"/>
      <point x="828" y="722"/>
      <point x="828" y="674"/>
      <point x="828" y="722" type="curve"/>
      <point x="781" y="722"/>
      <point x="737" y="722"/>
      <point x="689" y="722" type="curve"/>
      <point x="689" y="674"/>
      <point x="689" y="722"/>
    </contour>
    <contour>
      <point x="131" y="674" type="curve"/>
      <point x="285" y="674"/>
      <point x="128" y="674"/>
      <point x="282" y="674" type="curve"/>
      <point x="282" y="722"/>
      <point x="282" y="674"/>
      <point x="282" y="722" type="curve"/>
      <point x="231" y="722"/>
      <point x="182" y="722"/>
      <point x="131" y="722" type="curve"/>
      <point x="131" y="674"/>
      <point x="131" y="722"/>
    </contour>
    <contour>
      <point x="672" y="722" type="curve"/>
      <point x="576" y="481"/>
      <point x="480" y="241"/>
      <point x="384" y="0" type="curve"/>
      <point x="447" y="0"/>
      <point x="382" y="0"/>
      <point x="445" y="0" type="curve"/>
      <point x="542" y="241"/>
      <point x="638" y="481"/>
      <point x="735" y="722" type="curve"/>
      <point x="672" y="722"/>
      <point x="735" y="722"/>
    </contour>
    <contour>
      <point x="81" y="722" type="curve"/>
      <point x="179" y="481"/>
      <point x="278" y="241"/>
      <point x="376" y="0" type="curve"/>
      <point x="439" y="0"/>
      <point x="374" y="0"/>
      <point x="437" y="0" type="curve"/>
      <point x="340" y="241"/>
      <point x="243" y="481"/>
      <point x="146" y="722" type="curve"/>
      <point x="82" y="722"/>
      <point x="145" y="722"/>
    </contour>
  </outline>
</glyph>
<glyph name="W" format="1">
  <advance width="1056"/>
  <unicode hex="0057"/>
  <outline>
    <contour>
      <point x="141" y="674" type="curve"/>
      <point x="284" y="674"/>
      <point x="138" y="674"/>
      <point x="281" y="674" type="curve"/>
      <point x="281" y="722"/>
      <point x="281" y="674"/>
      <point x="281" y="722" type="curve"/>
      <point x="233" y="722"/>
      <point x="189" y="722"/>
      <point x="141" y="722" type="curve"/>
      <point x="141" y="674"/>
      <point x="141" y="722"/>
    </contour>
    <contour>
      <point x="140" y="722" type="curve"/>
      <point x="92" y="722"/>
      <point x="46" y="722"/>
      <point x="-2" y="722" type="curve"/>
      <point x="-2" y="674"/>
      <point x="-2" y="722"/>
      <point x="-2" y="674" type="curve"/>
      <point x="143" y="674"/>
      <point x="-5" y="674"/>
      <point x="140" y="674" type="curve"/>
      <point x="140" y="722"/>
      <point x="140" y="674"/>
    </contour>
    <contour>
      <point x="902" y="722" type="curve"/>
      <point x="854" y="722"/>
      <point x="810" y="722"/>
      <point x="762" y="722" type="curve"/>
      <point x="762" y="674"/>
      <point x="762" y="722"/>
      <point x="762" y="674" type="curve"/>
      <point x="905" y="674"/>
      <point x="760" y="674"/>
      <point x="902" y="674" type="curve"/>
      <point x="902" y="722"/>
      <point x="902" y="674"/>
    </contour>
    <contour>
      <point x="903" y="674" type="curve"/>
      <point x="1047" y="674"/>
      <point x="899" y="674"/>
      <point x="1045" y="674" type="curve"/>
      <point x="1045" y="722"/>
      <point x="1045" y="674"/>
      <point x="1045" y="722" type="curve"/>
      <point x="996" y="722"/>
      <point x="951" y="722"/>
      <point x="903" y="722" type="curve"/>
      <point x="903" y="674"/>
      <point x="903" y="722"/>
    </contour>
    <contour>
      <point x="342" y="0" type="curve"/>
      <point x="412" y="241"/>
      <point x="481" y="481"/>
      <point x="550" y="722" type="curve"/>
      <point x="494" y="722"/>
      <point x="552" y="722"/>
      <point x="496" y="722" type="curve"/>
      <point x="428" y="481"/>
      <point x="360" y="241"/>
      <point x="292" y="0" type="curve"/>
      <point x="343" y="0"/>
      <point x="292" y="0"/>
    </contour>
    <contour>
      <point x="505" y="722" type="curve"/>
      <point x="568" y="481"/>
      <point x="629" y="241"/>
      <point x="692" y="0" type="curve"/>
      <point x="744" y="0"/>
      <point x="690" y="0"/>
      <point x="742" y="0" type="curve"/>
      <point x="681" y="242"/>
      <point x="621" y="481"/>
      <point x="559" y="722" type="curve"/>
      <point x="503" y="722"/>
      <point x="561" y="722"/>
    </contour>
    <contour>
      <point x="95" y="722" type="curve"/>
      <point x="158" y="481"/>
      <point x="222" y="241"/>
      <point x="285" y="0" type="curve"/>
      <point x="336" y="0"/>
      <point x="286" y="0"/>
      <point x="338" y="0" type="curve"/>
      <point x="276" y="240"/>
      <point x="215" y="482"/>
      <point x="153" y="722" type="curve"/>
      <point x="95" y="722"/>
      <point x="153" y="722"/>
    </contour>
    <contour>
      <point x="889" y="722" type="curve"/>
      <point x="825" y="481"/>
      <point x="761" y="241"/>
      <point x="698" y="0" type="curve"/>
      <point x="750" y="0"/>
      <point x="698" y="0"/>
      <point x="750" y="0" type="curve"/>
      <point x="816" y="241"/>
      <point x="882" y="481"/>
      <point x="948" y="722" type="curve"/>
      <point x="889" y="722"/>
      <point x="948" y="722"/>
    </contour>
  </outline>
</glyph>
<glyph name="X" format="1">
  <advance width="787"/>
  <unicode hex="0058"/>
  <outline>
    <contour>
      <point x="150" y="0" type="curve"/>
      <point x="200" y="0"/>
      <point x="147" y="0"/>
      <point x="298" y="0" type="curve"/>
      <point x="298" y="48"/>
      <point x="298" y="0"/>
      <point x="298" y="48" type="curve"/>
      <point x="147" y="48"/>
      <point x="301" y="48"/>
      <point x="150" y="48" type="curve"/>
      <point x="150" y="0"/>
      <point x="150" y="48"/>
    </contour>
    <contour>
      <point x="147" y="48" type="curve"/>
      <point x="1" y="48"/>
      <point x="150" y="48"/>
      <point x="4" y="48" type="curve"/>
      <point x="3" y="0"/>
      <point x="4" y="48"/>
      <point x="3" y="0" type="curve"/>
      <point x="52" y="0"/>
      <point x="99" y="0"/>
      <point x="147" y="0" type="curve"/>
      <point x="147" y="48"/>
      <point x="147" y="0"/>
    </contour>
    <contour>
      <point x="637" y="0" type="curve"/>
      <point x="685" y="0"/>
      <point x="733" y="0"/>
      <point x="781" y="0" type="curve"/>
      <point x="781" y="48"/>
      <point x="781" y="0"/>
      <point x="781" y="48" type="curve"/>
      <point x="634" y="48"/>
      <point x="783" y="48"/>
      <point x="637" y="48" type="curve"/>
      <point x="637" y="0"/>
      <point x="637" y="48"/>
    </contour>
    <contour>
      <point x="635" y="48" type="curve"/>
      <point x="483" y="48"/>
      <point x="637" y="48"/>
      <point x="487" y="48" type="curve"/>
      <point x="487" y="0"/>
      <point x="487" y="48"/>
      <point x="487" y="0" type="curve"/>
      <point x="536" y="0"/>
      <point x="584" y="0"/>
      <point x="635" y="0" type="curve"/>
      <point x="635" y="48"/>
      <point x="635" y="0"/>
    </contour>
    <contour>
      <point x="610" y="674" type="curve"/>
      <point x="757" y="674"/>
      <point x="608" y="674"/>
      <point x="754" y="674" type="curve"/>
      <point x="754" y="722"/>
      <point x="754" y="674"/>
      <point x="754" y="722" type="curve"/>
      <point x="706" y="722"/>
      <point x="659" y="722"/>
      <point x="610" y="722" type="curve"/>
      <point x="610" y="674"/>
      <point x="610" y="722"/>
    </contour>
    <contour>
      <point x="613" y="722" type="curve"/>
      <point x="562" y="722"/>
      <point x="514" y="722"/>
      <point x="463" y="722" type="curve"/>
      <point x="463" y="674"/>
      <point x="463" y="722"/>
      <point x="463" y="674" type="curve"/>
      <point x="616" y="674"/>
      <point x="460" y="674"/>
      <point x="613" y="674" type="curve"/>
      <point x="613" y="722"/>
      <point x="613" y="674"/>
    </contour>
    <contour>
      <point x="180" y="722" type="curve"/>
      <point x="131" y="722"/>
      <point x="85" y="722"/>
      <point x="36" y="722" type="curve"/>
      <point x="36" y="674"/>
      <point x="36" y="722"/>
      <point x="36" y="674" type="curve"/>
      <point x="183" y="674"/>
      <point x="33" y="674"/>
      <point x="180" y="674" type="curve"/>
      <point x="180" y="722"/>
      <point x="180" y="674"/>
    </contour>
    <contour>
      <point x="178" y="674" type="curve"/>
      <point x="330" y="674"/>
      <point x="175" y="674"/>
      <point x="327" y="674" type="curve"/>
      <point x="327" y="722"/>
      <point x="327" y="674"/>
      <point x="327" y="722" type="curve"/>
      <point x="277" y="722"/>
      <point x="228" y="722"/>
      <point x="178" y="722" type="curve"/>
      <point x="178" y="674"/>
      <point x="178" y="722"/>
    </contour>
    <contour>
      <point x="607" y="722" type="curve"/>
      <point x="436" y="483"/>
      <point x="264" y="246"/>
      <point x="92" y="8" type="curve"/>
      <point x="157" y="8"/>
      <point x="92" y="0"/>
      <point x="157" y="0" type="curve"/>
      <point x="327" y="239"/>
      <point x="497" y="477"/>
      <point x="668" y="715" type="curve"/>
      <point x="607" y="715"/>
      <point x="668" y="722"/>
    </contour>
    <contour>
      <point x="125" y="715" type="curve"/>
      <point x="293" y="477"/>
      <point x="462" y="239"/>
      <point x="631" y="0" type="curve"/>
      <point x="695" y="0"/>
      <point x="631" y="5"/>
      <point x="695" y="5" type="curve"/>
      <point x="525" y="244"/>
      <point x="354" y="483"/>
      <point x="184" y="722" type="curve"/>
      <point x="125" y="722"/>
      <point x="184" y="715"/>
    </contour>
  </outline>
</glyph>
<glyph name="Z" format="1">
  <advance width="705"/>
  <unicode hex="005A"/>
  <outline>
    <contour>
      <point x="355" y="812" type="move" name="top"/>
    </contour>
    <contour>
      <point x="81" y="698" type="curve"/>
      <point x="81" y="578"/>
      <point x="81" y="702"/>
      <point x="81" y="582" type="curve"/>
      <point x="129" y="582"/>
      <point x="81" y="582"/>
      <point x="129" y="582" type="curve"/>
      <point x="129" y="702"/>
      <point x="129" y="578"/>
      <point x="129" y="698" type="curve"/>
      <point x="81" y="698"/>
      <point x="129" y="698"/>
    </contour>
    <contour>
      <point x="659" y="24" type="curve"/>
      <point x="659" y="144"/>
      <point x="659" y="20"/>
      <point x="659" y="140" type="curve"/>
      <point x="610" y="140"/>
      <point x="659" y="140"/>
      <point x="610" y="140" type="curve"/>
      <point x="610" y="20"/>
      <point x="610" y="144"/>
      <point x="610" y="24" type="curve"/>
      <point x="659" y="24"/>
      <point x="610" y="24"/>
    </contour>
    <contour>
      <point x="81" y="674" type="curve"/>
      <point x="248" y="674"/>
      <point x="433" y="674"/>
      <point x="601" y="674" type="curve"/>
      <point x="596" y="680"/>
      <point x="588" y="679"/>
      <point x="583" y="685" type="curve"/>
      <point x="579" y="689"/>
      <point x="578" y="694"/>
      <point x="574" y="699" type="curve"/>
      <point x="570" y="694"/>
      <point x="563" y="694"/>
      <point x="559" y="688" type="curve"/>
      <point x="40" y="48" type="line"/>
      <point x="40" y="23"/>
      <point x="40" y="48"/>
      <point x="40" y="23" type="curve"/>
      <point x="40" y="0"/>
      <point x="40" y="23"/>
      <point x="40" y="0" type="curve"/>
      <point x="60" y="0"/>
      <point x="40" y="0"/>
      <point x="60" y="0" type="curve"/>
      <point x="662" y="0"/>
      <point x="458" y="0"/>
      <point x="659" y="0" type="curve"/>
      <point x="659" y="48"/>
      <point x="659" y="0"/>
      <point x="659" y="48" type="curve"/>
      <point x="458" y="48"/>
      <point x="260" y="48"/>
      <point x="60" y="48" type="curve"/>
      <point x="64" y="44"/>
      <point x="71" y="43"/>
      <point x="75" y="39" type="curve"/>
      <point x="79" y="34"/>
      <point x="82" y="28"/>
      <point x="87" y="23" type="curve"/>
      <point x="92" y="28"/>
      <point x="100" y="28"/>
      <point x="106" y="34" type="curve"/>
      <point x="625" y="674" type="line"/>
      <point x="625" y="699"/>
      <point x="625" y="674"/>
      <point x="625" y="699" type="curve"/>
      <point x="625" y="722"/>
      <point x="625" y="699"/>
      <point x="625" y="722" type="curve"/>
      <point x="598" y="722"/>
      <point x="625" y="722"/>
      <point x="598" y="722" type="curve"/>
      <point x="430" y="722"/>
      <point x="248" y="722"/>
      <point x="81" y="722" type="curve"/>
      <point x="81" y="674"/>
      <point x="81" y="722"/>
    </contour>
  </outline>
</glyph>
<glyph name="backslash" format="1">
  <advance width="548"/>
  <unicode hex="005C"/>
  <outline>
    <contour>
      <point x="510" y="-68" type="curve"/>
      <point x="374" y="236"/>
      <point x="237" y="540"/>
      <point x="101" y="844" type="curve"/>
      <point x="38" y="844"/>
      <point x="101" y="844"/>
      <point x="38" y="844" type="curve"/>
      <point x="174" y="540"/>
      <point x="311" y="236"/>
      <point x="447" y="-68" type="curve"/>
      <point x="510" y="-68"/>
      <point x="447" y="-68"/>
    </contour>
  </outline>
</glyph>
<glyph name="asciicircum" format="1">
  <advance width="561"/>
  <unicode hex="005E"/>
  <outline>
    <contour>
      <point x="128" y="462" type="curve"/>
      <point x="188" y="573"/>
      <point x="249" y="683"/>
      <point x="310" y="793" type="curve"/>
      <point x="250" y="793"/>
      <point x="309" y="793"/>
      <point x="250" y="793" type="curve"/>
      <point x="189" y="683"/>
      <point x="128" y="573"/>
      <point x="68" y="462" type="curve"/>
      <point x="128" y="462"/>
      <point x="68" y="462"/>
    </contour>
    <contour>
      <point x="494" y="462" type="curve"/>
      <point x="435" y="570"/>
      <point x="370" y="686"/>
      <point x="311" y="793" type="curve"/>
      <point x="251" y="793"/>
      <point x="310" y="793"/>
      <point x="250" y="793" type="curve"/>
      <point x="310" y="686"/>
      <point x="374" y="570"/>
      <point x="434" y="462" type="curve"/>
      <point x="493" y="462"/>
      <point x="435" y="462"/>
    </contour>
  </outline>
</glyph>
<glyph name="underscore" format="1">
  <advance width="711"/>
  <unicode hex="005F"/>
  <outline>
    <contour>
      <point x="-1" y="-202" type="curve"/>
      <point x="237" y="-202"/>
      <point x="474" y="-202"/>
      <point x="711" y="-202" type="curve"/>
      <point x="711" y="-155"/>
      <point x="711" y="-202"/>
      <point x="711" y="-155" type="curve"/>
      <point x="474" y="-155"/>
      <point x="237" y="-155"/>
      <point x="-1" y="-155" type="curve"/>
      <point x="-1" y="-202"/>
      <point x="-1" y="-155"/>
    </contour>
  </outline>
</glyph>
<glyph name="grave" format="1">
  <advance width="412"/>
  <unicode hex="0060"/>
  <outline>
    <contour>
      <point x="231" y="582" type="move" name="_top"/>
    </contour>
    <contour>
      <point x="266" y="582" type="line"/>
      <point x="139" y="748" type="line"/>
      <point x="59" y="748" type="line"/>
      <point x="204" y="582" type="line"/>
    </contour>
  </outline>
</glyph>
<glyph name="b" format="1">
  <advance width="685"/>
  <unicode hex="0062"/>
  <outline>
    <contour>
      <point x="160" y="800" type="curve"/>
      <point x="110" y="800"/>
      <point x="66" y="800"/>
      <point x="15" y="800" type="curve"/>
      <point x="15" y="763"/>
      <point x="15" y="789"/>
      <point x="15" y="752" type="curve"/>
      <point x="148" y="752"/>
      <point x="28" y="752"/>
      <point x="160" y="752" type="curve"/>
      <point x="160" y="789"/>
      <point x="160" y="763"/>
    </contour>
    <contour>
      <point x="173" y="384" type="curve"/>
      <point x="213" y="434"/>
      <point x="285" y="489"/>
      <point x="377" y="489" type="curve"/>
      <point x="499" y="489"/>
      <point x="566" y="395"/>
      <point x="566" y="265" type="curve"/>
      <point x="566" y="139"/>
      <point x="496" y="43"/>
      <point x="376" y="44" type="curve"/>
      <point x="295" y="44"/>
      <point x="231" y="80"/>
      <point x="178" y="141" type="curve"/>
      <point x="150" y="122"/>
      <point x="169" y="134"/>
      <point x="143" y="113" type="curve"/>
      <point x="208" y="39"/>
      <point x="280" y="-5"/>
      <point x="384" y="-5" type="curve"/>
      <point x="537" y="-5"/>
      <point x="626" y="105"/>
      <point x="626" y="266" type="curve"/>
      <point x="626" y="427"/>
      <point x="538" y="538"/>
      <point x="385" y="538" type="curve"/>
      <point x="276" y="538"/>
      <point x="195" y="480"/>
      <point x="146" y="417" type="curve"/>
      <point x="167" y="394"/>
      <point x="152" y="406"/>
    </contour>
    <contour>
      <point x="188" y="0" type="curve"/>
      <point x="188" y="273"/>
      <point x="188" y="527"/>
      <point x="188" y="800" type="curve"/>
      <point x="143" y="800"/>
      <point x="173" y="800"/>
      <point x="128" y="800" type="curve"/>
      <point x="128" y="527"/>
      <point x="128" y="273"/>
      <point x="128" y="0" type="curve"/>
      <point x="173" y="0"/>
      <point x="143" y="0"/>
    </contour>
    <contour>
      <point x="160" y="48" type="curve"/>
      <point x="28" y="48"/>
      <point x="148" y="48"/>
      <point x="15" y="48" type="curve"/>
      <point x="15" y="11"/>
      <point x="15" y="37"/>
      <point x="15" y="0" type="curve"/>
      <point x="66" y="0"/>
      <point x="110" y="0"/>
      <point x="160" y="0" type="curve"/>
      <point x="160" y="37"/>
      <point x="160" y="11"/>
    </contour>
  </outline>
</glyph>
<glyph name="c" format="1">
  <advance width="564"/>
  <unicode hex="0063"/>
  <outline>
    <contour>
      <point x="314" y="654" type="move" name="top"/>
    </contour>
    <contour>
      <point x="327" y="1" type="move" name="bottom"/>
    </contour>
    <contour>
      <point x="453" y="472" type="curve"/>
      <point x="453" y="345"/>
      <point x="453" y="475"/>
      <point x="453" y="349" type="curve"/>
      <point x="502" y="349"/>
      <point x="453" y="349"/>
      <point x="502" y="349" type="curve"/>
      <point x="502" y="475"/>
      <point x="502" y="345"/>
      <point x="502" y="472" type="curve"/>
      <point x="453" y="472"/>
      <point x="502" y="472"/>
    </contour>
    <contour>
      <point x="502" y="472" type="curve"/>
      <point x="452" y="509"/>
      <point x="388" y="538"/>
      <point x="322" y="538" type="curve"/>
      <point x="153" y="538"/>
      <point x="59" y="441"/>
      <point x="59" y="267" type="curve"/>
      <point x="59" y="93"/>
      <point x="150" y="-5"/>
      <point x="319" y="-5" type="curve"/>
      <point x="394" y="-5"/>
      <point x="464" y="27"/>
      <point x="511" y="84" type="curve"/>
      <point x="473" y="117"/>
      <point x="511" y="84"/>
      <point x="473" y="117" type="curve"/>
      <point x="434" y="75"/>
      <point x="381" y="44"/>
      <point x="322" y="44" type="curve"/>
      <point x="189" y="44"/>
      <point x="119" y="127"/>
      <point x="119" y="267" type="curve"/>
      <point x="119" y="406"/>
      <point x="189" y="489"/>
      <point x="320" y="489" type="curve"/>
      <point x="374" y="489"/>
      <point x="424" y="468"/>
      <point x="466" y="438" type="curve"/>
      <point x="502" y="472"/>
      <point x="466" y="438"/>
    </contour>
  </outline>
</glyph>
<glyph name="g" format="1">
  <advance width="580"/>
  <unicode hex="0067"/>
  <outline>
    <contour>
      <point x="295" y="654" type="move" name="top"/>
    </contour>
    <contour>
      <point x="400" y="481" type="curve"/>
      <point x="559" y="556" type="line"/>
      <point x="554" y="562"/>
      <point x="538" y="595"/>
      <point x="533" y="601" type="curve"/>
      <point x="368" y="517" type="line"/>
      <point x="400" y="480"/>
      <point x="368" y="517"/>
    </contour>
    <contour>
      <point x="144" y="352" type="curve"/>
      <point x="144" y="438"/>
      <point x="207" y="491"/>
      <point x="298" y="491" type="curve"/>
      <point x="387" y="491"/>
      <point x="446" y="439"/>
      <point x="446" y="353" type="curve"/>
      <point x="446" y="271"/>
      <point x="385" y="222"/>
      <point x="297" y="222" type="curve"/>
      <point x="209" y="222"/>
      <point x="144" y="268"/>
      <point x="144" y="352" type="curve"/>
      <point x="84" y="349"/>
      <point x="144" y="352"/>
      <point x="84" y="349" type="curve"/>
      <point x="84" y="236"/>
      <point x="173" y="175"/>
      <point x="292" y="175" type="curve"/>
      <point x="416" y="175"/>
      <point x="507" y="238"/>
      <point x="507" y="355" type="curve"/>
      <point x="507" y="472"/>
      <point x="419" y="538"/>
      <point x="298" y="538" type="curve"/>
      <point x="172" y="538"/>
      <point x="84" y="469"/>
      <point x="84" y="349" type="curve"/>
      <point x="144" y="352"/>
      <point x="84" y="349"/>
    </contour>
    <contour>
      <point x="177" y="233" type="curve"/>
      <point x="125" y="205"/>
      <point x="88" y="170"/>
      <point x="88" y="110" type="curve"/>
      <point x="88" y="15"/>
      <point x="181" y="-11"/>
      <point x="287" y="-19" type="curve"/>
      <point x="398" y="-28"/>
      <point x="506" y="-39"/>
      <point x="506" y="-136" type="curve"/>
      <point x="506" y="-228"/>
      <point x="406" y="-257"/>
      <point x="295" y="-257" type="curve"/>
      <point x="189" y="-257"/>
      <point x="101" y="-218"/>
      <point x="101" y="-125" type="curve"/>
      <point x="101" y="-57"/>
      <point x="142" y="-16"/>
      <point x="203" y="8" type="curve"/>
      <point x="174" y="38"/>
      <point x="203" y="8"/>
      <point x="174" y="38" type="curve"/>
      <point x="96" y="7"/>
      <point x="41" y="-42"/>
      <point x="41" y="-127" type="curve"/>
      <point x="41" y="-254"/>
      <point x="154" y="-304"/>
      <point x="292" y="-304" type="curve"/>
      <point x="437" y="-304"/>
      <point x="563" y="-264"/>
      <point x="560" y="-132" type="curve"/>
      <point x="560" y="-5"/>
      <point x="435" y="16"/>
      <point x="298" y="27" type="curve"/>
      <point x="219" y="31"/>
      <point x="148" y="47"/>
      <point x="148" y="115" type="curve"/>
      <point x="148" y="156"/>
      <point x="171" y="183"/>
      <point x="207" y="204" type="curve"/>
      <point x="177" y="233"/>
      <point x="207" y="204"/>
    </contour>
  </outline>
</glyph>
<glyph name="i" format="1">
  <advance width="327"/>
  <unicode hex="0069"/>
  <outline>
    <contour>
      <point x="177" y="653" type="move" name="top"/>
    </contour>
    <contour>
      <point x="207" y="3" type="move" name="bottom"/>
    </contour>
    <contour>
      <point x="178" y="48" type="curve"/>
      <point x="26" y="48"/>
      <point x="186" y="48"/>
      <point x="34" y="48" type="curve"/>
      <point x="33" y="0"/>
      <point x="34" y="48"/>
      <point x="33" y="0" type="curve"/>
      <point x="84" y="0"/>
      <point x="128" y="0"/>
      <point x="178" y="0" type="curve"/>
      <point x="178" y="48"/>
      <point x="178" y="0"/>
    </contour>
    <contour>
      <point x="178" y="0" type="curve"/>
      <point x="225" y="0"/>
      <point x="267" y="0"/>
      <point x="314" y="0" type="curve"/>
      <point x="314" y="48"/>
      <point x="314" y="0"/>
      <point x="314" y="48" type="curve"/>
      <point x="172" y="48"/>
      <point x="321" y="48"/>
      <point x="178" y="48" type="curve"/>
      <point x="178" y="0"/>
      <point x="178" y="48"/>
    </contour>
    <contour>
      <point x="178" y="533" type="curve"/>
      <point x="128" y="533"/>
      <point x="84" y="533"/>
      <point x="34" y="533" type="curve"/>
      <point x="33" y="485"/>
      <point x="34" y="533"/>
      <point x="33" y="485" type="curve"/>
      <point x="186" y="485"/>
      <point x="26" y="485"/>
      <point x="178" y="485" type="curve"/>
      <point x="178" y="533"/>
      <point x="178" y="485"/>
    </contour>
    <contour>
      <point x="211" y="0" type="curve"/>
      <point x="211" y="178"/>
      <point x="211" y="355"/>
      <point x="211" y="533" type="curve"/>
      <point x="147" y="533"/>
      <point x="211" y="533"/>
      <point x="147" y="533" type="curve"/>
      <point x="147" y="355"/>
      <point x="147" y="178"/>
      <point x="147" y="0" type="curve"/>
      <point x="211" y="0"/>
      <point x="147" y="0"/>
    </contour>
    <contour>
      <point x="215" y="683" type="curve"/>
      <point x="215" y="705"/>
      <point x="198" y="717"/>
      <point x="177" y="717" type="curve"/>
      <point x="155" y="717"/>
      <point x="140" y="705"/>
      <point x="140" y="683" type="curve"/>
      <point x="205" y="683"/>
      <point x="149" y="683"/>
      <point x="215" y="683" type="curve"/>
      <point x="215" y="661"/>
      <point x="198" y="651"/>
      <point x="176" y="651" type="curve"/>
      <point x="154" y="651"/>
      <point x="140" y="662"/>
      <point x="140" y="683" type="curve"/>
      <point x="205" y="683"/>
      <point x="149" y="683"/>
    </contour>
  </outline>
</glyph>
<glyph name="j" format="1">
  <advance width="315"/>
  <unicode hex="006A"/>
  <outline>
    <contour>
      <point x="186" y="533" type="curve"/>
      <point x="135" y="533"/>
      <point x="87" y="533"/>
      <point x="36" y="533" type="curve"/>
      <point x="36" y="485"/>
      <point x="36" y="533"/>
      <point x="36" y="485" type="curve"/>
      <point x="188" y="485"/>
      <point x="33" y="485"/>
      <point x="186" y="485" type="curve"/>
      <point x="186" y="533"/>
      <point x="186" y="485"/>
    </contour>
    <contour>
      <point x="0" y="-302" type="curve"/>
      <point x="9" y="-302"/>
      <point x="20" y="-304"/>
      <point x="33" y="-304" type="curve"/>
      <point x="139" y="-304"/>
      <point x="217" y="-241"/>
      <point x="217" y="-135" type="curve"/>
      <point x="217" y="88"/>
      <point x="217" y="310"/>
      <point x="217" y="533" type="curve"/>
      <point x="157" y="533"/>
      <point x="217" y="533"/>
      <point x="157" y="533" type="curve"/>
      <point x="157" y="310"/>
      <point x="157" y="88"/>
      <point x="157" y="-135" type="curve"/>
      <point x="157" y="-207"/>
      <point x="107" y="-256"/>
      <point x="35" y="-256" type="curve"/>
      <point x="26" y="-256"/>
      <point x="15" y="-256"/>
      <point x="8" y="-255" type="curve"/>
      <point x="0" y="-300"/>
      <point x="8" y="-255"/>
    </contour>
    <contour>
      <point x="225" y="682" type="curve"/>
      <point x="225" y="705"/>
      <point x="209" y="716"/>
      <point x="186" y="716" type="curve"/>
      <point x="165" y="716"/>
      <point x="151" y="704"/>
      <point x="151" y="682" type="curve"/>
      <point x="216" y="682"/>
      <point x="160" y="682"/>
      <point x="225" y="682" type="curve"/>
      <point x="225" y="660"/>
      <point x="209" y="649"/>
      <point x="186" y="649" type="curve"/>
      <point x="164" y="649"/>
      <point x="151" y="661"/>
      <point x="151" y="682" type="curve"/>
      <point x="216" y="682"/>
      <point x="160" y="682"/>
    </contour>
  </outline>
</glyph>
<glyph name="k" format="1">
  <advance width="629"/>
  <unicode hex="006B"/>
  <outline>
    <contour>
      <point x="373" y="-26" type="move" name="bottom"/>
    </contour>
    <contour>
      <point x="152" y="48" type="curve"/>
      <point x="0" y="48"/>
      <point x="159" y="48"/>
      <point x="7" y="48" type="curve"/>
      <point x="7" y="0"/>
      <point x="7" y="48"/>
      <point x="7" y="0" type="curve"/>
      <point x="57" y="0"/>
      <point x="101" y="0"/>
      <point x="152" y="0" type="curve"/>
      <point x="152" y="48"/>
      <point x="152" y="0"/>
    </contour>
    <contour>
      <point x="472" y="0" type="curve"/>
      <point x="522" y="0"/>
      <point x="562" y="0"/>
      <point x="612" y="0" type="curve"/>
      <point x="612" y="48"/>
      <point x="612" y="0"/>
      <point x="612" y="48" type="curve"/>
      <point x="463" y="48"/>
      <point x="623" y="48"/>
      <point x="472" y="48" type="curve"/>
      <point x="472" y="0"/>
      <point x="472" y="48"/>
    </contour>
    <contour>
      <point x="455" y="485" type="curve"/>
      <point x="588" y="485"/>
      <point x="445" y="485"/>
      <point x="577" y="485" type="curve"/>
      <point x="577" y="533"/>
      <point x="577" y="485"/>
      <point x="577" y="533" type="curve"/>
      <point x="533" y="533"/>
      <point x="499" y="533"/>
      <point x="455" y="533" type="curve"/>
      <point x="455" y="485"/>
      <point x="455" y="533"/>
    </contour>
    <contour>
      <point x="152" y="0" type="curve"/>
      <point x="195" y="0"/>
      <point x="149" y="0"/>
      <point x="279" y="0" type="curve"/>
      <point x="279" y="48"/>
      <point x="279" y="0"/>
      <point x="279" y="48" type="curve"/>
      <point x="149" y="48"/>
      <point x="281" y="48"/>
      <point x="152" y="48" type="curve"/>
      <point x="152" y="0"/>
      <point x="152" y="48"/>
    </contour>
    <contour>
      <point x="462" y="533" type="curve"/>
      <point x="408" y="533"/>
      <point x="357" y="533"/>
      <point x="303" y="533" type="curve"/>
      <point x="303" y="485"/>
      <point x="303" y="533"/>
      <point x="303" y="485" type="curve"/>
      <point x="467" y="485"/>
      <point x="298" y="485"/>
      <point x="462" y="485" type="curve"/>
      <point x="462" y="533"/>
      <point x="462" y="485"/>
    </contour>
    <contour>
      <point x="154" y="800" type="curve"/>
      <point x="103" y="800"/>
      <point x="60" y="800"/>
      <point x="9" y="800" type="curve"/>
      <point x="9" y="752"/>
      <point x="9" y="800"/>
      <point x="9" y="752" type="curve"/>
      <point x="162" y="752"/>
      <point x="1" y="752"/>
      <point x="154" y="752" type="curve"/>
      <point x="154" y="800"/>
      <point x="154" y="752"/>
    </contour>
    <contour>
      <point x="183" y="0" type="curve"/>
      <point x="183" y="800" type="line"/>
      <point x="122" y="800"/>
      <point x="183" y="800"/>
      <point x="122" y="800" type="curve"/>
      <point x="122" y="533"/>
      <point x="122" y="267"/>
      <point x="122" y="0" type="curve"/>
      <point x="183" y="0"/>
      <point x="122" y="0"/>
    </contour>
    <contour>
      <point x="442" y="533" type="curve"/>
      <point x="163" y="275" type="line"/>
      <point x="240" y="275"/>
      <point x="162" y="275"/>
      <point x="239" y="275" type="curve"/>
      <point x="510" y="519" type="line"/>
      <point x="431" y="519"/>
      <point x="520" y="533"/>
    </contour>
    <contour>
      <point x="534" y="18" type="curve"/>
      <point x="238" y="275" type="line"/>
      <point x="162" y="275"/>
      <point x="240" y="275"/>
      <point x="163" y="275" type="curve"/>
      <point x="468" y="0" type="line"/>
      <point x="546" y="0"/>
      <point x="455" y="18"/>
    </contour>
  </outline>
</glyph>
<glyph name="p" format="1">
  <advance width="684"/>
  <unicode hex="0070"/>
  <outline>
    <contour>
      <point x="155" y="-252" type="curve"/>
      <point x="-1" y="-252"/>
      <point x="163" y="-252"/>
      <point x="6" y="-252" type="curve"/>
      <point x="6" y="-299"/>
      <point x="6" y="-252"/>
      <point x="6" y="-299" type="curve"/>
      <point x="59" y="-299"/>
      <point x="103" y="-299"/>
      <point x="155" y="-299" type="curve"/>
      <point x="155" y="-252"/>
      <point x="155" y="-299"/>
    </contour>
    <contour>
      <point x="155" y="-300" type="curve"/>
      <point x="204" y="-300"/>
      <point x="245" y="-300"/>
      <point x="293" y="-300" type="curve"/>
      <point x="293" y="-252"/>
      <point x="293" y="-300"/>
      <point x="293" y="-252" type="curve"/>
      <point x="147" y="-253"/>
      <point x="301" y="-252"/>
      <point x="155" y="-253" type="curve"/>
      <point x="155" y="-300"/>
      <point x="155" y="-253"/>
    </contour>
    <contour>
      <point x="156" y="533" type="curve"/>
      <point x="104" y="533"/>
      <point x="60" y="533"/>
      <point x="8" y="533" type="curve"/>
      <point x="8" y="485"/>
      <point x="8" y="533"/>
      <point x="8" y="485" type="curve"/>
      <point x="164" y="486"/>
      <point x="0" y="485"/>
      <point x="156" y="486" type="curve"/>
      <point x="156" y="533"/>
      <point x="156" y="486"/>
    </contour>
    <contour>
      <point x="168" y="379" type="curve"/>
      <point x="209" y="438"/>
      <point x="285" y="490"/>
      <point x="375" y="490" type="curve"/>
      <point x="500" y="490"/>
      <point x="565" y="400"/>
      <point x="565" y="272" type="curve"/>
      <point x="567" y="139"/>
      <point x="501" y="42"/>
      <point x="376" y="43" type="curve"/>
      <point x="290" y="43"/>
      <point x="230" y="81"/>
      <point x="171" y="139" type="curve"/>
      <point x="148" y="119"/>
      <point x="165" y="130"/>
      <point x="141" y="110" type="curve"/>
      <point x="208" y="37"/>
      <point x="280" y="-5"/>
      <point x="382" y="-5" type="curve"/>
      <point x="542" y="-5"/>
      <point x="625" y="112"/>
      <point x="625" y="274" type="curve"/>
      <point x="625" y="429"/>
      <point x="539" y="539"/>
      <point x="385" y="539" type="curve"/>
      <point x="278" y="539"/>
      <point x="194" y="483"/>
      <point x="145" y="416" type="curve"/>
      <point x="164" y="387"/>
      <point x="149" y="407"/>
    </contour>
    <contour>
      <point x="185" y="-300" type="curve"/>
      <point x="185" y="-22"/>
      <point x="185" y="255"/>
      <point x="185" y="533" type="curve"/>
      <point x="125" y="533"/>
      <point x="185" y="533"/>
      <point x="125" y="533" type="curve"/>
      <point x="125" y="255"/>
      <point x="125" y="-22"/>
      <point x="125" y="-300" type="curve"/>
      <point x="185" y="-300"/>
      <point x="125" y="-300"/>
    </contour>
  </outline>
</glyph>
<glyph name="q" format="1">
  <advance width="684"/>
  <unicode hex="0071"/>
  <outline>
    <contour>
      <point x="532" y="485" type="curve"/>
      <point x="657" y="485"/>
      <point x="542" y="485"/>
      <point x="666" y="485" type="curve"/>
      <point x="666" y="522"/>
      <point x="666" y="496"/>
      <point x="666" y="533" type="curve"/>
      <point x="619" y="533"/>
      <point x="580" y="533"/>
      <point x="532" y="533" type="curve"/>
      <point x="532" y="496"/>
      <point x="532" y="522"/>
    </contour>
    <contour>
      <point x="532" y="-253" type="curve"/>
      <point x="398" y="-252"/>
      <point x="522" y="-253"/>
      <point x="387" y="-252" type="curve"/>
      <point x="387" y="-289"/>
      <point x="387" y="-263"/>
      <point x="387" y="-300" type="curve"/>
      <point x="439" y="-300"/>
      <point x="481" y="-300"/>
      <point x="532" y="-300" type="curve"/>
      <point x="532" y="-264"/>
      <point x="532" y="-289"/>
    </contour>
    <contour>
      <point x="532" y="-300" type="curve"/>
      <point x="580" y="-300"/>
      <point x="618" y="-300"/>
      <point x="666" y="-300" type="curve"/>
      <point x="666" y="-263"/>
      <point x="666" y="-289"/>
      <point x="666" y="-252" type="curve"/>
      <point x="541" y="-253"/>
      <point x="657" y="-252"/>
      <point x="532" y="-253" type="curve"/>
      <point x="532" y="-289"/>
      <point x="532" y="-264"/>
    </contour>
    <contour>
      <point x="542" y="423" type="curve"/>
      <point x="481" y="496"/>
      <point x="395" y="538"/>
      <point x="302" y="538" type="curve"/>
      <point x="142" y="538"/>
      <point x="58" y="425"/>
      <point x="58" y="264" type="curve"/>
      <point x="58" y="103"/>
      <point x="147" y="-5"/>
      <point x="306" y="-5" type="curve"/>
      <point x="404" y="-5"/>
      <point x="487" y="50"/>
      <point x="545" y="128" type="curve"/>
      <point x="524" y="149"/>
      <point x="538" y="137"/>
      <point x="517" y="159" type="curve"/>
      <point x="468" y="89"/>
      <point x="396" y="43"/>
      <point x="313" y="43" type="curve"/>
      <point x="187" y="43"/>
      <point x="119" y="135"/>
      <point x="119" y="266" type="curve"/>
      <point x="119" y="396"/>
      <point x="185" y="489"/>
      <point x="310" y="489" type="curve"/>
      <point x="389" y="489"/>
      <point x="464" y="453"/>
      <point x="520" y="390" type="curve"/>
      <point x="537" y="413"/>
      <point x="524" y="400"/>
    </contour>
    <contour>
      <point x="562" y="-300" type="curve"/>
      <point x="562" y="-17"/>
      <point x="562" y="250"/>
      <point x="562" y="533" type="curve"/>
      <point x="515" y="533"/>
      <point x="546" y="533"/>
      <point x="499" y="533" type="curve"/>
      <point x="499" y="250"/>
      <point x="499" y="-17"/>
      <point x="499" y="-300" type="curve"/>
      <point x="546" y="-300"/>
      <point x="515" y="-300"/>
    </contour>
  </outline>
</glyph>
<glyph name="s" format="1">
  <advance width="517"/>
  <unicode hex="0073"/>
  <outline>
    <contour>
      <point x="255" y="654" type="move" name="top"/>
    </contour>
    <contour>
      <point x="284" y="-25" type="move" name="bottom"/>
    </contour>
    <contour>
      <point x="62" y="49" type="curve"/>
      <point x="130" y="17"/>
      <point x="192" y="-5"/>
      <point x="265" y="-5" type="curve"/>
      <point x="380" y="-5"/>
      <point x="459" y="39"/>
      <point x="459" y="144" type="curve"/>
      <point x="458" y="247"/>
      <point x="372" y="269"/>
      <point x="267" y="300" type="curve" smooth="yes"/>
      <point x="195" y="320"/>
      <point x="137" y="345"/>
      <point x="137" y="409" type="curve"/>
      <point x="137" y="464"/>
      <point x="184" y="489"/>
      <point x="250" y="489" type="curve"/>
      <point x="301" y="489"/>
      <point x="358" y="471"/>
      <point x="394" y="449" type="curve"/>
      <point x="419" y="487"/>
      <point x="396" y="453"/>
      <point x="421" y="492" type="curve"/>
      <point x="379" y="517"/>
      <point x="312" y="538"/>
      <point x="252" y="538" type="curve"/>
      <point x="153" y="538"/>
      <point x="83" y="499"/>
      <point x="83" y="409" type="curve"/>
      <point x="83" y="315"/>
      <point x="152" y="282"/>
      <point x="248" y="253" type="curve" smooth="yes"/>
      <point x="327" y="229"/>
      <point x="401" y="214"/>
      <point x="401" y="142" type="curve"/>
      <point x="401" y="75"/>
      <point x="347" y="44"/>
      <point x="273" y="44" type="curve"/>
      <point x="207" y="44"/>
      <point x="154" y="64"/>
      <point x="92" y="92" type="curve"/>
      <point x="62" y="50"/>
      <point x="93" y="92"/>
    </contour>
    <contour>
      <point x="372" y="492" type="curve"/>
      <point x="372" y="370"/>
      <point x="372" y="492"/>
      <point x="372" y="371" type="curve"/>
      <point x="421" y="371"/>
      <point x="372" y="371"/>
      <point x="421" y="371" type="curve"/>
      <point x="421" y="492"/>
      <point x="421" y="370"/>
      <point x="421" y="492" type="curve"/>
      <point x="377" y="492"/>
      <point x="416" y="492"/>
    </contour>
    <contour>
      <point x="110" y="49" type="curve"/>
      <point x="110" y="171"/>
      <point x="110" y="50"/>
      <point x="110" y="172" type="curve"/>
      <point x="61" y="172"/>
      <point x="110" y="172"/>
      <point x="61" y="172" type="curve"/>
      <point x="61" y="50"/>
      <point x="61" y="171"/>
      <point x="61" y="49" type="curve"/>
      <point x="110" y="49"/>
      <point x="61" y="49"/>
    </contour>
  </outline>
</glyph>
<glyph name="t" format="1">
  <advance width="444"/>
  <unicode hex="0074"/>
  <outline>
    <contour>
      <point x="309" y="-25" type="move" name="bottom"/>
    </contour>
    <contour>
      <point x="19" y="485" type="curve"/>
      <point x="419" y="485" type="line"/>
      <point x="419" y="533"/>
      <point x="419" y="485"/>
      <point x="419" y="533" type="curve"/>
      <point x="19" y="533" type="line"/>
      <point x="19" y="485"/>
      <point x="19" y="533"/>
    </contour>
    <contour>
      <point x="394" y="70" type="curve"/>
      <point x="362" y="54"/>
      <point x="338" y="45"/>
      <point x="303" y="45" type="curve"/>
      <point x="237" y="45"/>
      <point x="210" y="83"/>
      <point x="210" y="154" type="curve"/>
      <point x="210" y="679" type="line"/>
      <point x="182" y="662"/>
      <point x="177" y="658"/>
      <point x="150" y="642" type="curve"/>
      <point x="150" y="151" type="line"/>
      <point x="150" y="50"/>
      <point x="199" y="-5"/>
      <point x="296" y="-5" type="curve"/>
      <point x="343" y="-5"/>
      <point x="376" y="8"/>
      <point x="415" y="27" type="curve"/>
      <point x="394" y="70"/>
      <point x="415" y="27"/>
    </contour>
  </outline>
</glyph>
<glyph name="u" format="1">
  <advance width="689"/>
  <unicode hex="0075"/>
  <outline>
    <contour>
      <point x="329" y="654" type="move" name="top"/>
    </contour>
    <contour>
      <point x="561" y="3" type="move" name="bottom"/>
    </contour>
    <contour>
      <point x="537" y="533" type="curve"/>
      <point x="487" y="533"/>
      <point x="442" y="533"/>
      <point x="392" y="533" type="curve"/>
      <point x="392" y="496"/>
      <point x="392" y="522"/>
      <point x="392" y="485" type="curve"/>
      <point x="524" y="485"/>
      <point x="404" y="485"/>
      <point x="537" y="485" type="curve"/>
      <point x="537" y="522"/>
      <point x="537" y="496"/>
    </contour>
    <contour>
      <point x="155" y="533" type="curve"/>
      <point x="106" y="533"/>
      <point x="60" y="533"/>
      <point x="11" y="533" type="curve"/>
      <point x="11" y="496"/>
      <point x="11" y="522"/>
      <point x="11" y="485" type="curve"/>
      <point x="143" y="485"/>
      <point x="24" y="485"/>
      <point x="155" y="485" type="curve"/>
      <point x="155" y="522"/>
      <point x="155" y="496"/>
    </contour>
    <contour>
      <point x="537" y="0" type="curve"/>
      <point x="583" y="0"/>
      <point x="624" y="0"/>
      <point x="671" y="0" type="curve"/>
      <point x="671" y="37"/>
      <point x="671" y="11"/>
      <point x="671" y="48" type="curve"/>
      <point x="548" y="48"/>
      <point x="660" y="48"/>
      <point x="537" y="48" type="curve"/>
      <point x="537" y="11"/>
      <point x="537" y="37"/>
    </contour>
    <contour>
      <point x="567" y="0" type="curve"/>
      <point x="567" y="180"/>
      <point x="567" y="353"/>
      <point x="567" y="533" type="curve"/>
      <point x="522" y="533"/>
      <point x="552" y="533"/>
      <point x="507" y="533" type="curve"/>
      <point x="507" y="353"/>
      <point x="507" y="180"/>
      <point x="507" y="0" type="curve"/>
      <point x="552" y="0"/>
      <point x="522" y="0"/>
    </contour>
    <contour>
      <point x="520" y="192" type="curve"/>
      <point x="484" y="113"/>
      <point x="417" y="44"/>
      <point x="335" y="44" type="curve"/>
      <point x="237" y="44"/>
      <point x="185" y="99"/>
      <point x="185" y="197" type="curve"/>
      <point x="185" y="310"/>
      <point x="185" y="420"/>
      <point x="185" y="533" type="curve"/>
      <point x="141" y="533"/>
      <point x="170" y="533"/>
      <point x="125" y="533" type="curve"/>
      <point x="125" y="418"/>
      <point x="125" y="308"/>
      <point x="125" y="193" type="curve"/>
      <point x="125" y="65"/>
      <point x="197" y="-5"/>
      <point x="327" y="-5" type="curve"/>
      <point x="430" y="-5"/>
      <point x="506" y="71"/>
      <point x="549" y="168" type="curve"/>
      <point x="526" y="184"/>
      <point x="544" y="175"/>
    </contour>
  </outline>
</glyph>
<glyph name="v" format="1">
  <advance width="705"/>
  <unicode hex="0076"/>
  <outline>
    <contour>
      <point x="143" y="533" type="curve"/>
      <point x="97" y="533"/>
      <point x="53" y="533"/>
      <point x="7" y="533" type="curve"/>
      <point x="7" y="485"/>
      <point x="7" y="533"/>
      <point x="7" y="485" type="curve"/>
      <point x="146" y="485"/>
      <point x="4" y="485"/>
      <point x="143" y="485" type="curve"/>
      <point x="143" y="533"/>
      <point x="143" y="485"/>
    </contour>
    <contour>
      <point x="143" y="485" type="curve"/>
      <point x="281" y="485"/>
      <point x="140" y="485"/>
      <point x="279" y="485" type="curve"/>
      <point x="279" y="533"/>
      <point x="279" y="485"/>
      <point x="279" y="533" type="curve"/>
      <point x="233" y="533"/>
      <point x="190" y="533"/>
      <point x="143" y="533" type="curve"/>
      <point x="143" y="485"/>
      <point x="143" y="533"/>
    </contour>
    <contour>
      <point x="567" y="533" type="curve"/>
      <point x="520" y="533"/>
      <point x="476" y="533"/>
      <point x="429" y="533" type="curve"/>
      <point x="429" y="485"/>
      <point x="429" y="533"/>
      <point x="429" y="485" type="curve"/>
      <point x="570" y="485"/>
      <point x="426" y="485"/>
      <point x="567" y="485" type="curve"/>
      <point x="567" y="533"/>
      <point x="567" y="485"/>
    </contour>
    <contour>
      <point x="567" y="485" type="curve"/>
      <point x="704" y="485"/>
      <point x="564" y="485"/>
      <point x="701" y="485" type="curve"/>
      <point x="701" y="533"/>
      <point x="701" y="485"/>
      <point x="701" y="533" type="curve"/>
      <point x="656" y="533"/>
      <point x="613" y="533"/>
      <point x="567" y="533" type="curve"/>
      <point x="567" y="485"/>
      <point x="567" y="533"/>
    </contour>
    <contour>
      <point x="99" y="533" type="curve"/>
      <point x="171" y="355"/>
      <point x="243" y="178"/>
      <point x="315" y="0" type="curve"/>
      <point x="375" y="0"/>
      <point x="315" y="0"/>
      <point x="375" y="0" type="curve"/>
      <point x="304" y="178"/>
      <point x="233" y="355"/>
      <point x="162" y="533" type="curve"/>
      <point x="99" y="533"/>
      <point x="162" y="533"/>
    </contour>
    <contour>
      <point x="550" y="533" type="curve"/>
      <point x="324" y="0" type="line"/>
      <point x="384" y="0"/>
      <point x="324" y="0"/>
      <point x="384" y="0" type="curve"/>
      <point x="461" y="178"/>
      <point x="536" y="355"/>
      <point x="612" y="533" type="curve"/>
      <point x="550" y="533"/>
      <point x="612" y="533"/>
    </contour>
  </outline>
</glyph>
<glyph name="w" format="1">
  <advance width="1048"/>
  <unicode hex="0077"/>
  <outline>
    <contour>
      <point x="902" y="485" type="curve"/>
      <point x="1045" y="485"/>
      <point x="899" y="485"/>
      <point x="1043" y="485" type="curve"/>
      <point x="1043" y="533"/>
      <point x="1043" y="485"/>
      <point x="1043" y="533" type="curve"/>
      <point x="994" y="533"/>
      <point x="949" y="533"/>
      <point x="902" y="533" type="curve"/>
      <point x="902" y="485"/>
      <point x="902" y="533"/>
    </contour>
    <contour>
      <point x="902" y="533" type="curve"/>
      <point x="854" y="533"/>
      <point x="815" y="533"/>
      <point x="767" y="533" type="curve"/>
      <point x="767" y="485"/>
      <point x="767" y="533"/>
      <point x="767" y="485" type="curve"/>
      <point x="911" y="485"/>
      <point x="758" y="485"/>
      <point x="902" y="485" type="curve"/>
      <point x="902" y="533"/>
      <point x="902" y="485"/>
    </contour>
    <contour>
      <point x="146" y="533" type="curve"/>
      <point x="99" y="533"/>
      <point x="53" y="533"/>
      <point x="6" y="533" type="curve"/>
      <point x="6" y="485"/>
      <point x="6" y="533"/>
      <point x="6" y="485" type="curve"/>
      <point x="149" y="485"/>
      <point x="3" y="485"/>
      <point x="146" y="485" type="curve"/>
      <point x="146" y="533"/>
      <point x="146" y="485"/>
    </contour>
    <contour>
      <point x="146" y="485" type="curve"/>
      <point x="290" y="485"/>
      <point x="141" y="485"/>
      <point x="284" y="485" type="curve"/>
      <point x="284" y="533"/>
      <point x="284" y="485"/>
      <point x="284" y="533" type="curve"/>
      <point x="236" y="533"/>
      <point x="195" y="533"/>
      <point x="146" y="533" type="curve"/>
      <point x="146" y="485"/>
      <point x="146" y="533"/>
    </contour>
    <contour>
      <point x="346" y="0" type="curve"/>
      <point x="417" y="178"/>
      <point x="487" y="355"/>
      <point x="558" y="533" type="curve"/>
      <point x="498" y="533"/>
      <point x="558" y="533"/>
      <point x="498" y="533" type="curve"/>
      <point x="428" y="355"/>
      <point x="359" y="178"/>
      <point x="289" y="0" type="curve"/>
      <point x="346" y="0"/>
      <point x="289" y="0"/>
    </contour>
    <contour>
      <point x="891" y="533" type="curve"/>
      <point x="826" y="355"/>
      <point x="761" y="178"/>
      <point x="696" y="0" type="curve"/>
      <point x="753" y="0"/>
      <point x="696" y="0"/>
      <point x="753" y="0" type="curve"/>
      <point x="819" y="178"/>
      <point x="885" y="355"/>
      <point x="952" y="533" type="curve"/>
      <point x="891" y="533"/>
      <point x="952" y="533"/>
    </contour>
    <contour>
      <point x="504" y="533" type="curve"/>
      <point x="568" y="355"/>
      <point x="631" y="178"/>
      <point x="695" y="0" type="curve"/>
      <point x="752" y="0"/>
      <point x="695" y="0"/>
      <point x="752" y="0" type="curve"/>
      <point x="689" y="178"/>
      <point x="626" y="355"/>
      <point x="563" y="533" type="curve"/>
      <point x="504" y="533"/>
      <point x="563" y="533"/>
    </contour>
    <contour>
      <point x="98" y="533" type="curve"/>
      <point x="162" y="355"/>
      <point x="225" y="178"/>
      <point x="288" y="0" type="curve"/>
      <point x="345" y="0"/>
      <point x="288" y="0"/>
      <point x="345" y="0" type="curve"/>
      <point x="282" y="178"/>
      <point x="220" y="355"/>
      <point x="157" y="533" type="curve"/>
      <point x="98" y="533"/>
      <point x="157" y="533"/>
    </contour>
  </outline>
</glyph>
<glyph name="x" format="1">
  <advance width="710"/>
  <unicode hex="0078"/>
  <outline>
    <contour>
      <point x="142" y="48" type="curve"/>
      <point x="2" y="48"/>
      <point x="149" y="48"/>
      <point x="10" y="48" type="curve"/>
      <point x="10" y="0"/>
      <point x="10" y="48"/>
      <point x="10" y="0" type="curve"/>
      <point x="56" y="0"/>
      <point x="95" y="0"/>
      <point x="142" y="0" type="curve"/>
      <point x="142" y="48"/>
      <point x="142" y="0"/>
    </contour>
    <contour>
      <point x="573" y="48" type="curve"/>
      <point x="417" y="48"/>
      <point x="580" y="48"/>
      <point x="424" y="48" type="curve"/>
      <point x="424" y="0"/>
      <point x="424" y="48"/>
      <point x="424" y="0" type="curve"/>
      <point x="476" y="0"/>
      <point x="521" y="0"/>
      <point x="573" y="0" type="curve"/>
      <point x="573" y="48"/>
      <point x="573" y="0"/>
    </contour>
    <contour>
      <point x="571" y="0" type="curve"/>
      <point x="617" y="0"/>
      <point x="657" y="0"/>
      <point x="703" y="0" type="curve"/>
      <point x="703" y="48"/>
      <point x="703" y="0"/>
      <point x="703" y="48" type="curve"/>
      <point x="564" y="48"/>
      <point x="709" y="48"/>
      <point x="571" y="48" type="curve"/>
      <point x="571" y="0"/>
      <point x="571" y="48"/>
    </contour>
    <contour>
      <point x="139" y="0" type="curve"/>
      <point x="191" y="0"/>
      <point x="132" y="0"/>
      <point x="288" y="0" type="curve"/>
      <point x="288" y="48"/>
      <point x="288" y="0"/>
      <point x="288" y="48" type="curve"/>
      <point x="132" y="48"/>
      <point x="295" y="48"/>
      <point x="139" y="48" type="curve"/>
      <point x="139" y="0"/>
      <point x="139" y="48"/>
    </contour>
    <contour>
      <point x="550" y="485" type="curve"/>
      <point x="692" y="485"/>
      <point x="545" y="485"/>
      <point x="686" y="485" type="curve"/>
      <point x="686" y="533"/>
      <point x="686" y="485"/>
      <point x="686" y="533" type="curve"/>
      <point x="639" y="533"/>
      <point x="597" y="533"/>
      <point x="550" y="533" type="curve"/>
      <point x="550" y="485"/>
      <point x="550" y="533"/>
    </contour>
    <contour>
      <point x="169" y="533" type="curve"/>
      <point x="121" y="533"/>
      <point x="80" y="533"/>
      <point x="33" y="533" type="curve"/>
      <point x="33" y="485"/>
      <point x="33" y="533"/>
      <point x="33" y="485" type="curve"/>
      <point x="176" y="485"/>
      <point x="26" y="485"/>
      <point x="169" y="485" type="curve"/>
      <point x="169" y="533"/>
      <point x="169" y="485"/>
    </contour>
    <contour>
      <point x="160" y="485" type="curve"/>
      <point x="312" y="485"/>
      <point x="148" y="485"/>
      <point x="300" y="485" type="curve"/>
      <point x="300" y="533"/>
      <point x="300" y="485"/>
      <point x="300" y="533" type="curve"/>
      <point x="249" y="533"/>
      <point x="211" y="533"/>
      <point x="160" y="533" type="curve"/>
      <point x="160" y="485"/>
      <point x="160" y="533"/>
    </contour>
    <contour>
      <point x="554" y="533" type="curve"/>
      <point x="505" y="533"/>
      <point x="467" y="533"/>
      <point x="417" y="533" type="curve"/>
      <point x="417" y="485"/>
      <point x="417" y="533"/>
      <point x="417" y="485" type="curve"/>
      <point x="567" y="485"/>
      <point x="406" y="485"/>
      <point x="554" y="485" type="curve"/>
      <point x="554" y="533"/>
      <point x="554" y="485"/>
    </contour>
    <contour>
      <point x="611" y="14" type="curve"/>
      <point x="507" y="141"/>
      <point x="277" y="405"/>
      <point x="172" y="533" type="curve"/>
      <point x="115" y="533"/>
      <point x="178" y="518"/>
      <point x="121" y="518" type="curve"/>
      <point x="225" y="391"/>
      <point x="451" y="128"/>
      <point x="554" y="0" type="curve"/>
      <point x="616" y="0"/>
      <point x="548" y="14"/>
    </contour>
    <contour>
      <point x="548" y="533" type="curve"/>
      <point x="442" y="405"/>
      <point x="206" y="142"/>
      <point x="101" y="15" type="curve"/>
      <point x="164" y="15"/>
      <point x="96" y="0"/>
      <point x="159" y="0" type="curve"/>
      <point x="263" y="128"/>
      <point x="493" y="390"/>
      <point x="598" y="518" type="curve"/>
      <point x="540" y="518"/>
      <point x="605" y="533"/>
    </contour>
  </outline>
</glyph>
<glyph name="y" format="1">
  <advance width="763"/>
  <unicode hex="0079"/>
  <outline>
    <contour>
      <point x="384" y="654" type="move" name="top"/>
    </contour>
    <contour>
      <point x="239" y="-252" type="curve"/>
      <point x="103" y="-252"/>
      <point x="242" y="-252"/>
      <point x="106" y="-252" type="curve"/>
      <point x="106" y="-300"/>
      <point x="106" y="-252"/>
      <point x="106" y="-300" type="curve"/>
      <point x="152" y="-300"/>
      <point x="193" y="-300"/>
      <point x="239" y="-300" type="curve"/>
      <point x="239" y="-252"/>
      <point x="239" y="-300"/>
    </contour>
    <contour>
      <point x="151" y="533" type="curve"/>
      <point x="104" y="533"/>
      <point x="58" y="533"/>
      <point x="10" y="533" type="curve"/>
      <point x="10" y="485"/>
      <point x="10" y="533"/>
      <point x="10" y="485" type="curve"/>
      <point x="154" y="485"/>
      <point x="7" y="485"/>
      <point x="151" y="485" type="curve"/>
      <point x="151" y="533"/>
      <point x="151" y="485"/>
    </contour>
    <contour>
      <point x="151" y="485" type="curve"/>
      <point x="297" y="485"/>
      <point x="148" y="485"/>
      <point x="295" y="485" type="curve"/>
      <point x="295" y="533"/>
      <point x="295" y="485"/>
      <point x="295" y="533" type="curve"/>
      <point x="246" y="533"/>
      <point x="201" y="533"/>
      <point x="151" y="533" type="curve"/>
      <point x="151" y="485"/>
      <point x="151" y="533"/>
    </contour>
    <contour>
      <point x="618" y="533" type="curve"/>
      <point x="569" y="533"/>
      <point x="523" y="533"/>
      <point x="475" y="533" type="curve"/>
      <point x="475" y="485"/>
      <point x="475" y="533"/>
      <point x="475" y="485" type="curve"/>
      <point x="620" y="485"/>
      <point x="472" y="485"/>
      <point x="618" y="485" type="curve"/>
      <point x="618" y="533"/>
      <point x="618" y="485"/>
    </contour>
    <contour>
      <point x="618" y="485" type="curve"/>
      <point x="759" y="485"/>
      <point x="615" y="485"/>
      <point x="756" y="485" type="curve"/>
      <point x="756" y="533"/>
      <point x="756" y="485"/>
      <point x="756" y="533" type="curve"/>
      <point x="709" y="533"/>
      <point x="664" y="533"/>
      <point x="618" y="533" type="curve"/>
      <point x="618" y="485"/>
      <point x="618" y="533"/>
    </contour>
    <contour>
      <point x="401" y="1" type="curve"/>
      <point x="353" y="93"/>
      <point x="213" y="441"/>
      <point x="164" y="533" type="curve"/>
      <point x="101" y="533"/>
      <point x="164" y="533"/>
      <point x="101" y="533" type="curve"/>
      <point x="151" y="442"/>
      <point x="296" y="85"/>
      <point x="346" y="-5" type="curve"/>
      <point x="401" y="-5"/>
      <point x="346" y="1"/>
    </contour>
    <contour>
      <point x="259" y="-300" type="curve"/>
      <point x="342" y="-158"/>
      <point x="583" y="391"/>
      <point x="666" y="533" type="curve"/>
      <point x="603" y="533"/>
      <point x="666" y="533"/>
      <point x="603" y="533" type="curve"/>
      <point x="520" y="391"/>
      <point x="279" y="-158"/>
      <point x="196" y="-300" type="curve"/>
      <point x="259" y="-300"/>
      <point x="196" y="-300"/>
    </contour>
  </outline>
</glyph>
<glyph name="z" format="1">
  <advance width="552"/>
  <unicode hex="007A"/>
  <outline>
    <contour>
      <point x="275" y="653" type="move" name="top"/>
    </contour>
    <contour>
      <point x="67" y="485" type="curve"/>
      <point x="200" y="485"/>
      <point x="329" y="485"/>
      <point x="461" y="485" type="curve"/>
      <point x="457" y="491"/>
      <point x="449" y="490"/>
      <point x="443" y="496" type="curve"/>
      <point x="439" y="500"/>
      <point x="438" y="505"/>
      <point x="434" y="510" type="curve"/>
      <point x="430" y="505"/>
      <point x="424" y="505"/>
      <point x="419" y="500" type="curve"/>
      <point x="51" y="48" type="line"/>
      <point x="51" y="23"/>
      <point x="51" y="48"/>
      <point x="51" y="23" type="curve"/>
      <point x="51" y="0"/>
      <point x="51" y="23"/>
      <point x="51" y="0" type="curve"/>
      <point x="71" y="0"/>
      <point x="51" y="0"/>
      <point x="71" y="0" type="curve"/>
      <point x="508" y="0"/>
      <point x="360" y="0"/>
      <point x="506" y="0" type="curve"/>
      <point x="506" y="48"/>
      <point x="506" y="0"/>
      <point x="506" y="48" type="curve"/>
      <point x="360" y="48"/>
      <point x="216" y="48"/>
      <point x="71" y="48" type="curve"/>
      <point x="76" y="44"/>
      <point x="82" y="43"/>
      <point x="87" y="39" type="curve"/>
      <point x="91" y="34"/>
      <point x="94" y="28"/>
      <point x="98" y="23" type="curve"/>
      <point x="102" y="28"/>
      <point x="107" y="28"/>
      <point x="111" y="33" type="curve"/>
      <point x="480" y="485" type="line"/>
      <point x="480" y="510"/>
      <point x="480" y="485"/>
      <point x="480" y="510" type="curve"/>
      <point x="480" y="533"/>
      <point x="480" y="510"/>
      <point x="480" y="533" type="curve"/>
      <point x="461" y="533"/>
      <point x="480" y="533"/>
      <point x="461" y="533" type="curve"/>
      <point x="329" y="533"/>
      <point x="200" y="533"/>
      <point x="67" y="533" type="curve"/>
      <point x="67" y="485"/>
      <point x="67" y="533"/>
    </contour>
    <contour>
      <point x="67" y="509" type="curve"/>
      <point x="67" y="389"/>
      <point x="67" y="513"/>
      <point x="67" y="393" type="curve"/>
      <point x="116" y="393"/>
      <point x="67" y="393"/>
      <point x="116" y="393" type="curve"/>
      <point x="116" y="513"/>
      <point x="116" y="389"/>
      <point x="116" y="509" type="curve"/>
      <point x="67" y="509"/>
      <point x="116" y="509"/>
    </contour>
    <contour>
      <point x="506" y="24" type="curve"/>
      <point x="506" y="144"/>
      <point x="506" y="20"/>
      <point x="506" y="140" type="curve"/>
      <point x="457" y="140"/>
      <point x="506" y="140"/>
      <point x="457" y="140" type="curve"/>
      <point x="457" y="20"/>
      <point x="457" y="144"/>
      <point x="457" y="24" type="curve"/>
      <point x="506" y="24"/>
      <point x="457" y="24"/>
    </contour>
  </outline>
</glyph>
<glyph name="braceleft" format="1">
  <advance width="330"/>
  <unicode hex="007B"/>
  <outline>
    <contour>
      <point x="281" y="-71" type="curve"/>
      <point x="217" y="-71"/>
      <point x="187" y="-27"/>
      <point x="187" y="38" type="curve"/>
      <point x="187" y="94"/>
      <point x="187" y="151"/>
      <point x="187" y="208" type="curve"/>
      <point x="187" y="302"/>
      <point x="133" y="364"/>
      <point x="39" y="364" type="curve"/>
      <point x="39" y="315"/>
      <point x="39" y="364"/>
      <point x="39" y="315" type="curve"/>
      <point x="100" y="315"/>
      <point x="132" y="274"/>
      <point x="132" y="212" type="curve"/>
      <point x="132" y="155"/>
      <point x="132" y="97"/>
      <point x="132" y="40" type="curve"/>
      <point x="132" y="-57"/>
      <point x="186" y="-118"/>
      <point x="281" y="-118" type="curve"/>
      <point x="281" y="-71"/>
      <point x="281" y="-118"/>
    </contour>
    <contour>
      <point x="281" y="797" type="curve"/>
      <point x="185" y="797"/>
      <point x="132" y="736"/>
      <point x="132" y="639" type="curve"/>
      <point x="132" y="581"/>
      <point x="132" y="522"/>
      <point x="132" y="464" type="curve"/>
      <point x="132" y="403"/>
      <point x="99" y="364"/>
      <point x="39" y="364" type="curve"/>
      <point x="39" y="315"/>
      <point x="39" y="364"/>
      <point x="39" y="315" type="curve"/>
      <point x="133" y="315"/>
      <point x="187" y="375"/>
      <point x="187" y="471" type="curve"/>
      <point x="187" y="527"/>
      <point x="187" y="583"/>
      <point x="187" y="639" type="curve"/>
      <point x="187" y="704"/>
      <point x="217" y="750"/>
      <point x="281" y="750" type="curve"/>
      <point x="281" y="797"/>
      <point x="281" y="750"/>
    </contour>
  </outline>
</glyph>
<glyph name="braceright" format="1">
  <advance width="330"/>
  <unicode hex="007D"/>
  <outline>
    <contour>
      <point x="49" y="-119" type="curve"/>
      <point x="144" y="-119"/>
      <point x="198" y="-57"/>
      <point x="198" y="40" type="curve"/>
      <point x="198" y="97"/>
      <point x="198" y="155"/>
      <point x="198" y="212" type="curve"/>
      <point x="198" y="274"/>
      <point x="230" y="314"/>
      <point x="291" y="314" type="curve"/>
      <point x="291" y="364"/>
      <point x="291" y="314"/>
      <point x="291" y="364" type="curve"/>
      <point x="197" y="364"/>
      <point x="143" y="302"/>
      <point x="143" y="208" type="curve"/>
      <point x="143" y="151"/>
      <point x="143" y="94"/>
      <point x="143" y="38" type="curve"/>
      <point x="143" y="-27"/>
      <point x="113" y="-72"/>
      <point x="49" y="-72" type="curve"/>
      <point x="49" y="-119"/>
      <point x="49" y="-72"/>
    </contour>
    <contour>
      <point x="49" y="749" type="curve"/>
      <point x="114" y="749"/>
      <point x="143" y="704"/>
      <point x="143" y="639" type="curve"/>
      <point x="143" y="583"/>
      <point x="143" y="527"/>
      <point x="143" y="471" type="curve"/>
      <point x="143" y="375"/>
      <point x="197" y="314"/>
      <point x="291" y="314" type="curve"/>
      <point x="291" y="364"/>
      <point x="291" y="314"/>
      <point x="291" y="364" type="curve"/>
      <point x="230" y="364"/>
      <point x="198" y="402"/>
      <point x="198" y="464" type="curve"/>
      <point x="198" y="522"/>
      <point x="198" y="581"/>
      <point x="198" y="639" type="curve"/>
      <point x="198" y="736"/>
      <point x="144" y="796"/>
      <point x="49" y="796" type="curve"/>
      <point x="49" y="749"/>
      <point x="49" y="796"/>
    </contour>
  </outline>
</glyph>
<glyph name="asciitilde" format="1">
  <advance width="712"/>
  <unicode hex="007E"/>
  <outline>
    <contour>
      <point x="581" y="354" type="curve"/>
      <point x="563" y="307"/>
      <point x="540" y="260"/>
      <point x="485" y="260" type="curve"/>
      <point x="439" y="260"/>
      <point x="409" y="274"/>
      <point x="373" y="302" type="curve"/>
      <point x="327" y="338"/>
      <point x="293" y="359"/>
      <point x="236" y="359" type="curve"/>
      <point x="148" y="359"/>
      <point x="107" y="313"/>
      <point x="83" y="232" type="curve"/>
      <point x="109" y="222"/>
      <point x="102" y="224"/>
      <point x="129" y="214" type="curve"/>
      <point x="145" y="269"/>
      <point x="172" y="311"/>
      <point x="233" y="311" type="curve"/>
      <point x="274" y="311"/>
      <point x="299" y="297"/>
      <point x="331" y="272" type="curve"/>
      <point x="382" y="233"/>
      <point x="418" y="213"/>
      <point x="482" y="212" type="curve"/>
      <point x="566" y="212"/>
      <point x="601" y="263"/>
      <point x="629" y="337" type="curve"/>
      <point x="601" y="347"/>
      <point x="609" y="345"/>
    </contour>
  </outline>
</glyph>
<glyph name="cent" format="1">
  <advance width="671"/>
  <unicode hex="00A2"/>
  <outline>
    <contour>
      <point x="381" y="-53" type="curve"/>
      <point x="381" y="-13"/>
      <point x="381" y="27"/>
      <point x="381" y="67" type="curve"/>
      <point x="320" y="67"/>
      <point x="381" y="67"/>
      <point x="320" y="67" type="curve"/>
      <point x="320" y="27"/>
      <point x="320" y="-13"/>
      <point x="320" y="-53" type="curve"/>
      <point x="381" y="-53"/>
      <point x="320" y="-53"/>
    </contour>
    <contour>
      <point x="342" y="778" type="curve"/>
      <point x="342" y="742"/>
      <point x="342" y="706"/>
      <point x="342" y="670" type="curve"/>
      <point x="402" y="670"/>
      <point x="342" y="670"/>
      <point x="402" y="670" type="curve"/>
      <point x="402" y="706"/>
      <point x="402" y="742"/>
      <point x="402" y="778" type="curve"/>
      <point x="342" y="778"/>
      <point x="402" y="778"/>
    </contour>
    <contour>
      <point x="610" y="609" type="curve"/>
      <point x="533" y="661"/>
      <point x="469" y="681"/>
      <point x="377" y="681" type="curve"/>
      <point x="180" y="681"/>
      <point x="59" y="563"/>
      <point x="59" y="365" type="curve"/>
      <point x="59" y="176"/>
      <point x="161" y="51"/>
      <point x="346" y="51" type="curve"/>
      <point x="452" y="51"/>
      <point x="525" y="80"/>
      <point x="608" y="145" type="curve"/>
      <point x="573" y="183"/>
      <point x="608" y="145"/>
      <point x="573" y="183" type="curve"/>
      <point x="501" y="128"/>
      <point x="441" y="101"/>
      <point x="352" y="101" type="curve"/>
      <point x="200" y="101"/>
      <point x="118" y="209"/>
      <point x="118" y="368" type="curve"/>
      <point x="118" y="531"/>
      <point x="214" y="632"/>
      <point x="372" y="632" type="curve"/>
      <point x="453" y="632"/>
      <point x="510" y="613"/>
      <point x="579" y="569" type="curve"/>
      <point x="610" y="609"/>
      <point x="579" y="569"/>
    </contour>
    <contour>
      <point x="561" y="609" type="curve"/>
      <point x="561" y="487"/>
      <point x="561" y="601"/>
      <point x="561" y="480" type="curve"/>
      <point x="610" y="480"/>
      <point x="561" y="480"/>
      <point x="610" y="480" type="curve"/>
      <point x="610" y="601"/>
      <point x="610" y="487"/>
      <point x="610" y="609" type="curve"/>
      <point x="561" y="609"/>
      <point x="610" y="609"/>
    </contour>
  </outline>
</glyph>
<glyph name="sterling" format="1">
  <advance width="542"/>
  <unicode hex="00A3"/>
  <outline>
    <contour>
      <point x="470" y="48" type="curve"/>
      <point x="329" y="48"/>
      <point x="188" y="48"/>
      <point x="48" y="48" type="curve"/>
      <point x="48" y="1"/>
      <point x="48" y="48"/>
      <point x="48" y="1" type="curve"/>
      <point x="188" y="1"/>
      <point x="330" y="1"/>
      <point x="470" y="1" type="curve"/>
      <point x="470" y="48"/>
      <point x="470" y="1"/>
    </contour>
    <contour>
      <point x="419" y="400" type="curve"/>
      <point x="308" y="400"/>
      <point x="195" y="400"/>
      <point x="84" y="400" type="curve"/>
      <point x="84" y="353"/>
      <point x="84" y="400"/>
      <point x="84" y="353" type="curve"/>
      <point x="195" y="353"/>
      <point x="308" y="353"/>
      <point x="419" y="353" type="curve"/>
      <point x="419" y="400"/>
      <point x="419" y="353"/>
    </contour>
    <contour>
      <point x="488" y="671" type="curve"/>
      <point x="439" y="707"/>
      <point x="400" y="723"/>
      <point x="340" y="723" type="curve"/>
      <point x="177" y="723"/>
      <point x="125" y="563"/>
      <point x="168" y="372" type="curve"/>
      <point x="205" y="200"/>
      <point x="182" y="48"/>
      <point x="48" y="48" type="curve"/>
      <point x="48" y="1"/>
      <point x="48" y="48"/>
      <point x="48" y="1" type="curve"/>
      <point x="228" y="1"/>
      <point x="270" y="177"/>
      <point x="226" y="381" type="curve"/>
      <point x="192" y="538"/>
      <point x="222" y="677"/>
      <point x="337" y="677" type="curve"/>
      <point x="386" y="677"/>
      <point x="418" y="663"/>
      <point x="458" y="636" type="curve"/>
      <point x="488" y="671"/>
      <point x="458" y="636"/>
    </contour>
  </outline>
</glyph>
<glyph name="currency" format="1">
  <advance width="666"/>
  <unicode hex="00A4"/>
  <outline>
    <contour>
      <point x="208" y="312" type="curve"/>
      <point x="208" y="390"/>
      <point x="254" y="441"/>
      <point x="333" y="441" type="curve"/>
      <point x="412" y="441"/>
      <point x="456" y="391"/>
      <point x="456" y="312" type="curve"/>
      <point x="456" y="233"/>
      <point x="415" y="177"/>
      <point x="337" y="177" type="curve"/>
      <point x="254" y="177"/>
      <point x="208" y="229"/>
      <point x="208" y="312" type="curve"/>
      <point x="148" y="312"/>
      <point x="209" y="312"/>
      <point x="149" y="312" type="curve"/>
      <point x="149" y="197"/>
      <point x="221" y="130"/>
      <point x="335" y="130" type="curve"/>
      <point x="448" y="130"/>
      <point x="516" y="201"/>
      <point x="516" y="314" type="curve"/>
      <point x="516" y="422"/>
      <point x="447" y="488"/>
      <point x="338" y="488" type="curve"/>
      <point x="223" y="488"/>
      <point x="149" y="424"/>
      <point x="149" y="312" type="curve"/>
      <point x="209" y="312"/>
      <point x="148" y="312"/>
    </contour>
    <contour>
      <point x="456" y="388" type="line"/>
      <point x="600" y="525" type="line"/>
      <point x="553" y="573" type="line"/>
      <point x="415" y="428" type="line"/>
    </contour>
    <contour>
      <point x="415" y="195" type="line"/>
      <point x="553" y="51" type="line"/>
      <point x="600" y="99" type="line"/>
      <point x="456" y="236" type="line"/>
    </contour>
    <contour>
      <point x="208" y="237" type="line"/>
      <point x="63" y="100" type="line"/>
      <point x="111" y="52" type="line"/>
      <point x="248" y="196" type="line"/>
    </contour>
    <contour>
      <point x="250" y="429" type="line"/>
      <point x="113" y="573" type="line"/>
      <point x="65" y="526" type="line"/>
      <point x="210" y="388" type="line"/>
    </contour>
  </outline>
</glyph>
<glyph name="yen" format="1">
  <advance width="830"/>
  <unicode hex="00A5"/>
  <outline>
    <contour>
      <point x="646" y="390" type="curve"/>
      <point x="572" y="390"/>
      <point x="499" y="390"/>
      <point x="425" y="390" type="curve"/>
      <point x="425" y="338"/>
      <point x="425" y="390"/>
      <point x="425" y="338" type="curve"/>
      <point x="499" y="338"/>
      <point x="572" y="338"/>
      <point x="646" y="338" type="curve"/>
      <point x="646" y="390"/>
      <point x="646" y="338"/>
    </contour>
    <contour>
      <point x="395" y="390" type="curve"/>
      <point x="323" y="390"/>
      <point x="250" y="390"/>
      <point x="179" y="390" type="curve"/>
      <point x="179" y="338"/>
      <point x="179" y="390"/>
      <point x="179" y="338" type="curve"/>
      <point x="250" y="338"/>
      <point x="323" y="338"/>
      <point x="395" y="338" type="curve"/>
      <point x="395" y="390"/>
      <point x="395" y="338"/>
    </contour>
    <contour>
      <point x="646" y="260" type="curve"/>
      <point x="490" y="260"/>
      <point x="334" y="260"/>
      <point x="179" y="260" type="curve"/>
      <point x="179" y="208"/>
      <point x="179" y="260"/>
      <point x="179" y="208" type="curve"/>
      <point x="334" y="208"/>
      <point x="490" y="208"/>
      <point x="646" y="208" type="curve"/>
      <point x="646" y="260"/>
      <point x="646" y="208"/>
    </contour>
    <contour>
      <point x="408" y="48" type="curve"/>
      <point x="249" y="48"/>
      <point x="411" y="48"/>
      <point x="252" y="48" type="curve"/>
      <point x="252" y="1"/>
      <point x="252" y="48"/>
      <point x="252" y="1" type="curve"/>
      <point x="305" y="1"/>
      <point x="355" y="1"/>
      <point x="408" y="1" type="curve"/>
      <point x="408" y="48"/>
      <point x="408" y="1"/>
    </contour>
    <contour>
      <point x="408" y="0" type="curve"/>
      <point x="461" y="0"/>
      <point x="511" y="0"/>
      <point x="564" y="0" type="curve"/>
      <point x="564" y="48"/>
      <point x="564" y="0"/>
      <point x="564" y="48" type="curve"/>
      <point x="405" y="47"/>
      <point x="567" y="48"/>
      <point x="408" y="47" type="curve"/>
      <point x="408" y="0"/>
      <point x="408" y="47"/>
    </contour>
    <contour>
      <point x="643" y="722" type="curve"/>
      <point x="589" y="722"/>
      <point x="540" y="722"/>
      <point x="488" y="722" type="curve"/>
      <point x="488" y="675"/>
      <point x="488" y="722"/>
      <point x="488" y="675" type="curve"/>
      <point x="646" y="675"/>
      <point x="484" y="675"/>
      <point x="643" y="675" type="curve"/>
      <point x="643" y="722"/>
      <point x="643" y="675"/>
    </contour>
    <contour>
      <point x="185" y="722" type="curve"/>
      <point x="134" y="722"/>
      <point x="86" y="722"/>
      <point x="36" y="722" type="curve"/>
      <point x="36" y="675"/>
      <point x="36" y="722"/>
      <point x="36" y="675" type="curve"/>
      <point x="187" y="675"/>
      <point x="33" y="675"/>
      <point x="185" y="675" type="curve"/>
      <point x="185" y="722"/>
      <point x="185" y="675"/>
    </contour>
    <contour>
      <point x="187" y="675" type="curve"/>
      <point x="346" y="675"/>
      <point x="184" y="675"/>
      <point x="342" y="675" type="curve"/>
      <point x="342" y="722"/>
      <point x="342" y="675"/>
      <point x="342" y="722" type="curve"/>
      <point x="290" y="722"/>
      <point x="240" y="722"/>
      <point x="187" y="722" type="curve"/>
      <point x="187" y="675"/>
      <point x="187" y="722"/>
    </contour>
    <contour>
      <point x="645" y="675" type="curve"/>
      <point x="797" y="675"/>
      <point x="642" y="675"/>
      <point x="794" y="675" type="curve"/>
      <point x="794" y="722"/>
      <point x="794" y="675"/>
      <point x="794" y="722" type="curve"/>
      <point x="743" y="722"/>
      <point x="695" y="722"/>
      <point x="645" y="722" type="curve"/>
      <point x="645" y="675"/>
      <point x="645" y="722"/>
    </contour>
    <contour>
      <point x="136" y="716" type="curve"/>
      <point x="217" y="589"/>
      <point x="297" y="463"/>
      <point x="377" y="336" type="curve"/>
      <point x="438" y="336"/>
      <point x="374" y="336"/>
      <point x="435" y="336" type="curve"/>
      <point x="354" y="465"/>
      <point x="274" y="593"/>
      <point x="194" y="722" type="curve"/>
      <point x="136" y="722"/>
      <point x="194" y="716"/>
    </contour>
    <contour>
      <point x="636" y="721" type="curve"/>
      <point x="550" y="593"/>
      <point x="466" y="465"/>
      <point x="380" y="336" type="curve"/>
      <point x="441" y="336"/>
      <point x="379" y="336"/>
      <point x="439" y="336" type="curve"/>
      <point x="524" y="463"/>
      <point x="608" y="589"/>
      <point x="693" y="715" type="curve"/>
      <point x="636" y="715"/>
      <point x="693" y="721"/>
    </contour>
    <contour>
      <point x="440" y="0" type="curve"/>
      <point x="440" y="114"/>
      <point x="440" y="227"/>
      <point x="440" y="341" type="curve"/>
      <point x="376" y="341"/>
      <point x="440" y="341"/>
      <point x="376" y="341" type="curve"/>
      <point x="376" y="227"/>
      <point x="376" y="114"/>
      <point x="376" y="0" type="curve"/>
      <point x="440" y="0"/>
      <point x="376" y="0"/>
    </contour>
  </outline>
</glyph>
<glyph name="dieresis" format="1">
  <advance width="388"/>
  <unicode hex="00A8"/>
  <outline>
    <contour>
      <point x="160" y="623" type="move" name="_top"/>
    </contour>
    <contour>
      <point x="120" y="654" type="curve"/>
      <point x="120" y="676"/>
      <point x="105" y="688"/>
      <point x="82" y="688" type="curve"/>
      <point x="60" y="688"/>
      <point x="47" y="675"/>
      <point x="47" y="654" type="curve"/>
      <point x="111" y="654"/>
      <point x="55" y="654"/>
      <point x="120" y="654" type="curve"/>
      <point x="120" y="632"/>
      <point x="105" y="620"/>
      <point x="82" y="620" type="curve"/>
      <point x="60" y="620"/>
      <point x="47" y="632"/>
      <point x="47" y="654" type="curve"/>
      <point x="111" y="654"/>
      <point x="55" y="654"/>
    </contour>
    <contour>
      <point x="274" y="654" type="curve"/>
      <point x="274" y="676"/>
      <point x="257" y="688"/>
      <point x="235" y="688" type="curve"/>
      <point x="213" y="688"/>
      <point x="199" y="675"/>
      <point x="199" y="654" type="curve"/>
      <point x="264" y="654"/>
      <point x="208" y="654"/>
      <point x="274" y="654" type="curve"/>
      <point x="274" y="632"/>
      <point x="258" y="620"/>
      <point x="235" y="620" type="curve"/>
      <point x="213" y="620"/>
      <point x="199" y="632"/>
      <point x="199" y="654" type="curve"/>
      <point x="264" y="654"/>
      <point x="208" y="654"/>
    </contour>
  </outline>
</glyph>
<glyph name="ordfeminine" format="1">
  <advance width="477"/>
  <unicode hex="00AA"/>
  <outline>
    <contour>
      <point x="87" y="719" type="curve"/>
      <point x="87" y="681"/>
      <point x="87" y="690"/>
      <point x="87" y="651" type="curve"/>
      <point x="115" y="651"/>
      <point x="97" y="651"/>
      <point x="125" y="651" type="curve"/>
      <point x="125" y="690"/>
      <point x="125" y="681"/>
      <point x="125" y="719" type="curve"/>
      <point x="97" y="719"/>
      <point x="115" y="719"/>
    </contour>
    <contour>
      <point x="352" y="427" type="curve"/>
      <point x="352" y="517"/>
      <point x="352" y="586"/>
      <point x="352" y="677" type="curve"/>
      <point x="352" y="746"/>
      <point x="295" y="769"/>
      <point x="220" y="769" type="curve"/>
      <point x="165" y="769"/>
      <point x="120" y="749"/>
      <point x="87" y="719" type="curve"/>
      <point x="101" y="697"/>
      <point x="93" y="711"/>
      <point x="107" y="688" type="curve"/>
      <point x="132" y="710"/>
      <point x="168" y="732"/>
      <point x="214" y="732" type="curve"/>
      <point x="266" y="732"/>
      <point x="307" y="715"/>
      <point x="307" y="667" type="curve"/>
      <point x="307" y="581"/>
      <point x="307" y="514"/>
      <point x="307" y="427" type="curve"/>
      <point x="342" y="427"/>
      <point x="318" y="427"/>
    </contour>
    <contour>
      <point x="332" y="427" type="curve"/>
      <point x="357" y="427"/>
      <point x="378" y="427"/>
      <point x="405" y="427" type="curve"/>
      <point x="405" y="454"/>
      <point x="405" y="437"/>
      <point x="405" y="464" type="curve"/>
      <point x="361" y="464"/>
      <point x="374" y="464"/>
      <point x="332" y="464" type="curve"/>
      <point x="332" y="437"/>
      <point x="332" y="454"/>
    </contour>
    <contour>
      <point x="328" y="638" type="curve"/>
      <point x="277" y="631"/>
      <point x="243" y="630"/>
      <point x="192" y="623" type="curve"/>
      <point x="123" y="615"/>
      <point x="72" y="587"/>
      <point x="72" y="521" type="curve"/>
      <point x="72" y="455"/>
      <point x="120" y="423"/>
      <point x="190" y="423" type="curve"/>
      <point x="260" y="423"/>
      <point x="301" y="464"/>
      <point x="340" y="518" type="curve"/>
      <point x="324" y="532"/>
      <point x="335" y="524"/>
      <point x="318" y="538" type="curve"/>
      <point x="288" y="494"/>
      <point x="254" y="459"/>
      <point x="199" y="459" type="curve"/>
      <point x="151" y="459"/>
      <point x="117" y="479"/>
      <point x="117" y="523" type="curve"/>
      <point x="117" y="565"/>
      <point x="149" y="585"/>
      <point x="191" y="590" type="curve"/>
      <point x="243" y="597"/>
      <point x="278" y="599"/>
      <point x="330" y="606" type="curve"/>
      <point x="329" y="629"/>
      <point x="329" y="615"/>
    </contour>
  </outline>
</glyph>
<glyph name="logicalnot" format="1">
  <advance width="719"/>
  <unicode hex="00AC"/>
  <outline>
    <contour>
      <point x="103" y="284" type="curve"/>
      <point x="633" y="284" type="line"/>
      <point x="633" y="337"/>
      <point x="633" y="284"/>
      <point x="633" y="337" type="curve"/>
      <point x="103" y="337" type="line"/>
      <point x="103" y="284"/>
      <point x="103" y="337"/>
    </contour>
    <contour>
      <point x="633" y="149" type="curve"/>
      <point x="633" y="337" type="line"/>
      <point x="573" y="337"/>
      <point x="635" y="337"/>
      <point x="574" y="337" type="curve"/>
      <point x="574" y="149" type="line"/>
      <point x="635" y="149"/>
      <point x="573" y="149"/>
    </contour>
  </outline>
</glyph>
<glyph name="macron" format="1">
  <advance width="352"/>
  <unicode hex="00AF"/>
  <outline>
    <contour>
      <point x="146" y="630" type="move" name="_top"/>
    </contour>
    <contour>
      <point x="261" y="677" type="curve"/>
      <point x="183" y="677"/>
      <point x="105" y="677"/>
      <point x="27" y="677" type="curve"/>
      <point x="27" y="630"/>
      <point x="27" y="677"/>
      <point x="27" y="630" type="curve"/>
      <point x="105" y="630"/>
      <point x="183" y="630"/>
      <point x="261" y="630" type="curve"/>
      <point x="261" y="677"/>
      <point x="261" y="630"/>
    </contour>
  </outline>
</glyph>
<glyph name="degree" format="1">
  <advance width="504"/>
  <unicode hex="00B0"/>
  <outline>
    <contour>
      <point x="435" y="465" type="curve"/>
      <point x="435" y="587"/>
      <point x="370" y="667"/>
      <point x="251" y="667" type="curve"/>
      <point x="133" y="667"/>
      <point x="69" y="587"/>
      <point x="69" y="466" type="curve"/>
      <point x="112" y="466"/>
      <point x="79" y="466"/>
      <point x="121" y="466" type="curve"/>
      <point x="121" y="557"/>
      <point x="162" y="622"/>
      <point x="249" y="622" type="curve"/>
      <point x="337" y="622"/>
      <point x="382" y="557"/>
      <point x="382" y="465" type="curve"/>
      <point x="382" y="370"/>
      <point x="341" y="301"/>
      <point x="252" y="301" type="curve"/>
      <point x="161" y="301"/>
      <point x="121" y="372"/>
      <point x="121" y="466" type="curve"/>
      <point x="79" y="466"/>
      <point x="112" y="466"/>
      <point x="69" y="466" type="curve"/>
      <point x="69" y="341"/>
      <point x="131" y="256"/>
      <point x="251" y="256" type="curve"/>
      <point x="371" y="256"/>
      <point x="435" y="340"/>
    </contour>
  </outline>
</glyph>
<glyph name="plusminus" format="1">
  <advance width="708"/>
  <unicode hex="00B1"/>
  <outline>
    <contour>
      <point x="71" y="23" type="line"/>
      <point x="637" y="23" type="line"/>
      <point x="637" y="76" type="line"/>
      <point x="71" y="76" type="line"/>
    </contour>
    <contour>
      <point x="71" y="284" type="curve"/>
      <point x="637" y="284" type="line"/>
      <point x="637" y="337"/>
      <point x="637" y="284"/>
      <point x="637" y="337" type="curve"/>
      <point x="71" y="337" type="line"/>
      <point x="71" y="284"/>
      <point x="71" y="337"/>
    </contour>
    <contour>
      <point x="381" y="23" type="curve"/>
      <point x="381" y="587" type="line"/>
      <point x="321" y="587"/>
      <point x="384" y="587"/>
      <point x="324" y="587" type="curve"/>
      <point x="324" y="23" type="line"/>
      <point x="384" y="23"/>
      <point x="321" y="23"/>
    </contour>
  </outline>
</glyph>
<glyph name="twosuperior" format="1">
  <advance width="507"/>
  <unicode hex="00B2"/>
  <outline>
    <contour>
      <point x="266" y="720" type="move" name="_top"/>
    </contour>
    <contour>
      <point x="247" y="297" type="move" name="_bottom"/>
    </contour>
    <contour>
      <point x="428" y="297" type="curve"/>
      <point x="428" y="336"/>
      <point x="428" y="365"/>
      <point x="428" y="404" type="curve"/>
      <point x="382" y="404"/>
      <point x="431" y="404"/>
      <point x="385" y="404" type="curve"/>
      <point x="385" y="380"/>
      <point x="385" y="366"/>
      <point x="385" y="342" type="curve"/>
      <point x="433" y="300"/>
      <point x="380" y="340"/>
    </contour>
    <contour>
      <point x="77" y="297" type="curve"/>
      <point x="204" y="297"/>
      <point x="319" y="297"/>
      <point x="428" y="297" type="curve"/>
      <point x="380" y="340"/>
      <point x="433" y="300"/>
      <point x="385" y="342" type="curve"/>
      <point x="283" y="342"/>
      <point x="179" y="342"/>
      <point x="77" y="342" type="curve"/>
      <point x="77" y="297"/>
      <point x="77" y="342"/>
    </contour>
    <contour>
      <point x="142" y="608" type="curve"/>
      <point x="171" y="650"/>
      <point x="202" y="676"/>
      <point x="255" y="676" type="curve"/>
      <point x="313" y="676"/>
      <point x="352" y="647"/>
      <point x="352" y="593" type="curve"/>
      <point x="352" y="543"/>
      <point x="317" y="519"/>
      <point x="278" y="487" type="curve"/>
      <point x="211" y="439"/>
      <point x="144" y="390"/>
      <point x="77" y="342" type="curve"/>
      <point x="85" y="298"/>
      <point x="78" y="342"/>
      <point x="86" y="298" type="curve"/>
      <point x="164" y="352"/>
      <point x="241" y="401"/>
      <point x="311" y="453" type="curve"/>
      <point x="363" y="496"/>
      <point x="407" y="528"/>
      <point x="407" y="595" type="curve"/>
      <point x="407" y="677"/>
      <point x="346" y="720"/>
      <point x="259" y="720" type="curve"/>
      <point x="187" y="720"/>
      <point x="136" y="693"/>
      <point x="102" y="630" type="curve"/>
      <point x="142" y="608"/>
      <point x="102" y="630"/>
    </contour>
  </outline>
</glyph>
<glyph name="acute" format="1">
  <advance width="325"/>
  <unicode hex="00B4"/>
  <outline>
    <contour>
      <point x="54" y="590" type="move" name="_top"/>
    </contour>
    <contour>
      <point x="82" y="590" type="line"/>
      <point x="227" y="756" type="line"/>
      <point x="147" y="756" type="line"/>
      <point x="20" y="590" type="line"/>
    </contour>
  </outline>
</glyph>
<glyph name="paragraph" format="1">
  <advance width="753"/>
  <unicode hex="00B6"/>
  <outline>
    <contour>
      <point x="452" y="674" type="curve"/>
      <point x="620" y="674"/>
      <point x="452" y="674"/>
      <point x="620" y="674" type="curve"/>
      <point x="620" y="722"/>
      <point x="620" y="674"/>
      <point x="620" y="722" type="curve"/>
      <point x="564" y="722"/>
      <point x="508" y="722"/>
      <point x="452" y="722" type="curve"/>
      <point x="452" y="674"/>
      <point x="452" y="722"/>
    </contour>
    <contour>
      <point x="452" y="0" type="curve"/>
      <point x="508" y="0"/>
      <point x="564" y="0"/>
      <point x="620" y="0" type="curve"/>
      <point x="620" y="48"/>
      <point x="620" y="0"/>
      <point x="620" y="48" type="curve"/>
      <point x="452" y="48"/>
      <point x="620" y="48"/>
      <point x="452" y="48" type="curve"/>
      <point x="452" y="0"/>
      <point x="452" y="48"/>
    </contour>
    <contour>
      <point x="452" y="48" type="curve"/>
      <point x="295" y="48"/>
      <point x="452" y="48"/>
      <point x="295" y="48" type="curve"/>
      <point x="295" y="0"/>
      <point x="295" y="48"/>
      <point x="295" y="0" type="curve"/>
      <point x="452" y="0"/>
      <point x="400" y="0"/>
      <point x="452" y="0" type="curve"/>
      <point x="452" y="48"/>
      <point x="452" y="0"/>
    </contour>
    <contour>
      <point x="441" y="359" type="curve"/>
      <point x="388" y="333"/>
      <point x="347" y="318"/>
      <point x="288" y="318" type="curve"/>
      <point x="178" y="318"/>
      <point x="105" y="380"/>
      <point x="105" y="487" type="curve"/>
      <point x="105" y="609"/>
      <point x="194" y="674"/>
      <point x="322" y="674" type="curve"/>
      <point x="364" y="674"/>
      <point x="407" y="674"/>
      <point x="449" y="674" type="curve"/>
      <point x="449" y="722"/>
      <point x="449" y="674"/>
      <point x="449" y="722" type="curve"/>
      <point x="404" y="722"/>
      <point x="359" y="722"/>
      <point x="314" y="722" type="curve"/>
      <point x="157" y="722"/>
      <point x="44" y="639"/>
      <point x="44" y="489" type="curve"/>
      <point x="44" y="347"/>
      <point x="146" y="273"/>
      <point x="293" y="271" type="curve"/>
      <point x="354" y="271"/>
      <point x="406" y="290"/>
      <point x="461" y="316" type="curve"/>
      <point x="441" y="359"/>
      <point x="461" y="317"/>
    </contour>
    <contour>
      <point x="484" y="0" type="curve"/>
      <point x="484" y="241"/>
      <point x="484" y="481"/>
      <point x="484" y="722" type="curve"/>
      <point x="423" y="722"/>
      <point x="484" y="722"/>
      <point x="423" y="722" type="curve"/>
      <point x="423" y="481"/>
      <point x="423" y="241"/>
      <point x="423" y="0" type="curve"/>
      <point x="484" y="0"/>
      <point x="423" y="0"/>
    </contour>
    <contour>
      <point x="668" y="0" type="curve"/>
      <point x="668" y="241"/>
      <point x="668" y="481"/>
      <point x="668" y="722" type="curve"/>
      <point x="608" y="722"/>
      <point x="668" y="722"/>
      <point x="608" y="722" type="curve"/>
      <point x="608" y="481"/>
      <point x="608" y="241"/>
      <point x="608" y="0" type="curve"/>
      <point x="668" y="0"/>
      <point x="608" y="0"/>
    </contour>
  </outline>
</glyph>
<glyph name="periodcentered" format="1">
  <advance width="233"/>
  <unicode hex="00B7"/>
  <outline>
    <contour>
      <point x="154" y="440" type="curve"/>
      <point x="154" y="462"/>
      <point x="138" y="474"/>
      <point x="116" y="474" type="curve"/>
      <point x="94" y="474"/>
      <point x="79" y="461"/>
      <point x="79" y="440" type="curve"/>
      <point x="145" y="440"/>
      <point x="89" y="440"/>
      <point x="154" y="440" type="curve"/>
      <point x="154" y="418"/>
      <point x="138" y="406"/>
      <point x="116" y="406" type="curve"/>
      <point x="94" y="406"/>
      <point x="79" y="418"/>
      <point x="79" y="440" type="curve"/>
      <point x="145" y="440"/>
      <point x="89" y="440"/>
    </contour>
  </outline>
</glyph>
<glyph name="cedilla" format="1">
  <advance width="364"/>
  <unicode hex="00B8"/>
  <outline>
    <contour>
      <point x="181" y="29" type="move" name="_bottom"/>
    </contour>
    <contour>
      <point x="141" y="62" type="curve"/>
      <point x="126" y="36"/>
      <point x="97" y="-11"/>
      <point x="83" y="-36" type="curve"/>
      <point x="123" y="-74"/>
      <point x="83" y="-36"/>
      <point x="123" y="-74" type="curve"/>
      <point x="139" y="-47"/>
      <point x="171" y="2"/>
      <point x="187" y="29" type="curve"/>
      <point x="141" y="62"/>
      <point x="187" y="29"/>
    </contour>
    <contour>
      <point x="123" y="-75" type="curve"/>
      <point x="136" y="-67"/>
      <point x="147" y="-64"/>
      <point x="162" y="-64" type="curve"/>
      <point x="190" y="-64"/>
      <point x="206" y="-80"/>
      <point x="206" y="-108" type="curve"/>
      <point x="206" y="-139"/>
      <point x="181" y="-152"/>
      <point x="149" y="-152" type="curve"/>
      <point x="121" y="-152"/>
      <point x="102" y="-148"/>
      <point x="76" y="-134" type="curve"/>
      <point x="55" y="-171"/>
      <point x="76" y="-134"/>
      <point x="55" y="-171" type="curve"/>
      <point x="86" y="-187"/>
      <point x="111" y="-194"/>
      <point x="146" y="-194" type="curve"/>
      <point x="210" y="-194"/>
      <point x="256" y="-167"/>
      <point x="256" y="-107" type="curve"/>
      <point x="256" y="-51"/>
      <point x="220" y="-18"/>
      <point x="163" y="-18" type="curve"/>
      <point x="132" y="-18"/>
      <point x="111" y="-24"/>
      <point x="83" y="-37" type="curve"/>
      <point x="123" y="-75"/>
      <point x="83" y="-37"/>
    </contour>
  </outline>
</glyph>
<glyph name="onesuperior" format="1">
  <advance width="396"/>
  <unicode hex="00B9"/>
  <outline>
    <contour>
      <point x="228" y="710" type="move" name="_top"/>
    </contour>
    <contour>
      <point x="231" y="299" type="move" name="_bottom"/>
    </contour>
    <contour>
      <point x="202" y="298" type="curve"/>
      <point x="247" y="298"/>
      <point x="284" y="298"/>
      <point x="329" y="298" type="curve"/>
      <point x="329" y="342"/>
      <point x="329" y="296"/>
      <point x="329" y="341" type="curve"/>
      <point x="303" y="341"/>
      <point x="284" y="341"/>
      <point x="258" y="341" type="curve"/>
      <point x="202" y="296"/>
      <point x="258" y="342"/>
    </contour>
    <contour>
      <point x="258" y="341" type="curve"/>
      <point x="212" y="341"/>
      <point x="173" y="341"/>
      <point x="127" y="341" type="curve"/>
      <point x="127" y="296"/>
      <point x="127" y="342"/>
      <point x="127" y="298" type="curve"/>
      <point x="154" y="298"/>
      <point x="175" y="298"/>
      <point x="203" y="298" type="curve"/>
      <point x="258" y="342"/>
      <point x="203" y="296"/>
    </contour>
    <contour>
      <point x="99" y="571" type="line"/>
      <point x="258" y="705" type="line"/>
      <point x="203" y="712" type="line"/>
      <point x="70" y="605" type="line"/>
    </contour>
    <contour>
      <point x="258" y="341" type="curve"/>
      <point x="258" y="712" type="line"/>
      <point x="203" y="712" type="line"/>
      <point x="203" y="298" type="line"/>
      <point x="258" y="342"/>
      <point x="203" y="296"/>
    </contour>
  </outline>
</glyph>
<glyph name="ordmasculine" format="1">
  <advance width="469"/>
  <unicode hex="00BA"/>
  <outline>
    <contour>
      <point x="114" y="601" type="curve"/>
      <point x="114" y="682"/>
      <point x="156" y="734"/>
      <point x="234" y="734" type="curve"/>
      <point x="312" y="734"/>
      <point x="353" y="681"/>
      <point x="353" y="600" type="curve"/>
      <point x="353" y="515"/>
      <point x="313" y="458"/>
      <point x="239" y="458" type="curve"/>
      <point x="156" y="458"/>
      <point x="114" y="516"/>
      <point x="114" y="601" type="curve"/>
      <point x="87" y="601"/>
      <point x="97" y="601"/>
      <point x="70" y="601" type="curve"/>
      <point x="70" y="491"/>
      <point x="129" y="420"/>
      <point x="237" y="420" type="curve"/>
      <point x="341" y="420"/>
      <point x="399" y="491"/>
      <point x="399" y="600" type="curve"/>
      <point x="399" y="705"/>
      <point x="341" y="771"/>
      <point x="236" y="771" type="curve"/>
      <point x="130" y="771"/>
      <point x="70" y="705"/>
      <point x="70" y="601" type="curve"/>
      <point x="97" y="601"/>
      <point x="87" y="601"/>
    </contour>
  </outline>
</glyph>
<glyph name="onehalf" format="1">
  <advance width="1069"/>
  <unicode hex="00BD"/>
  <outline>
    <contour>
      <point x="336" y="-76" type="line"/>
      <point x="781" y="742" type="line"/>
      <point x="722" y="742" type="line"/>
      <point x="278" y="-76" type="line"/>
    </contour>
    <contour>
      <point x="173" y="331" type="curve"/>
      <point x="217" y="331"/>
      <point x="255" y="331"/>
      <point x="300" y="331" type="curve"/>
      <point x="300" y="376"/>
      <point x="300" y="329"/>
      <point x="300" y="374" type="curve"/>
      <point x="273" y="374"/>
      <point x="254" y="374"/>
      <point x="228" y="374" type="curve"/>
      <point x="173" y="329"/>
      <point x="228" y="376"/>
    </contour>
    <contour>
      <point x="229" y="374" type="curve"/>
      <point x="183" y="374"/>
      <point x="144" y="374"/>
      <point x="97" y="374" type="curve"/>
      <point x="97" y="329"/>
      <point x="97" y="376"/>
      <point x="97" y="331" type="curve"/>
      <point x="125" y="331"/>
      <point x="145" y="331"/>
      <point x="173" y="331" type="curve"/>
      <point x="229" y="376"/>
      <point x="173" y="329"/>
    </contour>
    <contour>
      <point x="69" y="605" type="line"/>
      <point x="228" y="739" type="line"/>
      <point x="173" y="745" type="line"/>
      <point x="40" y="638" type="line"/>
    </contour>
    <contour>
      <point x="229" y="374" type="curve"/>
      <point x="229" y="745" type="line"/>
      <point x="173" y="745" type="line"/>
      <point x="173" y="331" type="line"/>
      <point x="229" y="376"/>
      <point x="173" y="329"/>
    </contour>
    <contour>
      <point x="1028" y="-78" type="curve"/>
      <point x="1028" y="-39"/>
      <point x="1028" y="-10"/>
      <point x="1028" y="29" type="curve"/>
      <point x="981" y="29"/>
      <point x="1030" y="29"/>
      <point x="983" y="29" type="curve"/>
      <point x="983" y="5"/>
      <point x="983" y="-9"/>
      <point x="983" y="-34" type="curve"/>
      <point x="1032" y="-75"/>
      <point x="979" y="-36"/>
    </contour>
    <contour>
      <point x="677" y="-78" type="curve"/>
      <point x="803" y="-78"/>
      <point x="918" y="-78"/>
      <point x="1028" y="-78" type="curve"/>
      <point x="979" y="-36"/>
      <point x="1032" y="-75"/>
      <point x="983" y="-34" type="curve"/>
      <point x="882" y="-34"/>
      <point x="778" y="-34"/>
      <point x="677" y="-34" type="curve"/>
      <point x="677" y="-78"/>
      <point x="677" y="-34"/>
    </contour>
    <contour>
      <point x="741" y="233" type="curve"/>
      <point x="770" y="275"/>
      <point x="802" y="301"/>
      <point x="854" y="301" type="curve"/>
      <point x="912" y="301"/>
      <point x="950" y="272"/>
      <point x="950" y="218" type="curve"/>
      <point x="950" y="168"/>
      <point x="916" y="144"/>
      <point x="878" y="112" type="curve"/>
      <point x="811" y="64"/>
      <point x="743" y="15"/>
      <point x="677" y="-34" type="curve"/>
      <point x="684" y="-77"/>
      <point x="677" y="-34"/>
      <point x="684" y="-77" type="curve"/>
      <point x="764" y="-23"/>
      <point x="841" y="26"/>
      <point x="910" y="77" type="curve"/>
      <point x="962" y="121"/>
      <point x="1006" y="152"/>
      <point x="1006" y="220" type="curve"/>
      <point x="1006" y="302"/>
      <point x="945" y="345"/>
      <point x="858" y="345" type="curve"/>
      <point x="786" y="345"/>
      <point x="735" y="318"/>
      <point x="702" y="255" type="curve"/>
      <point x="741" y="233"/>
      <point x="702" y="255"/>
    </contour>
  </outline>
</glyph>
<glyph name="threequarters" format="1">
  <advance width="1017"/>
  <unicode hex="00BE"/>
  <outline>
    <contour>
      <point x="338" y="-76" type="line"/>
      <point x="782" y="742" type="line"/>
      <point x="723" y="742" type="line"/>
      <point x="279" y="-76" type="line"/>
    </contour>
    <contour>
      <point x="82" y="658" type="curve"/>
      <point x="111" y="683"/>
      <point x="143" y="700"/>
      <point x="179" y="700" type="curve"/>
      <point x="236" y="700"/>
      <point x="278" y="680"/>
      <point x="278" y="628" type="curve"/>
      <point x="278" y="567"/>
      <point x="206" y="557"/>
      <point x="134" y="553" type="curve"/>
      <point x="134" y="515"/>
      <point x="134" y="553"/>
      <point x="134" y="515" type="curve"/>
      <point x="241" y="517"/>
      <point x="335" y="538"/>
      <point x="335" y="631" type="curve"/>
      <point x="335" y="711"/>
      <point x="271" y="743"/>
      <point x="185" y="743" type="curve"/>
      <point x="133" y="743"/>
      <point x="86" y="722"/>
      <point x="53" y="688" type="curve"/>
      <point x="82" y="658"/>
      <point x="53" y="688"/>
    </contour>
    <contour>
      <point x="47" y="350" type="curve"/>
      <point x="87" y="328"/>
      <point x="126" y="316"/>
      <point x="171" y="316" type="curve"/>
      <point x="274" y="313"/>
      <point x="353" y="345"/>
      <point x="351" y="436" type="curve"/>
      <point x="351" y="537"/>
      <point x="247" y="542"/>
      <point x="134" y="545" type="curve"/>
      <point x="134" y="512"/>
      <point x="134" y="545"/>
      <point x="134" y="512" type="curve"/>
      <point x="219" y="508"/>
      <point x="294" y="500"/>
      <point x="294" y="435" type="curve"/>
      <point x="294" y="377"/>
      <point x="243" y="357"/>
      <point x="177" y="359" type="curve"/>
      <point x="141" y="359"/>
      <point x="108" y="367"/>
      <point x="72" y="384" type="curve"/>
      <point x="47" y="350"/>
      <point x="72" y="384"/>
    </contour>
    <contour>
      <point x="988" y="82" type="line"/>
      <point x="600" y="82" type="line"/>
      <point x="600" y="39" type="line"/>
      <point x="988" y="39" type="line"/>
    </contour>
    <contour>
      <point x="621" y="43" type="line"/>
      <point x="878" y="346" type="line"/>
      <point x="832" y="356" type="line"/>
      <point x="600" y="82" type="line"/>
    </contour>
    <contour>
      <point x="888" y="-81" type="line"/>
      <point x="888" y="356" type="line"/>
      <point x="832" y="356" type="line"/>
      <point x="832" y="-81" type="line"/>
    </contour>
    <contour>
      <point x="860" y="-39" type="line"/>
      <point x="754" y="-39" type="line"/>
      <point x="754" y="-81" type="line"/>
      <point x="860" y="-81" type="line"/>
    </contour>
    <contour>
      <point x="860" y="-81" type="line"/>
      <point x="962" y="-81" type="line"/>
      <point x="962" y="-39" type="line"/>
      <point x="860" y="-39" type="line"/>
    </contour>
  </outline>
</glyph>
<glyph name="questiondown" format="1">
  <advance width="521"/>
  <unicode hex="00BF"/>
  <outline>
    <contour>
      <point x="322" y="364" type="curve"/>
      <point x="322" y="401"/>
      <point x="322" y="453"/>
      <point x="322" y="490" type="curve"/>
      <point x="262" y="490"/>
      <point x="322" y="490"/>
      <point x="262" y="490" type="curve"/>
      <point x="262" y="453"/>
      <point x="262" y="401"/>
      <point x="262" y="364" type="curve"/>
      <point x="322" y="364"/>
      <point x="262" y="364"/>
    </contour>
    <contour>
      <point x="430" y="102" type="line"/>
      <point x="397" y="67"/>
      <point x="348" y="39"/>
      <point x="286" y="39" type="curve"/>
      <point x="186" y="39"/>
      <point x="119" y="94"/>
      <point x="119" y="193" type="curve"/>
      <point x="119" y="301"/>
      <point x="199" y="364"/>
      <point x="315" y="364" type="curve"/>
      <point x="315" y="386"/>
      <point x="315" y="390"/>
      <point x="315" y="412" type="curve"/>
      <point x="165" y="412"/>
      <point x="61" y="332"/>
      <point x="61" y="193" type="curve"/>
      <point x="61" y="64"/>
      <point x="152" y="-11"/>
      <point x="283" y="-11" type="curve"/>
      <point x="361" y="-11"/>
      <point x="420" y="19"/>
      <point x="464" y="65" type="curve"/>
    </contour>
    <contour>
      <point x="256" y="693" type="curve"/>
      <point x="256" y="671"/>
      <point x="271" y="660"/>
      <point x="292" y="660" type="curve"/>
      <point x="314" y="660"/>
      <point x="327" y="673"/>
      <point x="327" y="693" type="curve"/>
      <point x="256" y="693"/>
      <point x="327" y="693"/>
      <point x="256" y="693" type="curve"/>
      <point x="256" y="714"/>
      <point x="271" y="723"/>
      <point x="292" y="723" type="curve"/>
      <point x="314" y="723"/>
      <point x="327" y="713"/>
      <point x="327" y="693" type="curve"/>
      <point x="256" y="693"/>
      <point x="327" y="693"/>
    </contour>
  </outline>
</glyph>
<glyph name="Acircumflex" format="1">
  <advance width="837"/>
  <unicode hex="00C2"/>
  <outline>
    <contour>
      <point x="117" y="48" type="curve"/>
      <point x="-26" y="48"/>
      <point x="126" y="48"/>
      <point x="-18" y="48" type="curve"/>
      <point x="-18" y="0"/>
      <point x="-18" y="48"/>
      <point x="-18" y="0" type="curve"/>
      <point x="30" y="0"/>
      <point x="70" y="0"/>
      <point x="117" y="0" type="curve"/>
      <point x="117" y="48"/>
      <point x="117" y="0"/>
    </contour>
    <contour>
      <point x="117" y="0" type="curve"/>
      <point x="171" y="0"/>
      <point x="111" y="0"/>
      <point x="272" y="0" type="curve"/>
      <point x="272" y="48"/>
      <point x="272" y="0"/>
      <point x="272" y="48" type="curve"/>
      <point x="111" y="48"/>
      <point x="279" y="48"/>
      <point x="117" y="48" type="curve"/>
      <point x="117" y="0"/>
      <point x="117" y="48"/>
    </contour>
    <contour>
      <point x="688" y="0" type="curve"/>
      <point x="736" y="0"/>
      <point x="776" y="0"/>
      <point x="823" y="0" type="curve"/>
      <point x="823" y="48"/>
      <point x="823" y="0"/>
      <point x="823" y="48" type="curve"/>
      <point x="680" y="48"/>
      <point x="832" y="48"/>
      <point x="688" y="48" type="curve"/>
      <point x="688" y="0"/>
      <point x="688" y="48"/>
    </contour>
    <contour>
      <point x="688" y="48" type="curve"/>
      <point x="527" y="48"/>
      <point x="695" y="48"/>
      <point x="533" y="48" type="curve"/>
      <point x="533" y="0"/>
      <point x="533" y="48"/>
      <point x="533" y="0" type="curve"/>
      <point x="588" y="0"/>
      <point x="634" y="0"/>
      <point x="688" y="0" type="curve"/>
      <point x="688" y="48"/>
      <point x="688" y="0"/>
    </contour>
    <contour>
      <point x="588" y="285" type="curve"/>
      <point x="471" y="285"/>
      <point x="353" y="285"/>
      <point x="235" y="285" type="curve"/>
      <point x="211" y="235"/>
      <point x="235" y="285"/>
      <point x="211" y="235" type="curve"/>
      <point x="343" y="235"/>
      <point x="475" y="235"/>
      <point x="607" y="235" type="curve"/>
      <point x="588" y="285"/>
      <point x="607" y="235"/>
    </contour>
    <contour>
      <point x="732" y="0" type="curve"/>
      <point x="638" y="241"/>
      <point x="541" y="481"/>
      <point x="447" y="722" type="curve"/>
      <point x="392" y="722"/>
      <point x="447" y="722"/>
      <point x="392" y="722" type="curve"/>
      <point x="485" y="482"/>
      <point x="576" y="240"/>
      <point x="669" y="0" type="curve"/>
      <point x="732" y="0"/>
      <point x="669" y="0"/>
    </contour>
    <contour>
      <point x="138" y="0" type="curve"/>
      <point x="241" y="240"/>
      <point x="342" y="482"/>
      <point x="445" y="722" type="curve"/>
      <point x="391" y="722"/>
      <point x="445" y="722"/>
      <point x="391" y="722" type="curve"/>
      <point x="285" y="481"/>
      <point x="177" y="241"/>
      <point x="72" y="0" type="curve"/>
      <point x="138" y="0"/>
      <point x="72" y="0"/>
    </contour>
    <contour>
      <point x="301" y="813" type="line"/>
      <point x="447" y="979" type="line"/>
      <point x="366" y="979" type="line"/>
      <point x="240" y="813" type="line"/>
    </contour>
    <contour>
      <point x="596" y="813" type="line"/>
      <point x="468" y="979" type="line"/>
      <point x="388" y="979" type="line"/>
      <point x="534" y="813" type="line"/>
    </contour>
  </outline>
</glyph>
<glyph name="Adieresis" format="1">
  <advance width="837"/>
  <unicode hex="00C4"/>
  <outline>
    <contour>
      <point x="117" y="48" type="curve"/>
      <point x="-26" y="48"/>
      <point x="126" y="48"/>
      <point x="-18" y="48" type="curve"/>
      <point x="-18" y="0"/>
      <point x="-18" y="48"/>
      <point x="-18" y="0" type="curve"/>
      <point x="30" y="0"/>
      <point x="70" y="0"/>
      <point x="117" y="0" type="curve"/>
      <point x="117" y="48"/>
      <point x="117" y="0"/>
    </contour>
    <contour>
      <point x="117" y="0" type="curve"/>
      <point x="171" y="0"/>
      <point x="111" y="0"/>
      <point x="272" y="0" type="curve"/>
      <point x="272" y="48"/>
      <point x="272" y="0"/>
      <point x="272" y="48" type="curve"/>
      <point x="111" y="48"/>
      <point x="279" y="48"/>
      <point x="117" y="48" type="curve"/>
      <point x="117" y="0"/>
      <point x="117" y="48"/>
    </contour>
    <contour>
      <point x="688" y="0" type="curve"/>
      <point x="736" y="0"/>
      <point x="776" y="0"/>
      <point x="823" y="0" type="curve"/>
      <point x="823" y="48"/>
      <point x="823" y="0"/>
      <point x="823" y="48" type="curve"/>
      <point x="680" y="48"/>
      <point x="832" y="48"/>
      <point x="688" y="48" type="curve"/>
      <point x="688" y="0"/>
      <point x="688" y="48"/>
    </contour>
    <contour>
      <point x="688" y="48" type="curve"/>
      <point x="527" y="48"/>
      <point x="695" y="48"/>
      <point x="533" y="48" type="curve"/>
      <point x="533" y="0"/>
      <point x="533" y="48"/>
      <point x="533" y="0" type="curve"/>
      <point x="588" y="0"/>
      <point x="634" y="0"/>
      <point x="688" y="0" type="curve"/>
      <point x="688" y="48"/>
      <point x="688" y="0"/>
    </contour>
    <contour>
      <point x="588" y="285" type="curve"/>
      <point x="471" y="285"/>
      <point x="353" y="285"/>
      <point x="235" y="285" type="curve"/>
      <point x="211" y="235"/>
      <point x="235" y="285"/>
      <point x="211" y="235" type="curve"/>
      <point x="343" y="235"/>
      <point x="475" y="235"/>
      <point x="607" y="235" type="curve"/>
      <point x="588" y="285"/>
      <point x="607" y="235"/>
    </contour>
    <contour>
      <point x="732" y="0" type="curve"/>
      <point x="638" y="241"/>
      <point x="541" y="481"/>
      <point x="447" y="722" type="curve"/>
      <point x="392" y="722"/>
      <point x="447" y="722"/>
      <point x="392" y="722" type="curve"/>
      <point x="485" y="482"/>
      <point x="576" y="240"/>
      <point x="669" y="0" type="curve"/>
      <point x="732" y="0"/>
      <point x="669" y="0"/>
    </contour>
    <contour>
      <point x="138" y="0" type="curve"/>
      <point x="241" y="240"/>
      <point x="342" y="482"/>
      <point x="445" y="722" type="curve"/>
      <point x="391" y="722"/>
      <point x="445" y="722"/>
      <point x="391" y="722" type="curve"/>
      <point x="285" y="481"/>
      <point x="177" y="241"/>
      <point x="72" y="0" type="curve"/>
      <point x="138" y="0"/>
      <point x="72" y="0"/>
    </contour>
    <contour>
      <point x="378" y="843" type="curve"/>
      <point x="378" y="865"/>
      <point x="363" y="877"/>
      <point x="340" y="877" type="curve"/>
      <point x="318" y="877"/>
      <point x="304" y="864"/>
      <point x="304" y="843" type="curve"/>
      <point x="369" y="843"/>
      <point x="313" y="843"/>
      <point x="378" y="843" type="curve"/>
      <point x="378" y="821"/>
      <point x="363" y="810"/>
      <point x="340" y="810" type="curve"/>
      <point x="318" y="810"/>
      <point x="304" y="822"/>
      <point x="304" y="843" type="curve"/>
      <point x="369" y="843"/>
      <point x="313" y="843"/>
    </contour>
    <contour>
      <point x="531" y="843" type="curve"/>
      <point x="531" y="865"/>
      <point x="515" y="877"/>
      <point x="493" y="877" type="curve"/>
      <point x="471" y="877"/>
      <point x="457" y="864"/>
      <point x="457" y="843" type="curve"/>
      <point x="522" y="843"/>
      <point x="466" y="843"/>
      <point x="531" y="843" type="curve"/>
      <point x="531" y="821"/>
      <point x="515" y="810"/>
      <point x="493" y="810" type="curve"/>
      <point x="471" y="810"/>
      <point x="457" y="822"/>
      <point x="457" y="843" type="curve"/>
      <point x="522" y="843"/>
      <point x="466" y="843"/>
    </contour>
  </outline>
</glyph>
<glyph name="Aring" format="1">
  <advance width="837"/>
  <unicode hex="00C5"/>
  <outline>
    <contour>
      <point x="117" y="48" type="curve"/>
      <point x="-26" y="48"/>
      <point x="126" y="48"/>
      <point x="-18" y="48" type="curve"/>
      <point x="-18" y="0"/>
      <point x="-18" y="48"/>
      <point x="-18" y="0" type="curve"/>
      <point x="30" y="0"/>
      <point x="70" y="0"/>
      <point x="117" y="0" type="curve"/>
      <point x="117" y="48"/>
      <point x="117" y="0"/>
    </contour>
    <contour>
      <point x="117" y="0" type="curve"/>
      <point x="171" y="0"/>
      <point x="111" y="0"/>
      <point x="272" y="0" type="curve"/>
      <point x="272" y="48"/>
      <point x="272" y="0"/>
      <point x="272" y="48" type="curve"/>
      <point x="111" y="48"/>
      <point x="279" y="48"/>
      <point x="117" y="48" type="curve"/>
      <point x="117" y="0"/>
      <point x="117" y="48"/>
    </contour>
    <contour>
      <point x="688" y="0" type="curve"/>
      <point x="736" y="0"/>
      <point x="776" y="0"/>
      <point x="823" y="0" type="curve"/>
      <point x="823" y="48"/>
      <point x="823" y="0"/>
      <point x="823" y="48" type="curve"/>
      <point x="680" y="48"/>
      <point x="832" y="48"/>
      <point x="688" y="48" type="curve"/>
      <point x="688" y="0"/>
      <point x="688" y="48"/>
    </contour>
    <contour>
      <point x="688" y="48" type="curve"/>
      <point x="527" y="48"/>
      <point x="695" y="48"/>
      <point x="533" y="48" type="curve"/>
      <point x="533" y="0"/>
      <point x="533" y="48"/>
      <point x="533" y="0" type="curve"/>
      <point x="588" y="0"/>
      <point x="634" y="0"/>
      <point x="688" y="0" type="curve"/>
      <point x="688" y="48"/>
      <point x="688" y="0"/>
    </contour>
    <contour>
      <point x="588" y="285" type="curve"/>
      <point x="471" y="285"/>
      <point x="353" y="285"/>
      <point x="235" y="285" type="curve"/>
      <point x="211" y="235"/>
      <point x="235" y="285"/>
      <point x="211" y="235" type="curve"/>
      <point x="343" y="235"/>
      <point x="475" y="235"/>
      <point x="607" y="235" type="curve"/>
      <point x="588" y="285"/>
      <point x="607" y="235"/>
    </contour>
    <contour>
      <point x="732" y="0" type="curve"/>
      <point x="638" y="241"/>
      <point x="541" y="481"/>
      <point x="447" y="722" type="curve"/>
      <point x="392" y="722"/>
      <point x="447" y="722"/>
      <point x="392" y="722" type="curve"/>
      <point x="485" y="482"/>
      <point x="576" y="240"/>
      <point x="669" y="0" type="curve"/>
      <point x="732" y="0"/>
      <point x="669" y="0"/>
    </contour>
    <contour>
      <point x="138" y="0" type="curve"/>
      <point x="241" y="240"/>
      <point x="342" y="482"/>
      <point x="445" y="722" type="curve"/>
      <point x="391" y="722"/>
      <point x="445" y="722"/>
      <point x="391" y="722" type="curve"/>
      <point x="285" y="481"/>
      <point x="177" y="241"/>
      <point x="72" y="0" type="curve"/>
      <point x="138" y="0"/>
      <point x="72" y="0"/>
    </contour>
    <contour>
      <point x="283" y="936" type="curve"/>
      <point x="283" y="857"/>
      <point x="337" y="811"/>
      <point x="418" y="811" type="curve"/>
      <point x="501" y="811"/>
      <point x="557" y="856"/>
      <point x="557" y="936" type="curve"/>
      <point x="557" y="1017"/>
      <point x="500" y="1062"/>
      <point x="416" y="1062" type="curve"/>
      <point x="335" y="1062"/>
      <point x="283" y="1016"/>
      <point x="283" y="936" type="curve"/>
      <point x="336" y="936"/>
      <point x="282" y="936"/>
      <point x="334" y="936" type="curve"/>
      <point x="334" y="987"/>
      <point x="364" y="1019"/>
      <point x="416" y="1019" type="curve"/>
      <point x="470" y="1019"/>
      <point x="503" y="990"/>
      <point x="503" y="936" type="curve"/>
      <point x="503" y="884"/>
      <point x="471" y="854"/>
      <point x="418" y="854" type="curve"/>
      <point x="366" y="854"/>
      <point x="334" y="884"/>
      <point x="334" y="936" type="curve"/>
      <point x="282" y="936"/>
      <point x="336" y="936"/>
    </contour>
  </outline>
</glyph>
<glyph name="Eacute" format="1">
  <advance width="688"/>
  <unicode hex="00C9"/>
  <outline>
    <contour>
      <point x="641" y="24" type="curve"/>
      <point x="641" y="144"/>
      <point x="641" y="20"/>
      <point x="641" y="140" type="curve"/>
      <point x="593" y="140"/>
      <point x="641" y="140"/>
      <point x="593" y="140" type="curve"/>
      <point x="593" y="20"/>
      <point x="593" y="144"/>
      <point x="593" y="24" type="curve"/>
      <point x="641" y="24"/>
      <point x="593" y="24"/>
    </contour>
    <contour>
      <point x="557" y="698" type="curve"/>
      <point x="557" y="578"/>
      <point x="557" y="702"/>
      <point x="557" y="582" type="curve"/>
      <point x="606" y="582"/>
      <point x="557" y="582"/>
      <point x="606" y="582" type="curve"/>
      <point x="606" y="702"/>
      <point x="606" y="578"/>
      <point x="606" y="698" type="curve"/>
      <point x="557" y="698"/>
      <point x="606" y="698"/>
    </contour>
    <contour>
      <point x="194" y="48" type="curve"/>
      <point x="43" y="48"/>
      <point x="201" y="48"/>
      <point x="49" y="48" type="curve"/>
      <point x="49" y="0"/>
      <point x="49" y="48"/>
      <point x="49" y="0" type="curve"/>
      <point x="100" y="0"/>
      <point x="143" y="0"/>
      <point x="194" y="0" type="curve"/>
      <point x="194" y="48"/>
      <point x="194" y="0"/>
    </contour>
    <contour>
      <point x="194" y="722" type="curve"/>
      <point x="143" y="722"/>
      <point x="100" y="722"/>
      <point x="49" y="722" type="curve"/>
      <point x="49" y="674"/>
      <point x="49" y="722"/>
      <point x="49" y="674" type="curve"/>
      <point x="201" y="674"/>
      <point x="43" y="674"/>
      <point x="194" y="674" type="curve"/>
      <point x="194" y="722"/>
      <point x="194" y="674"/>
    </contour>
    <contour>
      <point x="197" y="349" type="curve"/>
      <point x="311" y="349"/>
      <point x="426" y="349"/>
      <point x="540" y="349" type="curve"/>
      <point x="540" y="398"/>
      <point x="540" y="349"/>
      <point x="540" y="398" type="curve"/>
      <point x="426" y="398"/>
      <point x="311" y="398"/>
      <point x="197" y="398" type="curve"/>
      <point x="197" y="349"/>
      <point x="197" y="398"/>
    </contour>
    <contour>
      <point x="182" y="674" type="curve"/>
      <point x="323" y="674"/>
      <point x="464" y="674"/>
      <point x="606" y="674" type="curve"/>
      <point x="606" y="722"/>
      <point x="606" y="674"/>
      <point x="606" y="722" type="curve"/>
      <point x="464" y="722"/>
      <point x="323" y="722"/>
      <point x="182" y="722" type="curve"/>
      <point x="182" y="674"/>
      <point x="182" y="722"/>
    </contour>
    <contour>
      <point x="223" y="0" type="curve"/>
      <point x="223" y="722" type="line"/>
      <point x="163" y="722"/>
      <point x="223" y="722"/>
      <point x="163" y="722" type="curve"/>
      <point x="163" y="481"/>
      <point x="163" y="241"/>
      <point x="163" y="0" type="curve"/>
      <point x="223" y="0"/>
      <point x="163" y="0"/>
    </contour>
    <contour>
      <point x="182" y="0" type="curve"/>
      <point x="335" y="0"/>
      <point x="488" y="0"/>
      <point x="641" y="0" type="curve"/>
      <point x="641" y="48"/>
      <point x="641" y="0"/>
      <point x="641" y="48" type="curve"/>
      <point x="488" y="48"/>
      <point x="335" y="48"/>
      <point x="182" y="48" type="curve"/>
      <point x="182" y="0"/>
      <point x="182" y="48"/>
    </contour>
    <contour>
      <point x="384" y="812" type="line"/>
      <point x="529" y="978" type="line"/>
      <point x="449" y="978" type="line"/>
      <point x="323" y="812" type="line"/>
    </contour>
  </outline>
</glyph>
<glyph name="Edieresis" format="1">
  <advance width="688"/>
  <unicode hex="00CB"/>
  <outline>
    <contour>
      <point x="641" y="24" type="curve"/>
      <point x="641" y="144"/>
      <point x="641" y="20"/>
      <point x="641" y="140" type="curve"/>
      <point x="593" y="140"/>
      <point x="641" y="140"/>
      <point x="593" y="140" type="curve"/>
      <point x="593" y="20"/>
      <point x="593" y="144"/>
      <point x="593" y="24" type="curve"/>
      <point x="641" y="24"/>
      <point x="593" y="24"/>
    </contour>
    <contour>
      <point x="557" y="698" type="curve"/>
      <point x="557" y="578"/>
      <point x="557" y="702"/>
      <point x="557" y="582" type="curve"/>
      <point x="606" y="582"/>
      <point x="557" y="582"/>
      <point x="606" y="582" type="curve"/>
      <point x="606" y="702"/>
      <point x="606" y="578"/>
      <point x="606" y="698" type="curve"/>
      <point x="557" y="698"/>
      <point x="606" y="698"/>
    </contour>
    <contour>
      <point x="194" y="48" type="curve"/>
      <point x="43" y="48"/>
      <point x="201" y="48"/>
      <point x="49" y="48" type="curve"/>
      <point x="49" y="0"/>
      <point x="49" y="48"/>
      <point x="49" y="0" type="curve"/>
      <point x="100" y="0"/>
      <point x="143" y="0"/>
      <point x="194" y="0" type="curve"/>
      <point x="194" y="48"/>
      <point x="194" y="0"/>
    </contour>
    <contour>
      <point x="194" y="722" type="curve"/>
      <point x="143" y="722"/>
      <point x="100" y="722"/>
      <point x="49" y="722" type="curve"/>
      <point x="49" y="674"/>
      <point x="49" y="722"/>
      <point x="49" y="674" type="curve"/>
      <point x="201" y="674"/>
      <point x="43" y="674"/>
      <point x="194" y="674" type="curve"/>
      <point x="194" y="722"/>
      <point x="194" y="674"/>
    </contour>
    <contour>
      <point x="197" y="349" type="curve"/>
      <point x="311" y="349"/>
      <point x="426" y="349"/>
      <point x="540" y="349" type="curve"/>
      <point x="540" y="398"/>
      <point x="540" y="349"/>
      <point x="540" y="398" type="curve"/>
      <point x="426" y="398"/>
      <point x="311" y="398"/>
      <point x="197" y="398" type="curve"/>
      <point x="197" y="349"/>
      <point x="197" y="398"/>
    </contour>
    <contour>
      <point x="182" y="674" type="curve"/>
      <point x="323" y="674"/>
      <point x="464" y="674"/>
      <point x="606" y="674" type="curve"/>
      <point x="606" y="722"/>
      <point x="606" y="674"/>
      <point x="606" y="722" type="curve"/>
      <point x="464" y="722"/>
      <point x="323" y="722"/>
      <point x="182" y="722" type="curve"/>
      <point x="182" y="674"/>
      <point x="182" y="722"/>
    </contour>
    <contour>
      <point x="223" y="0" type="curve"/>
      <point x="223" y="722" type="line"/>
      <point x="163" y="722"/>
      <point x="223" y="722"/>
      <point x="163" y="722" type="curve"/>
      <point x="163" y="481"/>
      <point x="163" y="241"/>
      <point x="163" y="0" type="curve"/>
      <point x="223" y="0"/>
      <point x="163" y="0"/>
    </contour>
    <contour>
      <point x="182" y="0" type="curve"/>
      <point x="335" y="0"/>
      <point x="488" y="0"/>
      <point x="641" y="0" type="curve"/>
      <point x="641" y="48"/>
      <point x="641" y="0"/>
      <point x="641" y="48" type="curve"/>
      <point x="488" y="48"/>
      <point x="335" y="48"/>
      <point x="182" y="48" type="curve"/>
      <point x="182" y="0"/>
      <point x="182" y="48"/>
    </contour>
    <contour>
      <point x="317" y="843" type="curve"/>
      <point x="317" y="865"/>
      <point x="301" y="877"/>
      <point x="279" y="877" type="curve"/>
      <point x="257" y="877"/>
      <point x="243" y="864"/>
      <point x="243" y="843" type="curve"/>
      <point x="308" y="843"/>
      <point x="252" y="843"/>
      <point x="317" y="843" type="curve"/>
      <point x="317" y="821"/>
      <point x="301" y="810"/>
      <point x="279" y="810" type="curve"/>
      <point x="257" y="810"/>
      <point x="243" y="822"/>
      <point x="243" y="843" type="curve"/>
      <point x="308" y="843"/>
      <point x="252" y="843"/>
    </contour>
    <contour>
      <point x="470" y="843" type="curve"/>
      <point x="470" y="865"/>
      <point x="454" y="877"/>
      <point x="432" y="877" type="curve"/>
      <point x="410" y="877"/>
      <point x="395" y="864"/>
      <point x="395" y="843" type="curve"/>
      <point x="460" y="843"/>
      <point x="404" y="843"/>
      <point x="470" y="843" type="curve"/>
      <point x="470" y="821"/>
      <point x="454" y="810"/>
      <point x="432" y="810" type="curve"/>
      <point x="409" y="810"/>
      <point x="395" y="822"/>
      <point x="395" y="843" type="curve"/>
      <point x="460" y="843"/>
      <point x="404" y="843"/>
    </contour>
  </outline>
</glyph>
<glyph name="Igrave" format="1">
  <advance width="381"/>
  <unicode hex="00CC"/>
  <outline>
    <contour>
      <point x="195" y="722" type="curve"/>
      <point x="143" y="722"/>
      <point x="102" y="722"/>
      <point x="50" y="722" type="curve"/>
      <point x="50" y="674"/>
      <point x="50" y="722"/>
      <point x="50" y="674" type="curve"/>
      <point x="206" y="674"/>
      <point x="39" y="674"/>
      <point x="195" y="674" type="curve"/>
      <point x="195" y="722"/>
      <point x="195" y="674"/>
    </contour>
    <contour>
      <point x="195" y="674" type="curve"/>
      <point x="352" y="674"/>
      <point x="184" y="674"/>
      <point x="341" y="674" type="curve"/>
      <point x="341" y="722"/>
      <point x="341" y="674"/>
      <point x="341" y="722" type="curve"/>
      <point x="287" y="722"/>
      <point x="247" y="722"/>
      <point x="195" y="722" type="curve"/>
      <point x="195" y="674"/>
      <point x="195" y="722"/>
    </contour>
    <contour>
      <point x="195" y="0" type="curve"/>
      <point x="247" y="0"/>
      <point x="287" y="0"/>
      <point x="341" y="0" type="curve"/>
      <point x="341" y="48"/>
      <point x="341" y="0"/>
      <point x="341" y="48" type="curve"/>
      <point x="184" y="48"/>
      <point x="352" y="48"/>
      <point x="195" y="48" type="curve"/>
      <point x="195" y="0"/>
      <point x="195" y="48"/>
    </contour>
    <contour>
      <point x="195" y="48" type="curve"/>
      <point x="39" y="48"/>
      <point x="206" y="48"/>
      <point x="50" y="48" type="curve"/>
      <point x="50" y="0"/>
      <point x="50" y="48"/>
      <point x="50" y="0" type="curve"/>
      <point x="102" y="0"/>
      <point x="143" y="0"/>
      <point x="195" y="0" type="curve"/>
      <point x="195" y="48"/>
      <point x="195" y="0"/>
    </contour>
    <contour>
      <point x="224" y="0" type="curve"/>
      <point x="224" y="241"/>
      <point x="224" y="481"/>
      <point x="224" y="722" type="curve"/>
      <point x="164" y="722"/>
      <point x="224" y="722"/>
      <point x="164" y="722" type="curve"/>
      <point x="164" y="481"/>
      <point x="164" y="241"/>
      <point x="164" y="0" type="curve"/>
      <point x="224" y="0"/>
      <point x="164" y="0"/>
    </contour>
    <contour>
      <point x="230" y="812" type="line"/>
      <point x="102" y="978" type="line"/>
      <point x="23" y="978" type="line"/>
      <point x="168" y="812" type="line"/>
    </contour>
  </outline>
</glyph>
<glyph name="Iacute" format="1">
  <advance width="378"/>
  <unicode hex="00CD"/>
  <outline>
    <contour>
      <point x="187" y="722" type="curve"/>
      <point x="134" y="722"/>
      <point x="94" y="722"/>
      <point x="42" y="722" type="curve"/>
      <point x="42" y="674"/>
      <point x="42" y="722"/>
      <point x="42" y="674" type="curve"/>
      <point x="198" y="674"/>
      <point x="31" y="674"/>
      <point x="187" y="674" type="curve"/>
      <point x="187" y="722"/>
      <point x="187" y="674"/>
    </contour>
    <contour>
      <point x="187" y="674" type="curve"/>
      <point x="343" y="674"/>
      <point x="176" y="674"/>
      <point x="332" y="674" type="curve"/>
      <point x="332" y="722"/>
      <point x="332" y="674"/>
      <point x="332" y="722" type="curve"/>
      <point x="280" y="722"/>
      <point x="239" y="722"/>
      <point x="187" y="722" type="curve"/>
      <point x="187" y="674"/>
      <point x="187" y="722"/>
    </contour>
    <contour>
      <point x="187" y="0" type="curve"/>
      <point x="239" y="0"/>
      <point x="280" y="0"/>
      <point x="332" y="0" type="curve"/>
      <point x="332" y="48"/>
      <point x="332" y="0"/>
      <point x="332" y="48" type="curve"/>
      <point x="176" y="48"/>
      <point x="343" y="48"/>
      <point x="187" y="48" type="curve"/>
      <point x="187" y="0"/>
      <point x="187" y="48"/>
    </contour>
    <contour>
      <point x="187" y="48" type="curve"/>
      <point x="31" y="48"/>
      <point x="198" y="48"/>
      <point x="42" y="48" type="curve"/>
      <point x="42" y="0"/>
      <point x="42" y="48"/>
      <point x="42" y="0" type="curve"/>
      <point x="94" y="0"/>
      <point x="134" y="0"/>
      <point x="187" y="0" type="curve"/>
      <point x="187" y="48"/>
      <point x="187" y="0"/>
    </contour>
    <contour>
      <point x="216" y="0" type="curve"/>
      <point x="216" y="241"/>
      <point x="216" y="481"/>
      <point x="216" y="722" type="curve"/>
      <point x="155" y="722"/>
      <point x="216" y="722"/>
      <point x="155" y="722" type="curve"/>
      <point x="155" y="481"/>
      <point x="155" y="241"/>
      <point x="155" y="0" type="curve"/>
      <point x="216" y="0"/>
      <point x="155" y="0"/>
    </contour>
    <contour>
      <point x="214" y="812" type="line"/>
      <point x="360" y="978" type="line"/>
      <point x="280" y="978" type="line"/>
      <point x="153" y="812" type="line"/>
    </contour>
  </outline>
</glyph>
